<?xml version="1.0" encoding="UTF-8" standalone="no"?>
<svg
   style="fill-rule:evenodd;stroke-linecap:round"
   version="1.1"
   id="svg6781"
   width="12in"
   viewBox="0 0 7679.9994 12800"
   preserveAspectRatio="none"
   height="20in"
   inkscape:version="1.3 (0e150ed, 2023-07-21)"
   sodipodi:docname="cut-12x10-from-12x20.svg"
   xml:space="preserve"
   inkscape:export-filename="../pdf/cut-12x10-from-12x20.pdf"
   inkscape:export-xdpi="300"
   inkscape:export-ydpi="300"
   xmlns:inkscape="http://www.inkscape.org/namespaces/inkscape"
   xmlns:sodipodi="http://sodipodi.sourceforge.net/DTD/sodipodi-0.dtd"
   xmlns="http://www.w3.org/2000/svg"
   xmlns:svg="http://www.w3.org/2000/svg"
   xmlns:rdf="http://www.w3.org/1999/02/22-rdf-syntax-ns#"
   xmlns:cc="http://creativecommons.org/ns#"
   xmlns:dc="http://purl.org/dc/elements/1.1/"><sodipodi:namedview
     pagecolor="#ffffff"
     bordercolor="#666666"
     borderopacity="1"
     objecttolerance="10"
     gridtolerance="10"
     guidetolerance="10"
     inkscape:pageopacity="1"
     inkscape:pageshadow="2"
     inkscape:window-width="1368"
     inkscape:window-height="928"
     id="namedview9"
     showgrid="false"
     inkscape:zoom="0.33940972"
     inkscape:cx="1152"
     inkscape:cy="864.73657"
     inkscape:window-x="2259"
     inkscape:window-y="171"
     inkscape:window-maximized="0"
     inkscape:current-layer="layer2"
     inkscape:showpageshadow="2"
     inkscape:pagecheckerboard="0"
     inkscape:deskcolor="#d1d1d1"
     inkscape:document-units="mm" /><metadata
     id="metadata7279"><rdf:RDF><cc:Work
         rdf:about=""><dc:format>image/svg+xml</dc:format><dc:type
           rdf:resource="http://purl.org/dc/dcmitype/StillImage" /></cc:Work></rdf:RDF></metadata><defs
     id="defs7277"><inkscape:path-effect
   effect="fillet_chamfer"
   id="path-effect134701"
   is_visible="true"
   lpeversion="1"
   nodesatellites_param="F,0,0,1,0,0,0,1 @ F,0,0,1,0,51.718129,0,1 @ F,0,0,1,0,67.731889,0,1 @ F,0,0,1,0,0,0,1 @ F,0,0,1,0,0,0,1 @ F,0,0,1,0,63.617035,0,1 @ F,0,0,1,0,64.580101,0,1 @ F,0,0,1,0,66.418618,0,1 @ F,0,0,1,0,53.731811,0,1 @ F,0,0,1,0,71.313475,0,1 @ F,0,0,1,0,72.714422,0,1 @ F,0,0,1,0,63.187238,0,1 @ F,0,0,1,0,65.81378,0,1 @ F,0,0,1,0,65.718269,0,1 @ F,0,0,1,0,59.677222,0,1 @ F,0,0,1,0,0,0,1 @ F,0,0,1,0,0,0,1 @ F,0,0,1,0,62.303764,0,1 @ F,0,0,1,0,63.87969,0,1 @ F,0,0,1,0,0.34224638,0,1"
   unit="px"
   method="auto"
   mode="F"
   radius="0"
   chamfer_steps="1"
   flexible="false"
   use_knot_distance="true"
   apply_no_radius="true"
   apply_with_radius="true"
   only_selected="false"
   hide_knots="false" /><inkscape:path-effect
   effect="fillet_chamfer"
   id="path-effect121242"
   is_visible="true"
   lpeversion="1"
   nodesatellites_param="F,0,0,1,0,0,0,1 @ F,0,0,1,0,51.718129,0,1 @ F,0,0,1,0,67.731889,0,1 @ F,0,0,1,0,0,0,1 @ F,0,0,1,0,0,0,1 @ F,0,0,1,0,63.617035,0,1 @ F,0,0,1,0,64.580101,0,1 @ F,0,0,1,0,66.418618,0,1 @ F,0,0,1,0,53.731811,0,1 @ F,0,0,1,0,71.313475,0,1 @ F,0,0,1,0,72.714422,0,1 @ F,0,0,1,0,63.187238,0,1 @ F,0,0,1,0,65.81378,0,1 @ F,0,0,1,0,65.718269,0,1 @ F,0,0,1,0,59.677222,0,1 @ F,0,0,1,0,0,0,1 @ F,0,0,1,0,0,0,1 @ F,0,0,1,0,62.303764,0,1 @ F,0,0,1,0,63.87969,0,1 @ F,0,0,1,0,0,0,1"
   unit="px"
   method="auto"
   mode="F"
   radius="0"
   chamfer_steps="1"
   flexible="false"
   use_knot_distance="true"
   apply_no_radius="true"
   apply_with_radius="true"
   only_selected="false"
   hide_knots="false" /><inkscape:path-effect
   effect="fillet_chamfer"
   id="path-effect118339"
   is_visible="true"
   lpeversion="1"
   nodesatellites_param="F,0,0,1,0,0,0,1 @ F,0,0,1,0,51.718129,0,1 @ F,0,0,1,0,67.731889,0,1 @ F,0,0,1,0,0,0,1 @ F,0,0,1,0,0,0,1 @ F,0,0,1,0,63.617035,0,1 @ F,0,0,1,0,64.580101,0,1 @ F,0,0,1,0,66.418618,0,1 @ F,0,0,1,0,53.731811,0,1 @ F,0,0,1,0,71.313475,0,1 @ F,0,0,1,0,72.714422,0,1 @ F,0,0,1,0,63.187238,0,1 @ F,0,0,1,0,65.81378,0,1 @ F,0,0,1,0,65.718269,0,1 @ F,0,0,1,0,59.677222,0,1 @ F,0,0,1,0,0,0,1 @ F,0,0,1,0,0,0,1 @ F,0,0,1,0,62.303764,0,1 @ F,0,0,1,0,63.87969,0,1 @ F,0,0,1,0,0.34224638,0,1"
   unit="px"
   method="auto"
   mode="F"
   radius="0"
   chamfer_steps="1"
   flexible="false"
   use_knot_distance="true"
   apply_no_radius="true"
   apply_with_radius="true"
   only_selected="false"
   hide_knots="false" /><inkscape:path-effect
   effect="fillet_chamfer"
   id="path-effect116934"
   is_visible="true"
   lpeversion="1"
   nodesatellites_param="F,0,0,1,0,0,0,1 @ F,0,0,1,0,0,0,1 @ F,0,0,1,0,0,0,1 @ F,0,0,1,0,0,0,1 @ F,0,0,1,0,69.305454,0,1 @ F,0,0,1,0,73.76594,0,1 @ F,0,0,1,0,0,0,1 @ F,0,0,1,0,0,0,1 @ F,0,0,1,0,66.6143,0,1 @ F,0,0,1,0,73.508076,0,1 @ F,0,0,1,0,75.793522,0,1 @ F,0,0,1,0,59.179836,0,1 @ F,0,0,1,0,72.967196,0,1 @ F,0,0,1,0,73.225252,0,1 @ F,0,0,1,0,69.575606,0,1 @ F,0,0,1,0,53.232264,0,1 @ F,0,0,1,0,67.683197,0,1 @ F,0,0,1,0,71.333035,0,1 @ F,0,0,1,0,0,0,1 @ F,0,0,1,0,0,0,1 @ F,0,0,1,0,65.532924,0,1 @ F,0,0,1,0,62.006161,0,1 @ F,0,0,1,0,0,0,1 @ F,0,0,1,0,0,0,1 @ F,0,0,1,0,0,0,1 @ F,0,0,1,0,0,0,1"
   unit="px"
   method="auto"
   mode="F"
   radius="0"
   chamfer_steps="1"
   flexible="false"
   use_knot_distance="true"
   apply_no_radius="true"
   apply_with_radius="true"
   only_selected="false"
   hide_knots="false" /><inkscape:path-effect
   effect="fillet_chamfer"
   id="path-effect31156"
   is_visible="true"
   lpeversion="1"
   nodesatellites_param="F,0,0,1,0,0,0,1 @ F,0,0,1,0,51.718129,0,1 @ F,0,0,1,0,67.731889,0,1 @ F,0,0,1,0,0,0,1 @ F,0,0,1,0,0,0,1 @ F,0,0,1,0,63.617035,0,1 @ F,0,0,1,0,64.580101,0,1 @ F,0,0,1,0,66.418618,0,1 @ F,0,0,1,0,53.731811,0,1 @ F,0,0,1,0,71.313475,0,1 @ F,0,0,1,0,72.714422,0,1 @ F,0,0,1,0,63.187238,0,1 @ F,0,0,1,0,65.81378,0,1 @ F,0,0,1,0,65.718269,0,1 @ F,0,0,1,0,59.677222,0,1 @ F,0,0,1,0,0,0,1 @ F,0,0,1,0,0,0,1 @ F,0,0,1,0,62.303764,0,1 @ F,0,0,1,0,63.87969,0,1 @ F,0,0,1,0,0,0,1"
   unit="px"
   method="auto"
   mode="F"
   radius="0"
   chamfer_steps="1"
   flexible="false"
   use_knot_distance="true"
   apply_no_radius="true"
   apply_with_radius="true"
   only_selected="false"
   hide_knots="false" /><inkscape:path-effect
   effect="fillet_chamfer"
   id="path-effect29230"
   is_visible="true"
   lpeversion="1"
   nodesatellites_param="F,0,0,1,0,0,0,1 @ F,0,0,1,0,51.718129,0,1 @ F,0,0,1,0,67.731889,0,1 @ F,0,0,1,0,0,0,1 @ F,0,0,1,0,0,0,1 @ F,0,0,1,0,63.617035,0,1 @ F,0,0,1,0,64.580101,0,1 @ F,0,0,1,0,66.418618,0,1 @ F,0,0,1,0,53.731811,0,1 @ F,0,0,1,0,71.313475,0,1 @ F,0,0,1,0,72.714422,0,1 @ F,0,0,1,0,63.187238,0,1 @ F,0,0,1,0,65.81378,0,1 @ F,0,0,1,0,65.718269,0,1 @ F,0,0,1,0,59.677222,0,1 @ F,0,0,1,0,0,0,1 @ F,0,0,1,0,0,0,1 @ F,0,0,1,0,62.303764,0,1 @ F,0,0,1,0,63.87969,0,1 @ F,0,0,1,0,0.34224638,0,1"
   unit="px"
   method="auto"
   mode="F"
   radius="0"
   chamfer_steps="1"
   flexible="false"
   use_knot_distance="true"
   apply_no_radius="true"
   apply_with_radius="true"
   only_selected="false"
   hide_knots="false" /><inkscape:path-effect
   effect="fillet_chamfer"
   id="path-effect27299"
   is_visible="true"
   lpeversion="1"
   nodesatellites_param="F,0,0,1,0,0,0,1 @ F,0,0,1,0,0,0,1 @ F,0,0,1,0,0,0,1 @ F,0,0,1,0,0,0,1 @ F,0,0,1,0,69.305454,0,1 @ F,0,0,1,0,73.76594,0,1 @ F,0,0,1,0,0,0,1 @ F,0,0,1,0,0,0,1 @ F,0,0,1,0,66.6143,0,1 @ F,0,0,1,0,73.508076,0,1 @ F,0,0,1,0,75.793522,0,1 @ F,0,0,1,0,59.179836,0,1 @ F,0,0,1,0,72.967196,0,1 @ F,0,0,1,0,73.225252,0,1 @ F,0,0,1,0,69.575606,0,1 @ F,0,0,1,0,53.232264,0,1 @ F,0,0,1,0,67.683197,0,1 @ F,0,0,1,0,71.333035,0,1 @ F,0,0,1,0,0,0,1 @ F,0,0,1,0,0,0,1 @ F,0,0,1,0,65.532924,0,1 @ F,0,0,1,0,62.006161,0,1 @ F,0,0,1,0,0,0,1 @ F,0,0,1,0,0,0,1 @ F,0,0,1,0,0,0,1 @ F,0,0,1,0,0,0,1"
   unit="px"
   method="auto"
   mode="F"
   radius="0"
   chamfer_steps="1"
   flexible="false"
   use_knot_distance="true"
   apply_no_radius="true"
   apply_with_radius="true"
   only_selected="false"
   hide_knots="false" /><inkscape:path-effect
   effect="fillet_chamfer"
   id="path-effect220245"
   is_visible="true"
   lpeversion="1"
   nodesatellites_param="F,0,0,1,0,0,0,1 @ F,0,0,1,0,0,0,1 @ F,0,0,1,0,0,0,1 @ F,0,0,1,0,0,0,1 @ F,0,0,1,0,69.305454,0,1 @ F,0,0,1,0,73.76594,0,1 @ F,0,0,1,0,0,0,1 @ F,0,0,1,0,0,0,1 @ F,0,0,1,0,66.6143,0,1 @ F,0,0,1,0,73.508076,0,1 @ F,0,0,1,0,75.793522,0,1 @ F,0,0,1,0,59.179836,0,1 @ F,0,0,1,0,72.967196,0,1 @ F,0,0,1,0,73.225252,0,1 @ F,0,0,1,0,69.575606,0,1 @ F,0,0,1,0,53.232264,0,1 @ F,0,0,1,0,67.683197,0,1 @ F,0,0,1,0,71.333035,0,1 @ F,0,0,1,0,0,0,1 @ F,0,0,1,0,0,0,1 @ F,0,0,1,0,65.532924,0,1 @ F,0,0,1,0,62.006161,0,1 @ F,0,0,1,0,0,0,1 @ F,0,0,1,0,0,0,1 @ F,0,0,1,0,0,0,1 @ F,0,0,1,0,0,0,1"
   unit="px"
   method="auto"
   mode="F"
   radius="0"
   chamfer_steps="1"
   flexible="false"
   use_knot_distance="true"
   apply_no_radius="true"
   apply_with_radius="true"
   only_selected="false"
   hide_knots="false" /><inkscape:path-effect
   effect="fillet_chamfer"
   id="path-effect214705"
   is_visible="false"
   lpeversion="1"
   nodesatellites_param="F,0,0,1,0,0,0,1 @ F,0,0,1,0,51.718129,0,1 @ F,0,0,1,0,67.731889,0,1 @ F,0,0,1,0,0,0,1 @ F,0,0,1,0,0,0,1 @ F,0,0,1,0,63.617035,0,1 @ F,0,0,1,0,64.580101,0,1 @ F,0,0,1,0,66.418618,0,1 @ F,0,0,1,0,53.731811,0,1 @ F,0,0,1,0,71.313475,0,1 @ F,0,0,1,0,72.714422,0,1 @ F,0,0,1,0,63.187238,0,1 @ F,0,0,1,0,65.81378,0,1 @ F,0,0,1,0,65.718269,0,1 @ F,0,0,1,0,59.677222,0,1 @ F,0,0,1,0,0,0,1 @ F,0,0,1,0,0,0,1 @ F,0,0,1,0,62.303764,0,1 @ F,0,0,1,0,63.87969,0,1 @ F,0,0,1,0,0,0,1"
   unit="px"
   method="auto"
   mode="F"
   radius="0"
   chamfer_steps="1"
   flexible="false"
   use_knot_distance="true"
   apply_no_radius="true"
   apply_with_radius="true"
   only_selected="false"
   hide_knots="false" /><inkscape:path-effect
   effect="fillet_chamfer"
   id="path-effect203568"
   is_visible="true"
   lpeversion="1"
   nodesatellites_param="F,0,0,1,0,0,0,1 @ F,0,0,1,0,51.718129,0,1 @ F,0,0,1,0,67.731889,0,1 @ F,0,0,1,0,0,0,1 @ F,0,0,1,0,0,0,1 @ F,0,0,1,0,63.617035,0,1 @ F,0,0,1,0,64.580101,0,1 @ F,0,0,1,0,66.418618,0,1 @ F,0,0,1,0,53.731811,0,1 @ F,0,0,1,0,71.313475,0,1 @ F,0,0,1,0,72.714422,0,1 @ F,0,0,1,0,63.187238,0,1 @ F,0,0,1,0,65.81378,0,1 @ F,0,0,1,0,65.718269,0,1 @ F,0,0,1,0,59.677222,0,1 @ F,0,0,1,0,0,0,1 @ F,0,0,1,0,0,0,1 @ F,0,0,1,0,62.303764,0,1 @ F,0,0,1,0,63.87969,0,1 @ F,0,0,1,0,0.34224638,0,1"
   unit="px"
   method="auto"
   mode="F"
   radius="0"
   chamfer_steps="1"
   flexible="false"
   use_knot_distance="true"
   apply_no_radius="true"
   apply_with_radius="true"
   only_selected="false"
   hide_knots="false" /><inkscape:path-effect
   effect="fillet_chamfer"
   id="path-effect203334"
   is_visible="true"
   lpeversion="1"
   nodesatellites_param="F,0,0,1,0,0,0,1 @ F,0,0,1,0,51.718129,0,1 @ F,0,0,1,0,67.731889,0,1 @ F,0,0,1,0,0,0,1 @ F,0,0,1,0,0,0,1 @ F,0,0,1,0,63.617035,0,1 @ F,0,0,1,0,64.580101,0,1 @ F,0,0,1,0,66.418618,0,1 @ F,0,0,1,0,53.731811,0,1 @ F,0,0,1,0,71.313475,0,1 @ F,0,0,1,0,72.714422,0,1 @ F,0,0,1,0,63.187238,0,1 @ F,0,0,1,0,65.81378,0,1 @ F,0,0,1,0,65.718269,0,1 @ F,0,0,1,0,59.677222,0,1 @ F,0,0,1,0,0,0,1 @ F,0,0,1,0,0,0,1 @ F,0,0,1,0,62.303764,0,1 @ F,0,0,1,0,63.87969,0,1 @ F,0,0,1,0,0,0,1"
   unit="px"
   method="auto"
   mode="F"
   radius="0"
   chamfer_steps="1"
   flexible="false"
   use_knot_distance="true"
   apply_no_radius="true"
   apply_with_radius="true"
   only_selected="false"
   hide_knots="false" /><rect
   x="394.99557"
   y="235.30556"
   width="148.94759"
   height="109.43574"
   id="rect77966" /><rect
   x="486.77853"
   y="154.603"
   width="298.68204"
   height="405.65573"
   id="rect33927" /><rect
   x="-340.53278"
   y="137.19406"
   width="673.58405"
   height="312.11969"
   id="rect33463" /><inkscape:perspective
   sodipodi:type="inkscape:persp3d"
   inkscape:vp_x="0 : 8960 : 1"
   inkscape:vp_y="0 : 1000 : 0"
   inkscape:vp_z="5759.9995 : 8960 : 1"
   inkscape:persp3d-origin="2879.9998 : 7680 : 1"
   id="perspective7698" /><rect
   x="-294.07355"
   y="609.38196"
   width="101.2617"
   height="30.048023"
   id="rect89096" /><rect
   x="673.68402"
   y="727.14307"
   width="70.873802"
   height="71.972488"
   id="rect78220" /><rect
   x="336.69916"
   y="523.68329"
   width="207.88464"
   height="202.16441"
   id="rect16307" /><rect
   x="296.35019"
   y="759.91296"
   width="125.09589"
   height="114.12948"
   id="rect14067" /><rect
   x="286.18842"
   y="793.36145"
   width="108.59091"
   height="129.15038"
   id="rect14055" /><rect
   x="205.23338"
   y="772.76605"
   width="72.820282"
   height="102.27335"
   id="rect13935" /><rect
   x="378.1131"
   y="535.71301"
   width="180.07759"
   height="171.85767"
   id="rect9934" /><rect
   x="32.598747"
   y="72.047264"
   width="852.88806"
   height="47.951153"
   id="rect1601" /><marker
   style="overflow:visible"
   id="Arrow1Lend"
   refX="0"
   refY="0"
   orient="auto"><path
     transform="matrix(-0.8,0,0,-0.8,-10,0)"
     style="fill-rule:evenodd;stroke:#000000;stroke-width:1pt;marker-start:none"
     d="M 0,0 5,-5 -12.5,0 5,5 Z"
     id="path9186" /></marker><rect
   x="673.68402"
   y="727.14307"
   width="70.873802"
   height="71.972488"
   id="rect78601" /><rect
   x="673.68402"
   y="727.14307"
   width="70.873802"
   height="71.972488"
   id="rect80747" /><rect
   x="673.68402"
   y="727.14307"
   width="70.873802"
   height="71.972488"
   id="rect89086" /><rect
   x="-294.07355"
   y="609.38196"
   width="101.2617"
   height="30.048023"
   id="rect89470" /><rect
   x="-294.07355"
   y="609.38196"
   width="101.2617"
   height="30.048023"
   id="rect89482" /><rect
   x="-294.07355"
   y="609.38196"
   width="101.2617"
   height="30.048023"
   id="rect89494" /><rect
   x="-294.07355"
   y="609.38196"
   width="101.2617"
   height="30.048023"
   id="rect89506" /><rect
   x="-294.07355"
   y="609.38196"
   width="101.2617"
   height="30.048023"
   id="rect89518" /><rect
   x="-294.07355"
   y="609.38196"
   width="101.2617"
   height="30.048023"
   id="rect89530" /><rect
   x="-294.07355"
   y="609.38196"
   width="101.2617"
   height="30.048023"
   id="rect89096-0" /><rect
   x="-294.07355"
   y="609.38196"
   width="101.2617"
   height="30.048023"
   id="rect90283" /><rect
   x="-294.07355"
   y="609.38196"
   width="101.2617"
   height="30.048023"
   id="rect90299" /><rect
   x="-294.07355"
   y="609.38196"
   width="101.2617"
   height="30.048023"
   id="rect90301" /><rect
   x="-294.07355"
   y="609.38196"
   width="101.2617"
   height="30.048023"
   id="rect90317" /><rect
   x="-294.07355"
   y="609.38196"
   width="101.2617"
   height="30.048023"
   id="rect90319" /><rect
   x="-294.07355"
   y="609.38196"
   width="101.2617"
   height="30.048023"
   id="rect90335" /><rect
   x="-294.07355"
   y="609.38196"
   width="101.2617"
   height="30.048023"
   id="rect90337" /><rect
   x="-294.07355"
   y="609.38196"
   width="101.2617"
   height="30.048023"
   id="rect90353" /><rect
   x="-294.07355"
   y="609.38196"
   width="101.2617"
   height="30.048023"
   id="rect90355" /><rect
   x="-294.07355"
   y="609.38196"
   width="101.2617"
   height="30.048023"
   id="rect90371" /><rect
   x="-294.07355"
   y="609.38196"
   width="101.2617"
   height="30.048023"
   id="rect90373" /><rect
   x="-294.07355"
   y="609.38196"
   width="101.2617"
   height="30.048023"
   id="rect90389" /><rect
   x="-294.07355"
   y="609.38196"
   width="101.2617"
   height="30.048023"
   id="rect90391" /><rect
   x="-294.07355"
   y="609.38196"
   width="101.2617"
   height="30.048023"
   id="rect90407" /><rect
   x="-294.07355"
   y="609.38196"
   width="101.2617"
   height="30.048023"
   id="rect90409" /><rect
   x="-294.07355"
   y="609.38196"
   width="101.2617"
   height="30.048023"
   id="rect90441" /><rect
   x="-294.07355"
   y="609.38196"
   width="101.2617"
   height="30.048023"
   id="rect90443" /><rect
   x="-294.07355"
   y="609.38196"
   width="101.2617"
   height="30.048023"
   id="rect90445" /><rect
   x="-294.07355"
   y="609.38196"
   width="101.2617"
   height="30.048023"
   id="rect90447" /><rect
   x="205.23338"
   y="772.76605"
   width="72.820282"
   height="102.27335"
   id="rect51454" /><rect
   x="-294.07355"
   y="609.38196"
   width="101.2617"
   height="30.048023"
   id="rect52959" /><rect
   x="-294.07355"
   y="609.38196"
   width="101.2617"
   height="30.048023"
   id="rect53029" /><rect
   x="-294.07355"
   y="609.38196"
   width="101.2617"
   height="30.048023"
   id="rect53031" /><rect
   x="-294.07355"
   y="609.38196"
   width="101.2617"
   height="30.048023"
   id="rect53033" /><rect
   x="-294.07355"
   y="609.38196"
   width="101.2617"
   height="30.048023"
   id="rect53035" /><rect
   x="-294.07355"
   y="609.38196"
   width="101.2617"
   height="30.048023"
   id="rect53106" /><rect
   x="-294.07355"
   y="609.38196"
   width="101.2617"
   height="30.048023"
   id="rect53108" /><rect
   x="-294.07355"
   y="609.38196"
   width="101.2617"
   height="30.048023"
   id="rect53110" /><rect
   x="-294.07355"
   y="609.38196"
   width="101.2617"
   height="30.048023"
   id="rect53112" /><rect
   x="-294.07355"
   y="609.38196"
   width="101.2617"
   height="30.048023"
   id="rect53183" /><rect
   x="-294.07355"
   y="609.38196"
   width="101.2617"
   height="30.048023"
   id="rect53185" /><rect
   x="-294.07355"
   y="609.38196"
   width="101.2617"
   height="30.048023"
   id="rect53187" /><rect
   x="-294.07355"
   y="609.38196"
   width="101.2617"
   height="30.048023"
   id="rect53189" /><rect
   x="-294.07355"
   y="609.38196"
   width="101.2617"
   height="30.048023"
   id="rect53260" /><rect
   x="-294.07355"
   y="609.38196"
   width="101.2617"
   height="30.048023"
   id="rect53262" /><rect
   x="-294.07355"
   y="609.38196"
   width="101.2617"
   height="30.048023"
   id="rect53264" /><rect
   x="-294.07355"
   y="609.38196"
   width="101.2617"
   height="30.048023"
   id="rect53266" /><rect
   x="-294.07355"
   y="609.38196"
   width="101.2617"
   height="30.048023"
   id="rect54410" /><rect
   x="-294.07355"
   y="609.38196"
   width="101.2617"
   height="30.048023"
   id="rect55023" /><rect
   x="-294.07355"
   y="609.38196"
   width="101.2617"
   height="30.048023"
   id="rect60273" /><rect
   x="-294.07355"
   y="609.38196"
   width="101.2617"
   height="30.048023"
   id="rect60275" /><rect
   x="-294.07355"
   y="609.38196"
   width="101.2617"
   height="30.048023"
   id="rect60277" /><rect
   x="-294.07355"
   y="609.38196"
   width="101.2617"
   height="30.048023"
   id="rect60279" /><rect
   x="-294.07355"
   y="609.38196"
   width="101.2617"
   height="30.048023"
   id="rect60281" /><rect
   x="-294.07355"
   y="609.38196"
   width="101.2617"
   height="30.048023"
   id="rect60283" /><rect
   x="205.23338"
   y="772.76605"
   width="72.820282"
   height="102.27335"
   id="rect60285" /><rect
   x="-294.07355"
   y="609.38196"
   width="101.2617"
   height="30.048023"
   id="rect71642" /><rect
   x="-294.07355"
   y="609.38196"
   width="101.2617"
   height="30.048023"
   id="rect71644" /><rect
   x="-294.07355"
   y="609.38196"
   width="101.2617"
   height="30.048023"
   id="rect71646" /><rect
   x="-294.07355"
   y="609.38196"
   width="101.2617"
   height="30.048023"
   id="rect71648" /><rect
   x="-294.07355"
   y="609.38196"
   width="101.2617"
   height="30.048023"
   id="rect71650" /><rect
   x="-294.07355"
   y="609.38196"
   width="141.9213"
   height="89.765976"
   id="rect77811" /><rect
   x="-294.07355"
   y="609.38196"
   width="101.2617"
   height="30.048023"
   id="rect131568" /><rect
   x="-294.07355"
   y="609.38196"
   width="101.2617"
   height="30.048023"
   id="rect131889" /><rect
   x="-294.07355"
   y="609.38196"
   width="101.2617"
   height="30.048023"
   id="rect132353" /><rect
   x="-294.07355"
   y="609.38196"
   width="101.2617"
   height="30.048023"
   id="rect132355" /><rect
   x="-294.07355"
   y="609.38196"
   width="101.2617"
   height="30.048023"
   id="rect132357" /><rect
   x="-294.07355"
   y="609.38196"
   width="101.2617"
   height="30.048023"
   id="rect132359" /><rect
   x="205.23338"
   y="772.76605"
   width="72.820282"
   height="102.27335"
   id="rect133210" /><rect
   x="-294.07355"
   y="609.38196"
   width="101.2617"
   height="30.048023"
   id="rect134544" /><rect
   x="-294.07355"
   y="609.38196"
   width="101.2617"
   height="30.048023"
   id="rect134590" /><rect
   x="-294.07355"
   y="609.38196"
   width="101.2617"
   height="30.048023"
   id="rect134592" /><rect
   x="-294.07355"
   y="609.38196"
   width="101.2617"
   height="30.048023"
   id="rect134594" /><rect
   x="-294.07355"
   y="609.38196"
   width="101.2617"
   height="30.048023"
   id="rect134596" /><rect
   x="-294.07355"
   y="609.38196"
   width="101.2617"
   height="30.048023"
   id="rect135266" /><rect
   x="-294.07355"
   y="609.38196"
   width="101.2617"
   height="30.048023"
   id="rect135312" /><rect
   x="-294.07355"
   y="609.38196"
   width="101.2617"
   height="30.048023"
   id="rect135314" /><rect
   x="-294.07355"
   y="609.38196"
   width="101.2617"
   height="30.048023"
   id="rect135316" /><rect
   x="-294.07355"
   y="609.38196"
   width="101.2617"
   height="30.048023"
   id="rect135318" /><rect
   x="-294.07355"
   y="609.38196"
   width="101.2617"
   height="30.048023"
   id="rect136414" /><rect
   x="-294.07355"
   y="609.38196"
   width="101.2617"
   height="30.048023"
   id="rect137952" /><rect
   x="486.77853"
   y="154.603"
   width="298.68204"
   height="405.65573"
   id="rect137954" /><rect
   x="-294.07355"
   y="609.38196"
   width="101.2617"
   height="30.048023"
   id="rect138000" /><rect
   x="-294.07355"
   y="609.38196"
   width="101.2617"
   height="30.048023"
   id="rect138002" /><rect
   x="-294.07355"
   y="609.38196"
   width="101.2617"
   height="30.048023"
   id="rect138004" /><rect
   x="-294.07355"
   y="609.38196"
   width="101.2617"
   height="30.048023"
   id="rect138006" /><pattern
   id="WMFhbasepattern"
   patternUnits="userSpaceOnUse"
   width="6"
   height="6"
   x="0"
   y="0" /><inkscape:path-effect
   effect="spiro"
   id="path-effect3342"
   is_visible="true"
   lpeversion="0" /><rect
   x="-294.07355"
   y="609.38196"
   width="101.2617"
   height="30.048023"
   id="rect5638" /><rect
   x="-294.07355"
   y="609.38196"
   width="101.2617"
   height="30.048023"
   id="rect5677" /><rect
   x="-294.07355"
   y="609.38196"
   width="101.2617"
   height="30.048023"
   id="rect6142" /><rect
   x="-294.07355"
   y="609.38196"
   width="101.2617"
   height="30.048023"
   id="rect6144" /><rect
   x="-294.07355"
   y="609.38196"
   width="101.2617"
   height="30.048023"
   id="rect6146" /><rect
   x="-294.07355"
   y="609.38196"
   width="101.2617"
   height="30.048023"
   id="rect6148" /><rect
   x="-294.07355"
   y="609.38196"
   width="101.2617"
   height="30.048023"
   id="rect7124" /><rect
   x="486.77853"
   y="154.603"
   width="298.68204"
   height="405.65573"
   id="rect7126" /><rect
   x="-294.07355"
   y="609.38196"
   width="101.2617"
   height="30.048023"
   id="rect8512" /><rect
   x="-294.07355"
   y="609.38196"
   width="101.2617"
   height="30.048023"
   id="rect10333" /><rect
   x="-294.07355"
   y="609.38196"
   width="101.2617"
   height="30.048023"
   id="rect10335" /><rect
   x="-294.07355"
   y="609.38196"
   width="101.2617"
   height="30.048023"
   id="rect10337" /><rect
   x="-294.07355"
   y="609.38196"
   width="101.2617"
   height="30.048023"
   id="rect10339" /><rect
   x="-294.07355"
   y="609.38196"
   width="101.2617"
   height="30.048023"
   id="rect10452" /><rect
   x="-294.07355"
   y="609.38196"
   width="101.2617"
   height="30.048023"
   id="rect10454" /><rect
   x="-294.07355"
   y="609.38196"
   width="101.2617"
   height="30.048023"
   id="rect10456" /><rect
   x="-294.07355"
   y="609.38196"
   width="101.2617"
   height="30.048023"
   id="rect10458" /><rect
   x="-294.07355"
   y="609.38196"
   width="101.2617"
   height="30.048023"
   id="rect10969" /><rect
   x="-294.07355"
   y="609.38196"
   width="101.2617"
   height="30.048023"
   id="rect11584" /><rect
   x="-294.07355"
   y="609.38196"
   width="101.2617"
   height="30.048023"
   id="rect11905" /><rect
   x="-294.07355"
   y="609.38196"
   width="101.2617"
   height="30.048023"
   id="rect12372" /><rect
   x="-294.07355"
   y="609.38196"
   width="101.2617"
   height="30.048023"
   id="rect12374" /><rect
   x="-294.07355"
   y="609.38196"
   width="101.2617"
   height="30.048023"
   id="rect12376" /><rect
   x="-294.07355"
   y="609.38196"
   width="101.2617"
   height="30.048023"
   id="rect12378" /><rect
   x="-294.07355"
   y="609.38196"
   width="101.2617"
   height="30.048023"
   id="rect12986" /><rect
   x="205.23338"
   y="772.76605"
   width="72.820282"
   height="102.27335"
   id="rect19411" />&#10;	&#10;	&#10;	&#10;	&#10;	&#10;	&#10;	&#10;	&#10;	&#10;	&#10;	&#10;	&#10;	&#10;	&#10;	&#10;	&#10;	&#10;	&#10;	&#10;	&#10;	&#10;	&#10;	&#10;	&#10;	&#10;	&#10;	&#10;&#10;	&#10;	&#10;	&#10;	&#10;	&#10;	&#10;	&#10;	&#10;	&#10;	&#10;	&#10;	&#10;	&#10;	&#10;	&#10;	&#10;	&#10;	&#10;	&#10;	&#10;	&#10;	&#10;	&#10;	&#10;	&#10;	&#10;	&#10;&#10;	&#10;	&#10;	&#10;	&#10;	&#10;	&#10;	&#10;	&#10;	&#10;	&#10;	&#10;	&#10;	&#10;	&#10;	&#10;	&#10;	&#10;	&#10;	&#10;	&#10;	&#10;	&#10;	&#10;	&#10;	&#10;	&#10;	&#10;&#10;	&#10;	&#10;	&#10;	&#10;	&#10;	&#10;	&#10;	&#10;	&#10;	&#10;	&#10;	&#10;	&#10;	&#10;	&#10;	&#10;	&#10;	&#10;	&#10;	&#10;	&#10;	&#10;	&#10;	&#10;	&#10;	&#10;	&#10;<rect
   x="-294.07355"
   y="609.38196"
   width="101.2617"
   height="30.048023"
   id="rect35040" /><rect
   x="-294.07355"
   y="609.38196"
   width="101.2617"
   height="30.048023"
   id="rect35042" /><rect
   x="-294.07355"
   y="609.38196"
   width="101.2617"
   height="30.048023"
   id="rect35044" /><rect
   x="-294.07355"
   y="609.38196"
   width="101.2617"
   height="30.048023"
   id="rect35046" /><rect
   x="-294.07355"
   y="609.38196"
   width="101.2617"
   height="30.048023"
   id="rect35048" /><rect
   x="-294.07355"
   y="609.38196"
   width="101.2617"
   height="30.048023"
   id="rect35050" /><rect
   x="205.23338"
   y="772.76605"
   width="72.820282"
   height="102.27335"
   id="rect35052" /><rect
   x="-294.07355"
   y="609.38196"
   width="101.2617"
   height="30.048023"
   id="rect22528" /><rect
   x="-294.07355"
   y="609.38196"
   width="101.2617"
   height="30.048023"
   id="rect22530" /><rect
   x="-294.07355"
   y="609.38196"
   width="101.2617"
   height="30.048023"
   id="rect22532" /><rect
   x="-294.07355"
   y="609.38196"
   width="101.2617"
   height="30.048023"
   id="rect22534" /><rect
   x="-294.07355"
   y="609.38196"
   width="101.2617"
   height="30.048023"
   id="rect22536" /><rect
   x="-294.07355"
   y="609.38196"
   width="101.2617"
   height="30.048023"
   id="rect46558" /><rect
   x="-294.07355"
   y="609.38196"
   width="101.2617"
   height="30.048023"
   id="rect46560" /><rect
   x="-294.07355"
   y="609.38196"
   width="101.2617"
   height="30.048023"
   id="rect46562" /><rect
   x="-294.07355"
   y="609.38196"
   width="101.2617"
   height="30.048023"
   id="rect46564" /><rect
   x="-294.07355"
   y="609.38196"
   width="101.2617"
   height="30.048023"
   id="rect46566" /><rect
   x="-294.07355"
   y="609.38196"
   width="101.2617"
   height="30.048023"
   id="rect46568" /><rect
   x="205.23338"
   y="772.76605"
   width="72.820282"
   height="102.27335"
   id="rect46570" /><rect
   x="-294.07355"
   y="609.38196"
   width="101.2617"
   height="30.048023"
   id="rect47828" /><rect
   x="-294.07355"
   y="609.38196"
   width="101.2617"
   height="30.048023"
   id="rect47830" /><rect
   x="-294.07355"
   y="609.38196"
   width="101.2617"
   height="30.048023"
   id="rect47832" /><rect
   x="-294.07355"
   y="609.38196"
   width="101.2617"
   height="30.048023"
   id="rect47834" /><rect
   x="-294.07355"
   y="609.38196"
   width="101.2617"
   height="30.048023"
   id="rect47836" /><rect
   x="-294.07355"
   y="609.38196"
   width="101.2617"
   height="30.048023"
   id="rect48798" /><rect
   x="-294.07355"
   y="609.38196"
   width="101.2617"
   height="30.048023"
   id="rect48800" /><rect
   x="-294.07355"
   y="609.38196"
   width="101.2617"
   height="30.048023"
   id="rect48802" /><rect
   x="-294.07355"
   y="609.38196"
   width="101.2617"
   height="30.048023"
   id="rect48804" /><rect
   x="-294.07355"
   y="609.38196"
   width="101.2617"
   height="30.048023"
   id="rect48806" /><rect
   x="-294.07355"
   y="609.38196"
   width="101.2617"
   height="30.048023"
   id="rect49856" /><rect
   x="-294.07355"
   y="609.38196"
   width="101.2617"
   height="30.048023"
   id="rect49858" /><rect
   x="-294.07355"
   y="609.38196"
   width="101.2617"
   height="30.048023"
   id="rect49860" /><rect
   x="-294.07355"
   y="609.38196"
   width="101.2617"
   height="30.048023"
   id="rect49862" /><rect
   x="-294.07355"
   y="609.38196"
   width="101.2617"
   height="30.048023"
   id="rect49864" /><rect
   x="486.77853"
   y="154.603"
   width="298.68204"
   height="405.65573"
   id="rect49866" /><rect
   x="-294.07355"
   y="609.38196"
   width="101.2617"
   height="30.048023"
   id="rect49906" /><rect
   x="-294.07355"
   y="609.38196"
   width="101.2617"
   height="30.048023"
   id="rect49908" /><rect
   x="-294.07355"
   y="609.38196"
   width="101.2617"
   height="30.048023"
   id="rect15741" /><rect
   x="-294.07355"
   y="609.38196"
   width="101.2617"
   height="30.048023"
   id="rect73835" /><rect
   x="-294.07355"
   y="609.38196"
   width="101.2617"
   height="30.048023"
   id="rect79320" /><rect
   x="-294.07355"
   y="609.38196"
   width="101.2617"
   height="30.048023"
   id="rect79338" /><rect
   x="-294.07355"
   y="609.38196"
   width="101.2617"
   height="30.048023"
   id="rect24252" /><rect
   x="-294.07355"
   y="609.38196"
   width="101.2617"
   height="30.048023"
   id="rect24592" /><rect
   x="-294.07355"
   y="609.38196"
   width="101.2617"
   height="30.048023"
   id="rect24594" /><rect
   x="-294.07355"
   y="609.38196"
   width="101.2617"
   height="30.048023"
   id="rect24596" /><rect
   x="-294.07355"
   y="609.38196"
   width="101.2617"
   height="30.048023"
   id="rect24679" /><rect
   x="-294.07355"
   y="609.38196"
   width="101.2617"
   height="30.048023"
   id="rect25099" /><rect
   x="-294.07355"
   y="609.38196"
   width="101.2617"
   height="30.048023"
   id="rect25101" /><rect
   x="-294.07355"
   y="609.38196"
   width="101.2617"
   height="30.048023"
   id="rect25103" /><rect
   x="-294.07355"
   y="609.38196"
   width="101.2617"
   height="30.048023"
   id="rect25105" /><rect
   x="205.23338"
   y="772.76605"
   width="72.820282"
   height="102.27335"
   id="rect26170" /><rect
   x="-294.07355"
   y="609.38196"
   width="101.2617"
   height="30.048023"
   id="rect26732" /><rect
   x="-294.07355"
   y="609.38196"
   width="101.2617"
   height="30.048023"
   id="rect26734" /><rect
   x="-294.07355"
   y="609.38196"
   width="101.2617"
   height="30.048023"
   id="rect26736" /><rect
   x="-294.07355"
   y="609.38196"
   width="101.2617"
   height="30.048023"
   id="rect27147" /><rect
   x="-294.07355"
   y="609.38196"
   width="101.2617"
   height="30.048023"
   id="rect27149" /><rect
   x="-294.07355"
   y="609.38196"
   width="101.2617"
   height="30.048023"
   id="rect27151" /><rect
   x="-294.07355"
   y="609.38196"
   width="101.2617"
   height="30.048023"
   id="rect27153" /><rect
   x="-294.07355"
   y="609.38196"
   width="101.2617"
   height="30.048023"
   id="rect27295" /><rect
   x="-294.07355"
   y="609.38196"
   width="101.2617"
   height="30.048023"
   id="rect27400" /><rect
   x="-294.07355"
   y="609.38196"
   width="101.2617"
   height="30.048023"
   id="rect27402" /><rect
   x="-294.07355"
   y="609.38196"
   width="101.2617"
   height="30.048023"
   id="rect27404" /><rect
   x="-294.07355"
   y="609.38196"
   width="101.2617"
   height="30.048023"
   id="rect28274" /><rect
   x="-294.07355"
   y="609.38196"
   width="101.2617"
   height="30.048023"
   id="rect29088" /><rect
   x="-294.07355"
   y="609.38196"
   width="101.2617"
   height="30.048023"
   id="rect29090" /><rect
   x="-294.07355"
   y="609.38196"
   width="101.2617"
   height="30.048023"
   id="rect29092" /><rect
   x="-294.07355"
   y="609.38196"
   width="101.2617"
   height="30.048023"
   id="rect29094" /><rect
   x="-294.07355"
   y="609.38196"
   width="101.2617"
   height="30.048023"
   id="rect29792" /><rect
   x="-294.07355"
   y="609.38196"
   width="101.2617"
   height="30.048023"
   id="rect29794" /><rect
   x="-294.07355"
   y="609.38196"
   width="101.2617"
   height="30.048023"
   id="rect29796" /><rect
   x="-294.07355"
   y="609.38196"
   width="101.2617"
   height="30.048023"
   id="rect29798" /><rect
   x="-294.07355"
   y="609.38196"
   width="101.2617"
   height="30.048023"
   id="rect31150" /><rect
   x="486.77853"
   y="154.603"
   width="298.68204"
   height="405.65573"
   id="rect31152" /><rect
   x="-294.07355"
   y="609.38196"
   width="101.2617"
   height="30.048023"
   id="rect31832" /><rect
   x="-294.07355"
   y="609.38196"
   width="101.2617"
   height="30.048023"
   id="rect31915" /><rect
   x="-294.07355"
   y="609.38196"
   width="101.2617"
   height="30.048023"
   id="rect31917" /><rect
   x="-294.07355"
   y="609.38196"
   width="101.2617"
   height="30.048023"
   id="rect32021" /><rect
   x="-294.07355"
   y="609.38196"
   width="101.2617"
   height="30.048023"
   id="rect32023" /><rect
   x="-294.07355"
   y="609.38196"
   width="101.2617"
   height="30.048023"
   id="rect71295" /><rect
   x="-294.07355"
   y="609.38196"
   width="101.2617"
   height="30.048023"
   id="rect114616" /><rect
   x="-294.07355"
   y="609.38196"
   width="101.2617"
   height="30.048023"
   id="rect114618" /><rect
   x="-294.07355"
   y="609.38196"
   width="101.2617"
   height="30.048023"
   id="rect114620" /><rect
   x="-294.07355"
   y="609.38196"
   width="101.2617"
   height="30.048023"
   id="rect114622" /><rect
   x="-294.07355"
   y="609.38196"
   width="101.2617"
   height="30.048023"
   id="rect114624" /><rect
   x="-294.07355"
   y="609.38196"
   width="101.2617"
   height="30.048023"
   id="rect114626" /><rect
   x="-294.07355"
   y="609.38196"
   width="101.2617"
   height="30.048023"
   id="rect114628" /><rect
   x="-294.07355"
   y="609.38196"
   width="101.2617"
   height="30.048023"
   id="rect114630" /><rect
   x="-294.07355"
   y="609.38196"
   width="101.2617"
   height="30.048023"
   id="rect114632" /><rect
   x="205.23338"
   y="772.76605"
   width="72.820282"
   height="102.27335"
   id="rect114634" /><rect
   x="-294.07355"
   y="609.38196"
   width="101.2617"
   height="30.048023"
   id="rect116916" /><rect
   x="-294.07355"
   y="609.38196"
   width="101.2617"
   height="30.048023"
   id="rect116918" /><rect
   x="-294.07355"
   y="609.38196"
   width="101.2617"
   height="30.048023"
   id="rect116920" /><rect
   x="-294.07355"
   y="609.38196"
   width="101.2617"
   height="30.048023"
   id="rect116922" /><rect
   x="-294.07355"
   y="609.38196"
   width="101.2617"
   height="30.048023"
   id="rect116924" /><rect
   x="-294.07355"
   y="609.38196"
   width="101.2617"
   height="30.048023"
   id="rect116926" /><rect
   x="-294.07355"
   y="609.38196"
   width="101.2617"
   height="30.048023"
   id="rect116928" /><rect
   x="-294.07355"
   y="609.38196"
   width="101.2617"
   height="30.048023"
   id="rect116930" /><rect
   x="-294.07355"
   y="609.38196"
   width="101.2617"
   height="30.048023"
   id="rect118321" /><rect
   x="-294.07355"
   y="609.38196"
   width="101.2617"
   height="30.048023"
   id="rect118323" /><rect
   x="-294.07355"
   y="609.38196"
   width="101.2617"
   height="30.048023"
   id="rect118325" /><rect
   x="-294.07355"
   y="609.38196"
   width="101.2617"
   height="30.048023"
   id="rect118327" /><rect
   x="-294.07355"
   y="609.38196"
   width="101.2617"
   height="30.048023"
   id="rect118329" /><rect
   x="-294.07355"
   y="609.38196"
   width="101.2617"
   height="30.048023"
   id="rect118331" /><rect
   x="-294.07355"
   y="609.38196"
   width="101.2617"
   height="30.048023"
   id="rect118333" /><rect
   x="-294.07355"
   y="609.38196"
   width="101.2617"
   height="30.048023"
   id="rect118335" /><rect
   x="-294.07355"
   y="609.38196"
   width="101.2617"
   height="30.048023"
   id="rect121228" /><rect
   x="-294.07355"
   y="609.38196"
   width="101.2617"
   height="30.048023"
   id="rect121230" /><rect
   x="-294.07355"
   y="609.38196"
   width="101.2617"
   height="30.048023"
   id="rect121232" /><rect
   x="-294.07355"
   y="609.38196"
   width="101.2617"
   height="30.048023"
   id="rect121234" /><rect
   x="-294.07355"
   y="609.38196"
   width="101.2617"
   height="30.048023"
   id="rect121236" /><rect
   x="486.77853"
   y="154.603"
   width="298.68204"
   height="405.65573"
   id="rect121238" /><rect
   x="-294.07355"
   y="609.38196"
   width="101.2617"
   height="30.048023"
   id="rect122830" /><rect
   x="-294.07355"
   y="609.38196"
   width="101.2617"
   height="30.048023"
   id="rect122832" /><rect
   x="-294.07355"
   y="609.38196"
   width="101.2617"
   height="30.048023"
   id="rect122834" /><rect
   x="-294.07355"
   y="609.38196"
   width="101.2617"
   height="30.048023"
   id="rect122984" /><rect
   x="-294.07355"
   y="609.38196"
   width="101.2617"
   height="30.048023"
   id="rect122986" /><rect
   x="-294.07355"
   y="609.38196"
   width="101.2617"
   height="30.048023"
   id="rect122988" /><rect
   x="-294.07355"
   y="609.38196"
   width="101.2617"
   height="30.048023"
   id="rect132628" /><rect
   x="-294.07355"
   y="609.38196"
   width="101.2617"
   height="30.048023"
   id="rect132630" /><rect
   x="-294.07355"
   y="609.38196"
   width="101.2617"
   height="30.048023"
   id="rect132632" /><rect
   x="-294.07355"
   y="609.38196"
   width="101.2617"
   height="30.048023"
   id="rect132634" /><rect
   x="-294.07355"
   y="609.38196"
   width="101.2617"
   height="30.048023"
   id="rect132636" /><rect
   x="-294.07355"
   y="609.38196"
   width="101.2617"
   height="30.048023"
   id="rect132638" /><rect
   x="-294.07355"
   y="609.38196"
   width="101.2617"
   height="30.048023"
   id="rect132640" /><rect
   x="-294.07355"
   y="609.38196"
   width="101.2617"
   height="30.048023"
   id="rect132642" /><rect
   x="-294.07355"
   y="609.38196"
   width="101.2617"
   height="30.048023"
   id="rect132644" /><rect
   x="205.23338"
   y="772.76605"
   width="72.820282"
   height="102.27335"
   id="rect132646" /><rect
   x="-294.07355"
   y="609.38196"
   width="101.2617"
   height="30.048023"
   id="rect134683" /><rect
   x="-294.07355"
   y="609.38196"
   width="101.2617"
   height="30.048023"
   id="rect134685" /><rect
   x="-294.07355"
   y="609.38196"
   width="101.2617"
   height="30.048023"
   id="rect134687" /><rect
   x="-294.07355"
   y="609.38196"
   width="101.2617"
   height="30.048023"
   id="rect134689" /><rect
   x="-294.07355"
   y="609.38196"
   width="101.2617"
   height="30.048023"
   id="rect134691" /><rect
   x="-294.07355"
   y="609.38196"
   width="101.2617"
   height="30.048023"
   id="rect134693" /><rect
   x="-294.07355"
   y="609.38196"
   width="101.2617"
   height="30.048023"
   id="rect134695" /><rect
   x="-294.07355"
   y="609.38196"
   width="101.2617"
   height="30.048023"
   id="rect134697" /></defs><style
     id="style6783"
     type="text/css">&#10;.brush0 { fill: rgb(255,255,255); }&#10;.pen0 { stroke: rgb(0,0,0); stroke-width: 1; stroke-linejoin: round; }&#10;.pen1 { stroke: none; }&#10;.brush1 { fill: none; }&#10;.pen2 { stroke: rgb(26,26,26); stroke-width: 7; stroke-linejoin: round; }&#10;.font0 { font-weight: bold; font-size: 74px; font-family: Arial, sans-serif; }&#10;.font1 { font-weight: bold; font-size: 16px; font-family: System, sans-serif; }&#10;.pen3 { stroke: rgb(0,0,0); stroke-width: 3; stroke-linejoin: round; }&#10;.brush2 { fill: rgb(0,0,0); }&#10;.brush3 { fill: rgb(230,230,230); }&#10;.font2 { font-weight: bold; font-size: 59px; font-family: Arial, sans-serif; }&#10;.font3 { font-weight: bold; font-size: 59px; font-family: Arial, sans-serif; }&#10;</style><g
     inkscape:groupmode="layer"
     id="layer2"
     inkscape:label="22"><g
       inkscape:groupmode="layer"
       id="g392993"
       inkscape:label="Middle 2 - combined laser"
       style="display:inline;fill-rule:evenodd;stroke-linecap:round"
       transform="rotate(90,960.00005,6719.9997)" /><path
       style="display:inline;fill:none;fill-opacity:1;fill-rule:evenodd;stroke:#ff00ff;stroke-width:0.64;stroke-linecap:butt;stroke-linejoin:miter;stroke-miterlimit:4;stroke-dasharray:none;stroke-dashoffset:0;stroke-opacity:1"
       d="M 2.4999999e-4,6399.9997 H 7679.9994"
       id="path517" /></g></svg>
