<?xml version="1.0" encoding="UTF-8" standalone="no"?>
<svg
   style="fill-rule:evenodd;stroke-linecap:round"
   version="1.1"
   id="svg6781"
   width="12in"
   viewBox="0 0 7679.9997 5759.9999"
   preserveAspectRatio="none"
   height="9in"
   inkscape:version="1.2.1 (9c6d41e410, 2022-07-14)"
   sodipodi:docname="burn-5-9x12-collage-board-baseball-crane.svg"
   xml:space="preserve"
   inkscape:export-filename="../shared/board.png"
   inkscape:export-xdpi="300"
   inkscape:export-ydpi="300"
   xmlns:inkscape="http://www.inkscape.org/namespaces/inkscape"
   xmlns:sodipodi="http://sodipodi.sourceforge.net/DTD/sodipodi-0.dtd"
   xmlns="http://www.w3.org/2000/svg"
   xmlns:svg="http://www.w3.org/2000/svg"
   xmlns:rdf="http://www.w3.org/1999/02/22-rdf-syntax-ns#"
   xmlns:cc="http://creativecommons.org/ns#"
   xmlns:dc="http://purl.org/dc/elements/1.1/"><sodipodi:namedview
     pagecolor="#ffffff"
     bordercolor="#666666"
     borderopacity="1"
     objecttolerance="10"
     gridtolerance="10"
     guidetolerance="10"
     inkscape:pageopacity="1"
     inkscape:pageshadow="2"
     inkscape:window-width="640"
     inkscape:window-height="480"
     id="namedview9"
     showgrid="false"
     inkscape:zoom="0.98697917"
     inkscape:cx="576"
     inkscape:cy="432.12665"
     inkscape:window-x="0"
     inkscape:window-y="23"
     inkscape:window-maximized="0"
     inkscape:current-layer="layer11"
     inkscape:showpageshadow="2"
     inkscape:pagecheckerboard="0"
     inkscape:deskcolor="#d1d1d1"
     inkscape:document-units="mm" /><metadata
     id="metadata7279"><rdf:RDF><cc:Work
         rdf:about=""><dc:format>image/svg+xml</dc:format><dc:type
           rdf:resource="http://purl.org/dc/dcmitype/StillImage" /></cc:Work></rdf:RDF></metadata><defs
     id="defs7277"><inkscape:path-effect
   effect="fillet_chamfer"
   id="path-effect15415"
   is_visible="true"
   lpeversion="1"
   nodesatellites_param="F,0,0,1,0,0,0,1 @ F,0,0,1,0,51.718129,0,1 @ F,0,0,1,0,67.731889,0,1 @ F,0,0,1,0,0,0,1 @ F,0,0,1,0,0,0,1 @ F,0,0,1,0,63.617035,0,1 @ F,0,0,1,0,64.580101,0,1 @ F,0,0,1,0,66.418618,0,1 @ F,0,0,1,0,53.731811,0,1 @ F,0,0,1,0,71.313475,0,1 @ F,0,0,1,0,72.714422,0,1 @ F,0,0,1,0,63.187238,0,1 @ F,0,0,1,0,65.81378,0,1 @ F,0,0,1,0,65.718269,0,1 @ F,0,0,1,0,59.677222,0,1 @ F,0,0,1,0,0,0,1 @ F,0,0,1,0,0,0,1 @ F,0,0,1,0,62.303764,0,1 @ F,0,0,1,0,63.87969,0,1 @ F,0,0,1,0,0,0,1"
   unit="px"
   method="auto"
   mode="F"
   radius="0"
   chamfer_steps="1"
   flexible="false"
   use_knot_distance="true"
   apply_no_radius="true"
   apply_with_radius="true"
   only_selected="false"
   hide_knots="false" /><inkscape:path-effect
   effect="fillet_chamfer"
   id="path-effect13385"
   is_visible="true"
   lpeversion="1"
   nodesatellites_param="F,0,0,1,0,0,0,1 @ F,0,0,1,0,51.718129,0,1 @ F,0,0,1,0,67.731889,0,1 @ F,0,0,1,0,0,0,1 @ F,0,0,1,0,0,0,1 @ F,0,0,1,0,63.617035,0,1 @ F,0,0,1,0,64.580101,0,1 @ F,0,0,1,0,66.418618,0,1 @ F,0,0,1,0,53.731811,0,1 @ F,0,0,1,0,71.313475,0,1 @ F,0,0,1,0,72.714422,0,1 @ F,0,0,1,0,63.187238,0,1 @ F,0,0,1,0,65.81378,0,1 @ F,0,0,1,0,65.718269,0,1 @ F,0,0,1,0,59.677222,0,1 @ F,0,0,1,0,0,0,1 @ F,0,0,1,0,0,0,1 @ F,0,0,1,0,62.303764,0,1 @ F,0,0,1,0,63.87969,0,1 @ F,0,0,1,0,0.34224638,0,1"
   unit="px"
   method="auto"
   mode="F"
   radius="0"
   chamfer_steps="1"
   flexible="false"
   use_knot_distance="true"
   apply_no_radius="true"
   apply_with_radius="true"
   only_selected="false"
   hide_knots="false" /><inkscape:path-effect
   effect="fillet_chamfer"
   id="path-effect12166"
   is_visible="true"
   lpeversion="1"
   nodesatellites_param="F,0,0,1,0,0,0,1 @ F,0,0,1,0,0,0,1 @ F,0,0,1,0,0,0,1 @ F,0,0,1,0,0,0,1 @ F,0,0,1,0,69.305454,0,1 @ F,0,0,1,0,73.76594,0,1 @ F,0,0,1,0,0,0,1 @ F,0,0,1,0,0,0,1 @ F,0,0,1,0,66.6143,0,1 @ F,0,0,1,0,73.508076,0,1 @ F,0,0,1,0,75.793522,0,1 @ F,0,0,1,0,59.179836,0,1 @ F,0,0,1,0,72.967196,0,1 @ F,0,0,1,0,73.225252,0,1 @ F,0,0,1,0,69.575606,0,1 @ F,0,0,1,0,53.232264,0,1 @ F,0,0,1,0,67.683197,0,1 @ F,0,0,1,0,71.333035,0,1 @ F,0,0,1,0,0,0,1 @ F,0,0,1,0,0,0,1 @ F,0,0,1,0,65.532924,0,1 @ F,0,0,1,0,62.006161,0,1 @ F,0,0,1,0,0,0,1 @ F,0,0,1,0,0,0,1 @ F,0,0,1,0,0,0,1 @ F,0,0,1,0,0,0,1"
   unit="px"
   method="auto"
   mode="F"
   radius="0"
   chamfer_steps="1"
   flexible="false"
   use_knot_distance="true"
   apply_no_radius="true"
   apply_with_radius="true"
   only_selected="false"
   hide_knots="false" /><inkscape:path-effect
   effect="fillet_chamfer"
   id="path-effect134701"
   is_visible="true"
   lpeversion="1"
   nodesatellites_param="F,0,0,1,0,0,0,1 @ F,0,0,1,0,51.718129,0,1 @ F,0,0,1,0,67.731889,0,1 @ F,0,0,1,0,0,0,1 @ F,0,0,1,0,0,0,1 @ F,0,0,1,0,63.617035,0,1 @ F,0,0,1,0,64.580101,0,1 @ F,0,0,1,0,66.418618,0,1 @ F,0,0,1,0,53.731811,0,1 @ F,0,0,1,0,71.313475,0,1 @ F,0,0,1,0,72.714422,0,1 @ F,0,0,1,0,63.187238,0,1 @ F,0,0,1,0,65.81378,0,1 @ F,0,0,1,0,65.718269,0,1 @ F,0,0,1,0,59.677222,0,1 @ F,0,0,1,0,0,0,1 @ F,0,0,1,0,0,0,1 @ F,0,0,1,0,62.303764,0,1 @ F,0,0,1,0,63.87969,0,1 @ F,0,0,1,0,0.34224638,0,1"
   unit="px"
   method="auto"
   mode="F"
   radius="0"
   chamfer_steps="1"
   flexible="false"
   use_knot_distance="true"
   apply_no_radius="true"
   apply_with_radius="true"
   only_selected="false"
   hide_knots="false" /><inkscape:path-effect
   effect="fillet_chamfer"
   id="path-effect121242"
   is_visible="true"
   lpeversion="1"
   nodesatellites_param="F,0,0,1,0,0,0,1 @ F,0,0,1,0,51.718129,0,1 @ F,0,0,1,0,67.731889,0,1 @ F,0,0,1,0,0,0,1 @ F,0,0,1,0,0,0,1 @ F,0,0,1,0,63.617035,0,1 @ F,0,0,1,0,64.580101,0,1 @ F,0,0,1,0,66.418618,0,1 @ F,0,0,1,0,53.731811,0,1 @ F,0,0,1,0,71.313475,0,1 @ F,0,0,1,0,72.714422,0,1 @ F,0,0,1,0,63.187238,0,1 @ F,0,0,1,0,65.81378,0,1 @ F,0,0,1,0,65.718269,0,1 @ F,0,0,1,0,59.677222,0,1 @ F,0,0,1,0,0,0,1 @ F,0,0,1,0,0,0,1 @ F,0,0,1,0,62.303764,0,1 @ F,0,0,1,0,63.87969,0,1 @ F,0,0,1,0,0,0,1"
   unit="px"
   method="auto"
   mode="F"
   radius="0"
   chamfer_steps="1"
   flexible="false"
   use_knot_distance="true"
   apply_no_radius="true"
   apply_with_radius="true"
   only_selected="false"
   hide_knots="false" /><inkscape:path-effect
   effect="fillet_chamfer"
   id="path-effect118339"
   is_visible="true"
   lpeversion="1"
   nodesatellites_param="F,0,0,1,0,0,0,1 @ F,0,0,1,0,51.718129,0,1 @ F,0,0,1,0,67.731889,0,1 @ F,0,0,1,0,0,0,1 @ F,0,0,1,0,0,0,1 @ F,0,0,1,0,63.617035,0,1 @ F,0,0,1,0,64.580101,0,1 @ F,0,0,1,0,66.418618,0,1 @ F,0,0,1,0,53.731811,0,1 @ F,0,0,1,0,71.313475,0,1 @ F,0,0,1,0,72.714422,0,1 @ F,0,0,1,0,63.187238,0,1 @ F,0,0,1,0,65.81378,0,1 @ F,0,0,1,0,65.718269,0,1 @ F,0,0,1,0,59.677222,0,1 @ F,0,0,1,0,0,0,1 @ F,0,0,1,0,0,0,1 @ F,0,0,1,0,62.303764,0,1 @ F,0,0,1,0,63.87969,0,1 @ F,0,0,1,0,0.34224638,0,1"
   unit="px"
   method="auto"
   mode="F"
   radius="0"
   chamfer_steps="1"
   flexible="false"
   use_knot_distance="true"
   apply_no_radius="true"
   apply_with_radius="true"
   only_selected="false"
   hide_knots="false" /><inkscape:path-effect
   effect="fillet_chamfer"
   id="path-effect116934"
   is_visible="true"
   lpeversion="1"
   nodesatellites_param="F,0,0,1,0,0,0,1 @ F,0,0,1,0,0,0,1 @ F,0,0,1,0,0,0,1 @ F,0,0,1,0,0,0,1 @ F,0,0,1,0,69.305454,0,1 @ F,0,0,1,0,73.76594,0,1 @ F,0,0,1,0,0,0,1 @ F,0,0,1,0,0,0,1 @ F,0,0,1,0,66.6143,0,1 @ F,0,0,1,0,73.508076,0,1 @ F,0,0,1,0,75.793522,0,1 @ F,0,0,1,0,59.179836,0,1 @ F,0,0,1,0,72.967196,0,1 @ F,0,0,1,0,73.225252,0,1 @ F,0,0,1,0,69.575606,0,1 @ F,0,0,1,0,53.232264,0,1 @ F,0,0,1,0,67.683197,0,1 @ F,0,0,1,0,71.333035,0,1 @ F,0,0,1,0,0,0,1 @ F,0,0,1,0,0,0,1 @ F,0,0,1,0,65.532924,0,1 @ F,0,0,1,0,62.006161,0,1 @ F,0,0,1,0,0,0,1 @ F,0,0,1,0,0,0,1 @ F,0,0,1,0,0,0,1 @ F,0,0,1,0,0,0,1"
   unit="px"
   method="auto"
   mode="F"
   radius="0"
   chamfer_steps="1"
   flexible="false"
   use_knot_distance="true"
   apply_no_radius="true"
   apply_with_radius="true"
   only_selected="false"
   hide_knots="false" /><inkscape:path-effect
   effect="fillet_chamfer"
   id="path-effect31156"
   is_visible="true"
   lpeversion="1"
   nodesatellites_param="F,0,0,1,0,0,0,1 @ F,0,0,1,0,51.718129,0,1 @ F,0,0,1,0,67.731889,0,1 @ F,0,0,1,0,0,0,1 @ F,0,0,1,0,0,0,1 @ F,0,0,1,0,63.617035,0,1 @ F,0,0,1,0,64.580101,0,1 @ F,0,0,1,0,66.418618,0,1 @ F,0,0,1,0,53.731811,0,1 @ F,0,0,1,0,71.313475,0,1 @ F,0,0,1,0,72.714422,0,1 @ F,0,0,1,0,63.187238,0,1 @ F,0,0,1,0,65.81378,0,1 @ F,0,0,1,0,65.718269,0,1 @ F,0,0,1,0,59.677222,0,1 @ F,0,0,1,0,0,0,1 @ F,0,0,1,0,0,0,1 @ F,0,0,1,0,62.303764,0,1 @ F,0,0,1,0,63.87969,0,1 @ F,0,0,1,0,0,0,1"
   unit="px"
   method="auto"
   mode="F"
   radius="0"
   chamfer_steps="1"
   flexible="false"
   use_knot_distance="true"
   apply_no_radius="true"
   apply_with_radius="true"
   only_selected="false"
   hide_knots="false" /><inkscape:path-effect
   effect="fillet_chamfer"
   id="path-effect29230"
   is_visible="true"
   lpeversion="1"
   nodesatellites_param="F,0,0,1,0,0,0,1 @ F,0,0,1,0,51.718129,0,1 @ F,0,0,1,0,67.731889,0,1 @ F,0,0,1,0,0,0,1 @ F,0,0,1,0,0,0,1 @ F,0,0,1,0,63.617035,0,1 @ F,0,0,1,0,64.580101,0,1 @ F,0,0,1,0,66.418618,0,1 @ F,0,0,1,0,53.731811,0,1 @ F,0,0,1,0,71.313475,0,1 @ F,0,0,1,0,72.714422,0,1 @ F,0,0,1,0,63.187238,0,1 @ F,0,0,1,0,65.81378,0,1 @ F,0,0,1,0,65.718269,0,1 @ F,0,0,1,0,59.677222,0,1 @ F,0,0,1,0,0,0,1 @ F,0,0,1,0,0,0,1 @ F,0,0,1,0,62.303764,0,1 @ F,0,0,1,0,63.87969,0,1 @ F,0,0,1,0,0.34224638,0,1"
   unit="px"
   method="auto"
   mode="F"
   radius="0"
   chamfer_steps="1"
   flexible="false"
   use_knot_distance="true"
   apply_no_radius="true"
   apply_with_radius="true"
   only_selected="false"
   hide_knots="false" /><inkscape:path-effect
   effect="fillet_chamfer"
   id="path-effect27299"
   is_visible="true"
   lpeversion="1"
   nodesatellites_param="F,0,0,1,0,0,0,1 @ F,0,0,1,0,0,0,1 @ F,0,0,1,0,0,0,1 @ F,0,0,1,0,0,0,1 @ F,0,0,1,0,69.305454,0,1 @ F,0,0,1,0,73.76594,0,1 @ F,0,0,1,0,0,0,1 @ F,0,0,1,0,0,0,1 @ F,0,0,1,0,66.6143,0,1 @ F,0,0,1,0,73.508076,0,1 @ F,0,0,1,0,75.793522,0,1 @ F,0,0,1,0,59.179836,0,1 @ F,0,0,1,0,72.967196,0,1 @ F,0,0,1,0,73.225252,0,1 @ F,0,0,1,0,69.575606,0,1 @ F,0,0,1,0,53.232264,0,1 @ F,0,0,1,0,67.683197,0,1 @ F,0,0,1,0,71.333035,0,1 @ F,0,0,1,0,0,0,1 @ F,0,0,1,0,0,0,1 @ F,0,0,1,0,65.532924,0,1 @ F,0,0,1,0,62.006161,0,1 @ F,0,0,1,0,0,0,1 @ F,0,0,1,0,0,0,1 @ F,0,0,1,0,0,0,1 @ F,0,0,1,0,0,0,1"
   unit="px"
   method="auto"
   mode="F"
   radius="0"
   chamfer_steps="1"
   flexible="false"
   use_knot_distance="true"
   apply_no_radius="true"
   apply_with_radius="true"
   only_selected="false"
   hide_knots="false" /><inkscape:path-effect
   effect="fillet_chamfer"
   id="path-effect220245"
   is_visible="true"
   lpeversion="1"
   nodesatellites_param="F,0,0,1,0,0,0,1 @ F,0,0,1,0,0,0,1 @ F,0,0,1,0,0,0,1 @ F,0,0,1,0,0,0,1 @ F,0,0,1,0,69.305454,0,1 @ F,0,0,1,0,73.76594,0,1 @ F,0,0,1,0,0,0,1 @ F,0,0,1,0,0,0,1 @ F,0,0,1,0,66.6143,0,1 @ F,0,0,1,0,73.508076,0,1 @ F,0,0,1,0,75.793522,0,1 @ F,0,0,1,0,59.179836,0,1 @ F,0,0,1,0,72.967196,0,1 @ F,0,0,1,0,73.225252,0,1 @ F,0,0,1,0,69.575606,0,1 @ F,0,0,1,0,53.232264,0,1 @ F,0,0,1,0,67.683197,0,1 @ F,0,0,1,0,71.333035,0,1 @ F,0,0,1,0,0,0,1 @ F,0,0,1,0,0,0,1 @ F,0,0,1,0,65.532924,0,1 @ F,0,0,1,0,62.006161,0,1 @ F,0,0,1,0,0,0,1 @ F,0,0,1,0,0,0,1 @ F,0,0,1,0,0,0,1 @ F,0,0,1,0,0,0,1"
   unit="px"
   method="auto"
   mode="F"
   radius="0"
   chamfer_steps="1"
   flexible="false"
   use_knot_distance="true"
   apply_no_radius="true"
   apply_with_radius="true"
   only_selected="false"
   hide_knots="false" /><inkscape:path-effect
   effect="fillet_chamfer"
   id="path-effect214705"
   is_visible="false"
   lpeversion="1"
   nodesatellites_param="F,0,0,1,0,0,0,1 @ F,0,0,1,0,51.718129,0,1 @ F,0,0,1,0,67.731889,0,1 @ F,0,0,1,0,0,0,1 @ F,0,0,1,0,0,0,1 @ F,0,0,1,0,63.617035,0,1 @ F,0,0,1,0,64.580101,0,1 @ F,0,0,1,0,66.418618,0,1 @ F,0,0,1,0,53.731811,0,1 @ F,0,0,1,0,71.313475,0,1 @ F,0,0,1,0,72.714422,0,1 @ F,0,0,1,0,63.187238,0,1 @ F,0,0,1,0,65.81378,0,1 @ F,0,0,1,0,65.718269,0,1 @ F,0,0,1,0,59.677222,0,1 @ F,0,0,1,0,0,0,1 @ F,0,0,1,0,0,0,1 @ F,0,0,1,0,62.303764,0,1 @ F,0,0,1,0,63.87969,0,1 @ F,0,0,1,0,0,0,1"
   unit="px"
   method="auto"
   mode="F"
   radius="0"
   chamfer_steps="1"
   flexible="false"
   use_knot_distance="true"
   apply_no_radius="true"
   apply_with_radius="true"
   only_selected="false"
   hide_knots="false" /><inkscape:path-effect
   effect="fillet_chamfer"
   id="path-effect203568"
   is_visible="true"
   lpeversion="1"
   nodesatellites_param="F,0,0,1,0,0,0,1 @ F,0,0,1,0,51.718129,0,1 @ F,0,0,1,0,67.731889,0,1 @ F,0,0,1,0,0,0,1 @ F,0,0,1,0,0,0,1 @ F,0,0,1,0,63.617035,0,1 @ F,0,0,1,0,64.580101,0,1 @ F,0,0,1,0,66.418618,0,1 @ F,0,0,1,0,53.731811,0,1 @ F,0,0,1,0,71.313475,0,1 @ F,0,0,1,0,72.714422,0,1 @ F,0,0,1,0,63.187238,0,1 @ F,0,0,1,0,65.81378,0,1 @ F,0,0,1,0,65.718269,0,1 @ F,0,0,1,0,59.677222,0,1 @ F,0,0,1,0,0,0,1 @ F,0,0,1,0,0,0,1 @ F,0,0,1,0,62.303764,0,1 @ F,0,0,1,0,63.87969,0,1 @ F,0,0,1,0,0.34224638,0,1"
   unit="px"
   method="auto"
   mode="F"
   radius="0"
   chamfer_steps="1"
   flexible="false"
   use_knot_distance="true"
   apply_no_radius="true"
   apply_with_radius="true"
   only_selected="false"
   hide_knots="false" /><inkscape:path-effect
   effect="fillet_chamfer"
   id="path-effect203334"
   is_visible="true"
   lpeversion="1"
   nodesatellites_param="F,0,0,1,0,0,0,1 @ F,0,0,1,0,51.718129,0,1 @ F,0,0,1,0,67.731889,0,1 @ F,0,0,1,0,0,0,1 @ F,0,0,1,0,0,0,1 @ F,0,0,1,0,63.617035,0,1 @ F,0,0,1,0,64.580101,0,1 @ F,0,0,1,0,66.418618,0,1 @ F,0,0,1,0,53.731811,0,1 @ F,0,0,1,0,71.313475,0,1 @ F,0,0,1,0,72.714422,0,1 @ F,0,0,1,0,63.187238,0,1 @ F,0,0,1,0,65.81378,0,1 @ F,0,0,1,0,65.718269,0,1 @ F,0,0,1,0,59.677222,0,1 @ F,0,0,1,0,0,0,1 @ F,0,0,1,0,0,0,1 @ F,0,0,1,0,62.303764,0,1 @ F,0,0,1,0,63.87969,0,1 @ F,0,0,1,0,0,0,1"
   unit="px"
   method="auto"
   mode="F"
   radius="0"
   chamfer_steps="1"
   flexible="false"
   use_knot_distance="true"
   apply_no_radius="true"
   apply_with_radius="true"
   only_selected="false"
   hide_knots="false" /><rect
   x="394.99557"
   y="235.30556"
   width="148.94759"
   height="109.43574"
   id="rect77966" /><rect
   x="486.77853"
   y="154.603"
   width="298.68204"
   height="405.65573"
   id="rect33927" /><rect
   x="-340.53278"
   y="137.19406"
   width="673.58405"
   height="312.11969"
   id="rect33463" /><inkscape:perspective
   sodipodi:type="inkscape:persp3d"
   inkscape:vp_x="0 : 1920 : 1"
   inkscape:vp_y="0 : 1000 : 0"
   inkscape:vp_z="5759.9998 : 1920 : 1"
   inkscape:persp3d-origin="2879.9999 : 639.99996 : 1"
   id="perspective7698" /><rect
   x="-294.07355"
   y="609.38196"
   width="101.2617"
   height="30.048023"
   id="rect89096" /><rect
   x="673.68402"
   y="727.14307"
   width="70.873802"
   height="71.972488"
   id="rect78220" /><rect
   x="336.69916"
   y="523.68329"
   width="207.88464"
   height="202.16441"
   id="rect16307" /><rect
   x="296.35019"
   y="759.91296"
   width="125.09589"
   height="114.12948"
   id="rect14067" /><rect
   x="286.18842"
   y="793.36145"
   width="108.59091"
   height="129.15038"
   id="rect14055" /><rect
   x="205.23338"
   y="772.76605"
   width="72.820282"
   height="102.27335"
   id="rect13935" /><rect
   x="378.1131"
   y="535.71301"
   width="180.07759"
   height="171.85767"
   id="rect9934" /><rect
   x="32.598747"
   y="72.047264"
   width="852.88806"
   height="47.951153"
   id="rect1601" /><marker
   style="overflow:visible"
   id="Arrow1Lend"
   refX="0"
   refY="0"
   orient="auto"><path
     transform="matrix(-0.8,0,0,-0.8,-10,0)"
     style="fill-rule:evenodd;stroke:#000000;stroke-width:1pt;marker-start:none"
     d="M 0,0 5,-5 -12.5,0 5,5 Z"
     id="path9186" /></marker><rect
   x="673.68402"
   y="727.14307"
   width="70.873802"
   height="71.972488"
   id="rect78601" /><rect
   x="673.68402"
   y="727.14307"
   width="70.873802"
   height="71.972488"
   id="rect80747" /><rect
   x="673.68402"
   y="727.14307"
   width="70.873802"
   height="71.972488"
   id="rect89086" /><rect
   x="-294.07355"
   y="609.38196"
   width="101.2617"
   height="30.048023"
   id="rect89470" /><rect
   x="-294.07355"
   y="609.38196"
   width="101.2617"
   height="30.048023"
   id="rect89482" /><rect
   x="-294.07355"
   y="609.38196"
   width="101.2617"
   height="30.048023"
   id="rect89494" /><rect
   x="-294.07355"
   y="609.38196"
   width="101.2617"
   height="30.048023"
   id="rect89506" /><rect
   x="-294.07355"
   y="609.38196"
   width="101.2617"
   height="30.048023"
   id="rect89518" /><rect
   x="-294.07355"
   y="609.38196"
   width="101.2617"
   height="30.048023"
   id="rect89530" /><rect
   x="-294.07355"
   y="609.38196"
   width="101.2617"
   height="30.048023"
   id="rect89096-0" /><rect
   x="-294.07355"
   y="609.38196"
   width="101.2617"
   height="30.048023"
   id="rect90283" /><rect
   x="-294.07355"
   y="609.38196"
   width="101.2617"
   height="30.048023"
   id="rect90299" /><rect
   x="-294.07355"
   y="609.38196"
   width="101.2617"
   height="30.048023"
   id="rect90301" /><rect
   x="-294.07355"
   y="609.38196"
   width="101.2617"
   height="30.048023"
   id="rect90317" /><rect
   x="-294.07355"
   y="609.38196"
   width="101.2617"
   height="30.048023"
   id="rect90319" /><rect
   x="-294.07355"
   y="609.38196"
   width="101.2617"
   height="30.048023"
   id="rect90335" /><rect
   x="-294.07355"
   y="609.38196"
   width="101.2617"
   height="30.048023"
   id="rect90337" /><rect
   x="-294.07355"
   y="609.38196"
   width="101.2617"
   height="30.048023"
   id="rect90353" /><rect
   x="-294.07355"
   y="609.38196"
   width="101.2617"
   height="30.048023"
   id="rect90355" /><rect
   x="-294.07355"
   y="609.38196"
   width="101.2617"
   height="30.048023"
   id="rect90371" /><rect
   x="-294.07355"
   y="609.38196"
   width="101.2617"
   height="30.048023"
   id="rect90373" /><rect
   x="-294.07355"
   y="609.38196"
   width="101.2617"
   height="30.048023"
   id="rect90389" /><rect
   x="-294.07355"
   y="609.38196"
   width="101.2617"
   height="30.048023"
   id="rect90391" /><rect
   x="-294.07355"
   y="609.38196"
   width="101.2617"
   height="30.048023"
   id="rect90407" /><rect
   x="-294.07355"
   y="609.38196"
   width="101.2617"
   height="30.048023"
   id="rect90409" /><rect
   x="-294.07355"
   y="609.38196"
   width="101.2617"
   height="30.048023"
   id="rect90441" /><rect
   x="-294.07355"
   y="609.38196"
   width="101.2617"
   height="30.048023"
   id="rect90443" /><rect
   x="-294.07355"
   y="609.38196"
   width="101.2617"
   height="30.048023"
   id="rect90445" /><rect
   x="-294.07355"
   y="609.38196"
   width="101.2617"
   height="30.048023"
   id="rect90447" /><rect
   x="205.23338"
   y="772.76605"
   width="72.820282"
   height="102.27335"
   id="rect51454" /><rect
   x="-294.07355"
   y="609.38196"
   width="101.2617"
   height="30.048023"
   id="rect52959" /><rect
   x="-294.07355"
   y="609.38196"
   width="101.2617"
   height="30.048023"
   id="rect53029" /><rect
   x="-294.07355"
   y="609.38196"
   width="101.2617"
   height="30.048023"
   id="rect53031" /><rect
   x="-294.07355"
   y="609.38196"
   width="101.2617"
   height="30.048023"
   id="rect53033" /><rect
   x="-294.07355"
   y="609.38196"
   width="101.2617"
   height="30.048023"
   id="rect53035" /><rect
   x="-294.07355"
   y="609.38196"
   width="101.2617"
   height="30.048023"
   id="rect53106" /><rect
   x="-294.07355"
   y="609.38196"
   width="101.2617"
   height="30.048023"
   id="rect53108" /><rect
   x="-294.07355"
   y="609.38196"
   width="101.2617"
   height="30.048023"
   id="rect53110" /><rect
   x="-294.07355"
   y="609.38196"
   width="101.2617"
   height="30.048023"
   id="rect53112" /><rect
   x="-294.07355"
   y="609.38196"
   width="101.2617"
   height="30.048023"
   id="rect53183" /><rect
   x="-294.07355"
   y="609.38196"
   width="101.2617"
   height="30.048023"
   id="rect53185" /><rect
   x="-294.07355"
   y="609.38196"
   width="101.2617"
   height="30.048023"
   id="rect53187" /><rect
   x="-294.07355"
   y="609.38196"
   width="101.2617"
   height="30.048023"
   id="rect53189" /><rect
   x="-294.07355"
   y="609.38196"
   width="101.2617"
   height="30.048023"
   id="rect53260" /><rect
   x="-294.07355"
   y="609.38196"
   width="101.2617"
   height="30.048023"
   id="rect53262" /><rect
   x="-294.07355"
   y="609.38196"
   width="101.2617"
   height="30.048023"
   id="rect53264" /><rect
   x="-294.07355"
   y="609.38196"
   width="101.2617"
   height="30.048023"
   id="rect53266" /><rect
   x="-294.07355"
   y="609.38196"
   width="101.2617"
   height="30.048023"
   id="rect54410" /><rect
   x="-294.07355"
   y="609.38196"
   width="101.2617"
   height="30.048023"
   id="rect55023" /><rect
   x="-294.07355"
   y="609.38196"
   width="101.2617"
   height="30.048023"
   id="rect60273" /><rect
   x="-294.07355"
   y="609.38196"
   width="101.2617"
   height="30.048023"
   id="rect60275" /><rect
   x="-294.07355"
   y="609.38196"
   width="101.2617"
   height="30.048023"
   id="rect60277" /><rect
   x="-294.07355"
   y="609.38196"
   width="101.2617"
   height="30.048023"
   id="rect60279" /><rect
   x="-294.07355"
   y="609.38196"
   width="101.2617"
   height="30.048023"
   id="rect60281" /><rect
   x="-294.07355"
   y="609.38196"
   width="101.2617"
   height="30.048023"
   id="rect60283" /><rect
   x="205.23338"
   y="772.76605"
   width="72.820282"
   height="102.27335"
   id="rect60285" /><rect
   x="-294.07355"
   y="609.38196"
   width="101.2617"
   height="30.048023"
   id="rect71642" /><rect
   x="-294.07355"
   y="609.38196"
   width="101.2617"
   height="30.048023"
   id="rect71644" /><rect
   x="-294.07355"
   y="609.38196"
   width="101.2617"
   height="30.048023"
   id="rect71646" /><rect
   x="-294.07355"
   y="609.38196"
   width="101.2617"
   height="30.048023"
   id="rect71648" /><rect
   x="-294.07355"
   y="609.38196"
   width="101.2617"
   height="30.048023"
   id="rect71650" /><rect
   x="-294.07355"
   y="609.38196"
   width="141.9213"
   height="89.765976"
   id="rect77811" /><rect
   x="-294.07355"
   y="609.38196"
   width="101.2617"
   height="30.048023"
   id="rect131568" /><rect
   x="-294.07355"
   y="609.38196"
   width="101.2617"
   height="30.048023"
   id="rect131889" /><rect
   x="-294.07355"
   y="609.38196"
   width="101.2617"
   height="30.048023"
   id="rect132353" /><rect
   x="-294.07355"
   y="609.38196"
   width="101.2617"
   height="30.048023"
   id="rect132355" /><rect
   x="-294.07355"
   y="609.38196"
   width="101.2617"
   height="30.048023"
   id="rect132357" /><rect
   x="-294.07355"
   y="609.38196"
   width="101.2617"
   height="30.048023"
   id="rect132359" /><rect
   x="205.23338"
   y="772.76605"
   width="72.820282"
   height="102.27335"
   id="rect133210" /><rect
   x="-294.07355"
   y="609.38196"
   width="101.2617"
   height="30.048023"
   id="rect134544" /><rect
   x="-294.07355"
   y="609.38196"
   width="101.2617"
   height="30.048023"
   id="rect134590" /><rect
   x="-294.07355"
   y="609.38196"
   width="101.2617"
   height="30.048023"
   id="rect134592" /><rect
   x="-294.07355"
   y="609.38196"
   width="101.2617"
   height="30.048023"
   id="rect134594" /><rect
   x="-294.07355"
   y="609.38196"
   width="101.2617"
   height="30.048023"
   id="rect134596" /><rect
   x="-294.07355"
   y="609.38196"
   width="101.2617"
   height="30.048023"
   id="rect135266" /><rect
   x="-294.07355"
   y="609.38196"
   width="101.2617"
   height="30.048023"
   id="rect135312" /><rect
   x="-294.07355"
   y="609.38196"
   width="101.2617"
   height="30.048023"
   id="rect135314" /><rect
   x="-294.07355"
   y="609.38196"
   width="101.2617"
   height="30.048023"
   id="rect135316" /><rect
   x="-294.07355"
   y="609.38196"
   width="101.2617"
   height="30.048023"
   id="rect135318" /><rect
   x="-294.07355"
   y="609.38196"
   width="101.2617"
   height="30.048023"
   id="rect136414" /><rect
   x="-294.07355"
   y="609.38196"
   width="101.2617"
   height="30.048023"
   id="rect137952" /><rect
   x="486.77853"
   y="154.603"
   width="298.68204"
   height="405.65573"
   id="rect137954" /><rect
   x="-294.07355"
   y="609.38196"
   width="101.2617"
   height="30.048023"
   id="rect138000" /><rect
   x="-294.07355"
   y="609.38196"
   width="101.2617"
   height="30.048023"
   id="rect138002" /><rect
   x="-294.07355"
   y="609.38196"
   width="101.2617"
   height="30.048023"
   id="rect138004" /><rect
   x="-294.07355"
   y="609.38196"
   width="101.2617"
   height="30.048023"
   id="rect138006" /><pattern
   id="WMFhbasepattern"
   patternUnits="userSpaceOnUse"
   width="6"
   height="6"
   x="0"
   y="0" /><inkscape:path-effect
   effect="spiro"
   id="path-effect3342"
   is_visible="true"
   lpeversion="0" /><rect
   x="-294.07355"
   y="609.38196"
   width="101.2617"
   height="30.048023"
   id="rect5638" /><rect
   x="-294.07355"
   y="609.38196"
   width="101.2617"
   height="30.048023"
   id="rect5677" /><rect
   x="-294.07355"
   y="609.38196"
   width="101.2617"
   height="30.048023"
   id="rect6142" /><rect
   x="-294.07355"
   y="609.38196"
   width="101.2617"
   height="30.048023"
   id="rect6144" /><rect
   x="-294.07355"
   y="609.38196"
   width="101.2617"
   height="30.048023"
   id="rect6146" /><rect
   x="-294.07355"
   y="609.38196"
   width="101.2617"
   height="30.048023"
   id="rect6148" /><rect
   x="-294.07355"
   y="609.38196"
   width="101.2617"
   height="30.048023"
   id="rect7124" /><rect
   x="486.77853"
   y="154.603"
   width="298.68204"
   height="405.65573"
   id="rect7126" /><rect
   x="-294.07355"
   y="609.38196"
   width="101.2617"
   height="30.048023"
   id="rect8512" /><rect
   x="-294.07355"
   y="609.38196"
   width="101.2617"
   height="30.048023"
   id="rect10333" /><rect
   x="-294.07355"
   y="609.38196"
   width="101.2617"
   height="30.048023"
   id="rect10335" /><rect
   x="-294.07355"
   y="609.38196"
   width="101.2617"
   height="30.048023"
   id="rect10337" /><rect
   x="-294.07355"
   y="609.38196"
   width="101.2617"
   height="30.048023"
   id="rect10339" /><rect
   x="-294.07355"
   y="609.38196"
   width="101.2617"
   height="30.048023"
   id="rect10452" /><rect
   x="-294.07355"
   y="609.38196"
   width="101.2617"
   height="30.048023"
   id="rect10454" /><rect
   x="-294.07355"
   y="609.38196"
   width="101.2617"
   height="30.048023"
   id="rect10456" /><rect
   x="-294.07355"
   y="609.38196"
   width="101.2617"
   height="30.048023"
   id="rect10458" /><rect
   x="-294.07355"
   y="609.38196"
   width="101.2617"
   height="30.048023"
   id="rect10969" /><rect
   x="-294.07355"
   y="609.38196"
   width="101.2617"
   height="30.048023"
   id="rect11584" /><rect
   x="-294.07355"
   y="609.38196"
   width="101.2617"
   height="30.048023"
   id="rect11905" /><rect
   x="-294.07355"
   y="609.38196"
   width="101.2617"
   height="30.048023"
   id="rect12372" /><rect
   x="-294.07355"
   y="609.38196"
   width="101.2617"
   height="30.048023"
   id="rect12374" /><rect
   x="-294.07355"
   y="609.38196"
   width="101.2617"
   height="30.048023"
   id="rect12376" /><rect
   x="-294.07355"
   y="609.38196"
   width="101.2617"
   height="30.048023"
   id="rect12378" /><rect
   x="-294.07355"
   y="609.38196"
   width="101.2617"
   height="30.048023"
   id="rect12986" /><rect
   x="205.23338"
   y="772.76605"
   width="72.820282"
   height="102.27335"
   id="rect19411" />
	
	
	
	
	
	
	
	
	
	
	
	
	
	
	
	
	
	
	
	
	
	
	
	
	
	
	

	
	
	
	
	
	
	
	
	
	
	
	
	
	
	
	
	
	
	
	
	
	
	
	
	
	
	

	
	
	
	
	
	
	
	
	
	
	
	
	
	
	
	
	
	
	
	
	
	
	
	
	
	
	

	
	
	
	
	
	
	
	
	
	
	
	
	
	
	
	
	
	
	
	
	
	
	
	
	
	
	
<rect
   x="-294.07355"
   y="609.38196"
   width="101.2617"
   height="30.048023"
   id="rect35040" /><rect
   x="-294.07355"
   y="609.38196"
   width="101.2617"
   height="30.048023"
   id="rect35042" /><rect
   x="-294.07355"
   y="609.38196"
   width="101.2617"
   height="30.048023"
   id="rect35044" /><rect
   x="-294.07355"
   y="609.38196"
   width="101.2617"
   height="30.048023"
   id="rect35046" /><rect
   x="-294.07355"
   y="609.38196"
   width="101.2617"
   height="30.048023"
   id="rect35048" /><rect
   x="-294.07355"
   y="609.38196"
   width="101.2617"
   height="30.048023"
   id="rect35050" /><rect
   x="205.23338"
   y="772.76605"
   width="72.820282"
   height="102.27335"
   id="rect35052" /><rect
   x="-294.07355"
   y="609.38196"
   width="101.2617"
   height="30.048023"
   id="rect22528" /><rect
   x="-294.07355"
   y="609.38196"
   width="101.2617"
   height="30.048023"
   id="rect22530" /><rect
   x="-294.07355"
   y="609.38196"
   width="101.2617"
   height="30.048023"
   id="rect22532" /><rect
   x="-294.07355"
   y="609.38196"
   width="101.2617"
   height="30.048023"
   id="rect22534" /><rect
   x="-294.07355"
   y="609.38196"
   width="101.2617"
   height="30.048023"
   id="rect22536" /><rect
   x="-294.07355"
   y="609.38196"
   width="101.2617"
   height="30.048023"
   id="rect46558" /><rect
   x="-294.07355"
   y="609.38196"
   width="101.2617"
   height="30.048023"
   id="rect46560" /><rect
   x="-294.07355"
   y="609.38196"
   width="101.2617"
   height="30.048023"
   id="rect46562" /><rect
   x="-294.07355"
   y="609.38196"
   width="101.2617"
   height="30.048023"
   id="rect46564" /><rect
   x="-294.07355"
   y="609.38196"
   width="101.2617"
   height="30.048023"
   id="rect46566" /><rect
   x="-294.07355"
   y="609.38196"
   width="101.2617"
   height="30.048023"
   id="rect46568" /><rect
   x="205.23338"
   y="772.76605"
   width="72.820282"
   height="102.27335"
   id="rect46570" /><rect
   x="-294.07355"
   y="609.38196"
   width="101.2617"
   height="30.048023"
   id="rect47828" /><rect
   x="-294.07355"
   y="609.38196"
   width="101.2617"
   height="30.048023"
   id="rect47830" /><rect
   x="-294.07355"
   y="609.38196"
   width="101.2617"
   height="30.048023"
   id="rect47832" /><rect
   x="-294.07355"
   y="609.38196"
   width="101.2617"
   height="30.048023"
   id="rect47834" /><rect
   x="-294.07355"
   y="609.38196"
   width="101.2617"
   height="30.048023"
   id="rect47836" /><rect
   x="-294.07355"
   y="609.38196"
   width="101.2617"
   height="30.048023"
   id="rect48798" /><rect
   x="-294.07355"
   y="609.38196"
   width="101.2617"
   height="30.048023"
   id="rect48800" /><rect
   x="-294.07355"
   y="609.38196"
   width="101.2617"
   height="30.048023"
   id="rect48802" /><rect
   x="-294.07355"
   y="609.38196"
   width="101.2617"
   height="30.048023"
   id="rect48804" /><rect
   x="-294.07355"
   y="609.38196"
   width="101.2617"
   height="30.048023"
   id="rect48806" /><rect
   x="-294.07355"
   y="609.38196"
   width="101.2617"
   height="30.048023"
   id="rect49856" /><rect
   x="-294.07355"
   y="609.38196"
   width="101.2617"
   height="30.048023"
   id="rect49858" /><rect
   x="-294.07355"
   y="609.38196"
   width="101.2617"
   height="30.048023"
   id="rect49860" /><rect
   x="-294.07355"
   y="609.38196"
   width="101.2617"
   height="30.048023"
   id="rect49862" /><rect
   x="-294.07355"
   y="609.38196"
   width="101.2617"
   height="30.048023"
   id="rect49864" /><rect
   x="486.77853"
   y="154.603"
   width="298.68204"
   height="405.65573"
   id="rect49866" /><rect
   x="-294.07355"
   y="609.38196"
   width="101.2617"
   height="30.048023"
   id="rect49906" /><rect
   x="-294.07355"
   y="609.38196"
   width="101.2617"
   height="30.048023"
   id="rect49908" /><rect
   x="-294.07355"
   y="609.38196"
   width="101.2617"
   height="30.048023"
   id="rect15741" /><rect
   x="-294.07355"
   y="609.38196"
   width="101.2617"
   height="30.048023"
   id="rect73835" /><rect
   x="-294.07355"
   y="609.38196"
   width="101.2617"
   height="30.048023"
   id="rect79320" /><rect
   x="-294.07355"
   y="609.38196"
   width="101.2617"
   height="30.048023"
   id="rect79338" /><rect
   x="-294.07355"
   y="609.38196"
   width="101.2617"
   height="30.048023"
   id="rect24252" /><rect
   x="-294.07355"
   y="609.38196"
   width="101.2617"
   height="30.048023"
   id="rect24592" /><rect
   x="-294.07355"
   y="609.38196"
   width="101.2617"
   height="30.048023"
   id="rect24594" /><rect
   x="-294.07355"
   y="609.38196"
   width="101.2617"
   height="30.048023"
   id="rect24596" /><rect
   x="-294.07355"
   y="609.38196"
   width="101.2617"
   height="30.048023"
   id="rect24679" /><rect
   x="-294.07355"
   y="609.38196"
   width="101.2617"
   height="30.048023"
   id="rect25099" /><rect
   x="-294.07355"
   y="609.38196"
   width="101.2617"
   height="30.048023"
   id="rect25101" /><rect
   x="-294.07355"
   y="609.38196"
   width="101.2617"
   height="30.048023"
   id="rect25103" /><rect
   x="-294.07355"
   y="609.38196"
   width="101.2617"
   height="30.048023"
   id="rect25105" /><rect
   x="205.23338"
   y="772.76605"
   width="72.820282"
   height="102.27335"
   id="rect26170" /><rect
   x="-294.07355"
   y="609.38196"
   width="101.2617"
   height="30.048023"
   id="rect26732" /><rect
   x="-294.07355"
   y="609.38196"
   width="101.2617"
   height="30.048023"
   id="rect26734" /><rect
   x="-294.07355"
   y="609.38196"
   width="101.2617"
   height="30.048023"
   id="rect26736" /><rect
   x="-294.07355"
   y="609.38196"
   width="101.2617"
   height="30.048023"
   id="rect27147" /><rect
   x="-294.07355"
   y="609.38196"
   width="101.2617"
   height="30.048023"
   id="rect27149" /><rect
   x="-294.07355"
   y="609.38196"
   width="101.2617"
   height="30.048023"
   id="rect27151" /><rect
   x="-294.07355"
   y="609.38196"
   width="101.2617"
   height="30.048023"
   id="rect27153" /><rect
   x="-294.07355"
   y="609.38196"
   width="101.2617"
   height="30.048023"
   id="rect27295" /><rect
   x="-294.07355"
   y="609.38196"
   width="101.2617"
   height="30.048023"
   id="rect27400" /><rect
   x="-294.07355"
   y="609.38196"
   width="101.2617"
   height="30.048023"
   id="rect27402" /><rect
   x="-294.07355"
   y="609.38196"
   width="101.2617"
   height="30.048023"
   id="rect27404" /><rect
   x="-294.07355"
   y="609.38196"
   width="101.2617"
   height="30.048023"
   id="rect28274" /><rect
   x="-294.07355"
   y="609.38196"
   width="101.2617"
   height="30.048023"
   id="rect29088" /><rect
   x="-294.07355"
   y="609.38196"
   width="101.2617"
   height="30.048023"
   id="rect29090" /><rect
   x="-294.07355"
   y="609.38196"
   width="101.2617"
   height="30.048023"
   id="rect29092" /><rect
   x="-294.07355"
   y="609.38196"
   width="101.2617"
   height="30.048023"
   id="rect29094" /><rect
   x="-294.07355"
   y="609.38196"
   width="101.2617"
   height="30.048023"
   id="rect29792" /><rect
   x="-294.07355"
   y="609.38196"
   width="101.2617"
   height="30.048023"
   id="rect29794" /><rect
   x="-294.07355"
   y="609.38196"
   width="101.2617"
   height="30.048023"
   id="rect29796" /><rect
   x="-294.07355"
   y="609.38196"
   width="101.2617"
   height="30.048023"
   id="rect29798" /><rect
   x="-294.07355"
   y="609.38196"
   width="101.2617"
   height="30.048023"
   id="rect31150" /><rect
   x="486.77853"
   y="154.603"
   width="298.68204"
   height="405.65573"
   id="rect31152" /><rect
   x="-294.07355"
   y="609.38196"
   width="101.2617"
   height="30.048023"
   id="rect31832" /><rect
   x="-294.07355"
   y="609.38196"
   width="101.2617"
   height="30.048023"
   id="rect31915" /><rect
   x="-294.07355"
   y="609.38196"
   width="101.2617"
   height="30.048023"
   id="rect31917" /><rect
   x="-294.07355"
   y="609.38196"
   width="101.2617"
   height="30.048023"
   id="rect32021" /><rect
   x="-294.07355"
   y="609.38196"
   width="101.2617"
   height="30.048023"
   id="rect32023" /><rect
   x="-294.07355"
   y="609.38196"
   width="101.2617"
   height="30.048023"
   id="rect71295" /><rect
   x="-294.07355"
   y="609.38196"
   width="101.2617"
   height="30.048023"
   id="rect114616" /><rect
   x="-294.07355"
   y="609.38196"
   width="101.2617"
   height="30.048023"
   id="rect114618" /><rect
   x="-294.07355"
   y="609.38196"
   width="101.2617"
   height="30.048023"
   id="rect114620" /><rect
   x="-294.07355"
   y="609.38196"
   width="101.2617"
   height="30.048023"
   id="rect114622" /><rect
   x="-294.07355"
   y="609.38196"
   width="101.2617"
   height="30.048023"
   id="rect114624" /><rect
   x="-294.07355"
   y="609.38196"
   width="101.2617"
   height="30.048023"
   id="rect114626" /><rect
   x="-294.07355"
   y="609.38196"
   width="101.2617"
   height="30.048023"
   id="rect114628" /><rect
   x="-294.07355"
   y="609.38196"
   width="101.2617"
   height="30.048023"
   id="rect114630" /><rect
   x="-294.07355"
   y="609.38196"
   width="101.2617"
   height="30.048023"
   id="rect114632" /><rect
   x="205.23338"
   y="772.76605"
   width="72.820282"
   height="102.27335"
   id="rect114634" /><rect
   x="-294.07355"
   y="609.38196"
   width="101.2617"
   height="30.048023"
   id="rect116916" /><rect
   x="-294.07355"
   y="609.38196"
   width="101.2617"
   height="30.048023"
   id="rect116918" /><rect
   x="-294.07355"
   y="609.38196"
   width="101.2617"
   height="30.048023"
   id="rect116920" /><rect
   x="-294.07355"
   y="609.38196"
   width="101.2617"
   height="30.048023"
   id="rect116922" /><rect
   x="-294.07355"
   y="609.38196"
   width="101.2617"
   height="30.048023"
   id="rect116924" /><rect
   x="-294.07355"
   y="609.38196"
   width="101.2617"
   height="30.048023"
   id="rect116926" /><rect
   x="-294.07355"
   y="609.38196"
   width="101.2617"
   height="30.048023"
   id="rect116928" /><rect
   x="-294.07355"
   y="609.38196"
   width="101.2617"
   height="30.048023"
   id="rect116930" /><rect
   x="-294.07355"
   y="609.38196"
   width="101.2617"
   height="30.048023"
   id="rect118321" /><rect
   x="-294.07355"
   y="609.38196"
   width="101.2617"
   height="30.048023"
   id="rect118323" /><rect
   x="-294.07355"
   y="609.38196"
   width="101.2617"
   height="30.048023"
   id="rect118325" /><rect
   x="-294.07355"
   y="609.38196"
   width="101.2617"
   height="30.048023"
   id="rect118327" /><rect
   x="-294.07355"
   y="609.38196"
   width="101.2617"
   height="30.048023"
   id="rect118329" /><rect
   x="-294.07355"
   y="609.38196"
   width="101.2617"
   height="30.048023"
   id="rect118331" /><rect
   x="-294.07355"
   y="609.38196"
   width="101.2617"
   height="30.048023"
   id="rect118333" /><rect
   x="-294.07355"
   y="609.38196"
   width="101.2617"
   height="30.048023"
   id="rect118335" /><rect
   x="-294.07355"
   y="609.38196"
   width="101.2617"
   height="30.048023"
   id="rect121228" /><rect
   x="-294.07355"
   y="609.38196"
   width="101.2617"
   height="30.048023"
   id="rect121230" /><rect
   x="-294.07355"
   y="609.38196"
   width="101.2617"
   height="30.048023"
   id="rect121232" /><rect
   x="-294.07355"
   y="609.38196"
   width="101.2617"
   height="30.048023"
   id="rect121234" /><rect
   x="-294.07355"
   y="609.38196"
   width="101.2617"
   height="30.048023"
   id="rect121236" /><rect
   x="486.77853"
   y="154.603"
   width="298.68204"
   height="405.65573"
   id="rect121238" /><rect
   x="-294.07355"
   y="609.38196"
   width="101.2617"
   height="30.048023"
   id="rect122830" /><rect
   x="-294.07355"
   y="609.38196"
   width="101.2617"
   height="30.048023"
   id="rect122832" /><rect
   x="-294.07355"
   y="609.38196"
   width="101.2617"
   height="30.048023"
   id="rect122834" /><rect
   x="-294.07355"
   y="609.38196"
   width="101.2617"
   height="30.048023"
   id="rect122984" /><rect
   x="-294.07355"
   y="609.38196"
   width="101.2617"
   height="30.048023"
   id="rect122986" /><rect
   x="-294.07355"
   y="609.38196"
   width="101.2617"
   height="30.048023"
   id="rect122988" /><rect
   x="-294.07355"
   y="609.38196"
   width="101.2617"
   height="30.048023"
   id="rect132628" /><rect
   x="-294.07355"
   y="609.38196"
   width="101.2617"
   height="30.048023"
   id="rect132630" /><rect
   x="-294.07355"
   y="609.38196"
   width="101.2617"
   height="30.048023"
   id="rect132632" /><rect
   x="-294.07355"
   y="609.38196"
   width="101.2617"
   height="30.048023"
   id="rect132634" /><rect
   x="-294.07355"
   y="609.38196"
   width="101.2617"
   height="30.048023"
   id="rect132636" /><rect
   x="-294.07355"
   y="609.38196"
   width="101.2617"
   height="30.048023"
   id="rect132638" /><rect
   x="-294.07355"
   y="609.38196"
   width="101.2617"
   height="30.048023"
   id="rect132640" /><rect
   x="-294.07355"
   y="609.38196"
   width="101.2617"
   height="30.048023"
   id="rect132642" /><rect
   x="-294.07355"
   y="609.38196"
   width="101.2617"
   height="30.048023"
   id="rect132644" /><rect
   x="205.23338"
   y="772.76605"
   width="72.820282"
   height="102.27335"
   id="rect132646" /><rect
   x="-294.07355"
   y="609.38196"
   width="101.2617"
   height="30.048023"
   id="rect134683" /><rect
   x="-294.07355"
   y="609.38196"
   width="101.2617"
   height="30.048023"
   id="rect134685" /><rect
   x="-294.07355"
   y="609.38196"
   width="101.2617"
   height="30.048023"
   id="rect134687" /><rect
   x="-294.07355"
   y="609.38196"
   width="101.2617"
   height="30.048023"
   id="rect134689" /><rect
   x="-294.07355"
   y="609.38196"
   width="101.2617"
   height="30.048023"
   id="rect134691" /><rect
   x="-294.07355"
   y="609.38196"
   width="101.2617"
   height="30.048023"
   id="rect134693" /><rect
   x="-294.07355"
   y="609.38196"
   width="101.2617"
   height="30.048023"
   id="rect134695" /><rect
   x="-294.07355"
   y="609.38196"
   width="101.2617"
   height="30.048023"
   id="rect134697" /><rect
   x="-294.07355"
   y="609.38196"
   width="101.2617"
   height="30.048023"
   id="rect47752" /><rect
   x="-294.07355"
   y="609.38196"
   width="101.2617"
   height="30.048023"
   id="rect47754" /><rect
   x="-294.07355"
   y="609.38196"
   width="101.2617"
   height="30.048023"
   id="rect47756" /><rect
   x="-294.07355"
   y="609.38196"
   width="101.2617"
   height="30.048023"
   id="rect47758" /><rect
   x="-294.07355"
   y="609.38196"
   width="101.2617"
   height="30.048023"
   id="rect47760" /><rect
   x="-294.07355"
   y="609.38196"
   width="101.2617"
   height="30.048023"
   id="rect47762" /><rect
   x="-294.07355"
   y="609.38196"
   width="101.2617"
   height="30.048023"
   id="rect47764" /><rect
   x="-294.07355"
   y="609.38196"
   width="101.2617"
   height="30.048023"
   id="rect47766" /><rect
   x="-294.07355"
   y="609.38196"
   width="101.2617"
   height="30.048023"
   id="rect47768" /><rect
   x="205.23338"
   y="772.76605"
   width="72.820282"
   height="102.27335"
   id="rect47770" /><rect
   x="-294.07355"
   y="609.38196"
   width="101.2617"
   height="30.048023"
   id="rect48671" /><rect
   x="-294.07355"
   y="609.38196"
   width="101.2617"
   height="30.048023"
   id="rect48673" /><rect
   x="-294.07355"
   y="609.38196"
   width="101.2617"
   height="30.048023"
   id="rect48675" /><rect
   x="-294.07355"
   y="609.38196"
   width="101.2617"
   height="30.048023"
   id="rect48677" /><rect
   x="205.23338"
   y="772.76605"
   width="72.820282"
   height="102.27335"
   id="rect49748" /><rect
   x="205.23338"
   y="772.76605"
   width="72.820282"
   height="102.27335"
   id="rect6262" /><rect
   x="205.23338"
   y="772.76605"
   width="72.820282"
   height="102.27335"
   id="rect7378" /><rect
   x="-294.07355"
   y="609.38196"
   width="101.2617"
   height="30.048023"
   id="rect10664" /><rect
   x="-294.07355"
   y="609.38196"
   width="101.2617"
   height="30.048023"
   id="rect10666" /><rect
   x="-294.07355"
   y="609.38196"
   width="101.2617"
   height="30.048023"
   id="rect10668" /><rect
   x="-294.07355"
   y="609.38196"
   width="101.2617"
   height="30.048023"
   id="rect10670" /><rect
   x="-294.07355"
   y="609.38196"
   width="101.2617"
   height="30.048023"
   id="rect10672" /><rect
   x="-294.07355"
   y="609.38196"
   width="101.2617"
   height="30.048023"
   id="rect10674" /><rect
   x="-294.07355"
   y="609.38196"
   width="101.2617"
   height="30.048023"
   id="rect10676" /><rect
   x="-294.07355"
   y="609.38196"
   width="101.2617"
   height="30.048023"
   id="rect10678" /><rect
   x="-294.07355"
   y="609.38196"
   width="101.2617"
   height="30.048023"
   id="rect10680" /><rect
   x="205.23338"
   y="772.76605"
   width="72.820282"
   height="102.27335"
   id="rect10682" /><rect
   x="-294.07355"
   y="609.38196"
   width="101.2617"
   height="30.048023"
   id="rect12148" /><rect
   x="-294.07355"
   y="609.38196"
   width="101.2617"
   height="30.048023"
   id="rect12150" /><rect
   x="-294.07355"
   y="609.38196"
   width="101.2617"
   height="30.048023"
   id="rect12152" /><rect
   x="-294.07355"
   y="609.38196"
   width="101.2617"
   height="30.048023"
   id="rect12154" /><rect
   x="-294.07355"
   y="609.38196"
   width="101.2617"
   height="30.048023"
   id="rect12156" /><rect
   x="-294.07355"
   y="609.38196"
   width="101.2617"
   height="30.048023"
   id="rect12158" /><rect
   x="-294.07355"
   y="609.38196"
   width="101.2617"
   height="30.048023"
   id="rect12160" /><rect
   x="-294.07355"
   y="609.38196"
   width="101.2617"
   height="30.048023"
   id="rect12162" /><rect
   x="-294.07355"
   y="609.38196"
   width="101.2617"
   height="30.048023"
   id="rect13367" /><rect
   x="-294.07355"
   y="609.38196"
   width="101.2617"
   height="30.048023"
   id="rect13369" /><rect
   x="-294.07355"
   y="609.38196"
   width="101.2617"
   height="30.048023"
   id="rect13371" /><rect
   x="-294.07355"
   y="609.38196"
   width="101.2617"
   height="30.048023"
   id="rect13373" /><rect
   x="-294.07355"
   y="609.38196"
   width="101.2617"
   height="30.048023"
   id="rect13375" /><rect
   x="-294.07355"
   y="609.38196"
   width="101.2617"
   height="30.048023"
   id="rect13377" /><rect
   x="-294.07355"
   y="609.38196"
   width="101.2617"
   height="30.048023"
   id="rect13379" /><rect
   x="-294.07355"
   y="609.38196"
   width="101.2617"
   height="30.048023"
   id="rect13381" /><rect
   x="-294.07355"
   y="609.38196"
   width="101.2617"
   height="30.048023"
   id="rect15401" /><rect
   x="-294.07355"
   y="609.38196"
   width="101.2617"
   height="30.048023"
   id="rect15403" /><rect
   x="-294.07355"
   y="609.38196"
   width="101.2617"
   height="30.048023"
   id="rect15405" /><rect
   x="-294.07355"
   y="609.38196"
   width="101.2617"
   height="30.048023"
   id="rect15407" /><rect
   x="-294.07355"
   y="609.38196"
   width="101.2617"
   height="30.048023"
   id="rect15409" /><rect
   x="486.77853"
   y="154.603"
   width="298.68204"
   height="405.65573"
   id="rect15411" /><rect
   x="-294.07355"
   y="609.38196"
   width="101.2617"
   height="30.048023"
   id="rect16255" /><rect
   x="-294.07355"
   y="609.38196"
   width="101.2617"
   height="30.048023"
   id="rect16257" /><rect
   x="-294.07355"
   y="609.38196"
   width="101.2617"
   height="30.048023"
   id="rect16259" /><rect
   x="-294.07355"
   y="609.38196"
   width="101.2617"
   height="30.048023"
   id="rect16376" /><rect
   x="-294.07355"
   y="609.38196"
   width="101.2617"
   height="30.048023"
   id="rect16378" /><rect
   x="-294.07355"
   y="609.38196"
   width="101.2617"
   height="30.048023"
   id="rect16380" /></defs><style
     id="style6783"
     type="text/css">
.brush0 { fill: rgb(255,255,255); }
.pen0 { stroke: rgb(0,0,0); stroke-width: 1; stroke-linejoin: round; }
.pen1 { stroke: none; }
.brush1 { fill: none; }
.pen2 { stroke: rgb(26,26,26); stroke-width: 7; stroke-linejoin: round; }
.font0 { font-weight: bold; font-size: 74px; font-family: Arial, sans-serif; }
.font1 { font-weight: bold; font-size: 16px; font-family: System, sans-serif; }
.pen3 { stroke: rgb(0,0,0); stroke-width: 3; stroke-linejoin: round; }
.brush2 { fill: rgb(0,0,0); }
.brush3 { fill: rgb(230,230,230); }
.font2 { font-weight: bold; font-size: 59px; font-family: Arial, sans-serif; }
.font3 { font-weight: bold; font-size: 59px; font-family: Arial, sans-serif; }
</style><g
     inkscape:groupmode="layer"
     id="layer11"
     inkscape:label="Back 5 - combined laser"
     style="display:inline;fill-rule:evenodd;stroke-linecap:round"
     transform="rotate(90,3839.9998,3839.9999)"><path
       id="rect16193"
       style="display:inline;fill:none;fill-rule:evenodd;stroke:#ffffff;stroke-width:40;stroke-linecap:round;stroke-linejoin:bevel"
       inkscape:label="Bounding page size for tiling in collages"
       d="M 19.999912,20.000128 H 5739.9999 V 7659.9996 H 19.999912 Z" /><path
       id="path16195"
       style="display:inline;fill:#ffffff;fill-rule:evenodd;stroke:#ff00ff;stroke-width:0.63999998;stroke-linecap:round;stroke-linejoin:bevel;stroke-dasharray:none"
       d="m 5204.9771,7340.7325 c -33.8632,-27.2798 -83.4287,-21.948 -110.7147,11.9099 -27.2864,33.8576 -21.9634,83.4235 11.8898,110.7156 33.8532,27.292 83.4205,21.978 110.7189,-11.8699 27.2985,-33.848 21.9934,-83.4156 -11.85,-110.7199 -0.095,-0.059 -0.043,-0.035 -0.043,-0.035 z"
       sodipodi:nodetypes="csssccc" /><path
       id="path16197"
       style="display:inline;fill:#ffffff;fill-rule:evenodd;stroke:#ff00ff;stroke-width:0.63999998;stroke-linecap:round;stroke-linejoin:bevel;stroke-dasharray:none"
       d="m 645.6073,221.21544 c -33.8632,-27.2798 -83.4287,-21.948 -110.7147,11.9099 -27.2864,33.8576 -21.9634,83.4235 11.8898,110.7156 33.8532,27.292 83.4205,21.978 110.7189,-11.8699 27.2985,-33.848 21.9934,-83.4156 -11.85,-110.7199 -0.095,-0.059 -0.043,-0.035 -0.043,-0.035 z"
       sodipodi:nodetypes="csssccc" /><path
       id="rect16201"
       style="display:inline;fill:none;fill-rule:evenodd;stroke:#ff00ff;stroke-width:0.63999998;stroke-linecap:round;stroke-linejoin:bevel;stroke-dasharray:none"
       inkscape:label="Outside cut"
       d="M 5598.4575,112.11498 H 153.23975 V 7567.885 H 5598.4575 Z" /><path
       d="m 4423.0515,258.48153 q 0,1.21533 -0.1213,2.066 -0.1214,0.78993 -0.4254,1.3976 -0.2433,0.54667 -0.6684,0.85067 -0.3646,0.24333 -0.9114,0.24333 h -34.757 q -1.3976,0 -2.6737,-0.91147 -1.2153,-0.9722 -1.2153,-3.342 v -72.79553 q 0,-0.486 0.2434,-0.85073 0.2433,-0.36467 0.8507,-0.54667 0.6073,-0.24333 1.6406,-0.36467 1.033,-0.182 2.4913,-0.182 1.5191,0 2.4914,0.182 1.0329,0.12134 1.6406,0.36467 0.608,0.182 0.8507,0.54667 0.2433,0.36466 0.2433,0.85073 V 253.985 h 28.1946 q 0.5466,0 0.9114,0.304 0.4254,0.24333 0.6684,0.78993 0.304,0.486 0.4254,1.3368 0.1213,0.85067 0.1213,2.06593 z"
       id="path167219"
       style="font-size:18.6667px;line-height:120%;font-family:Calibri;-inkscape-font-specification:Calibri;letter-spacing:0px;word-spacing:0px;white-space:pre;fill-rule:evenodd;stroke-width:6.66667px;stroke-linecap:butt" /><path
       d="m 4479.9266,237.761 q 0,6.31946 -2.1268,11.2414 -2.1267,4.92186 -6.0156,8.32466 -3.8889,3.342 -9.2969,5.10414 -5.3472,1.7622 -11.9097,1.7622 -3.6458,0 -6.9271,-0.54667 -3.2813,-0.486 -5.8333,-1.21527 -2.5522,-0.78993 -4.1928,-1.51906 -1.6406,-0.7292 -2.1267,-1.15454 -0.4253,-0.42533 -0.608,-0.78993 -0.182,-0.36467 -0.3647,-0.85067 -0.1213,-0.54666 -0.182,-1.33686 -0.06,-0.78994 -0.06,-1.88367 0,-1.033 0.06,-1.82293 0.1214,-0.85067 0.3647,-1.3368 0.2433,-0.54667 0.5467,-0.78994 0.3646,-0.24333 0.7899,-0.24333 0.608,0 1.8837,0.78993 1.276,0.7292 3.4028,1.64067 2.1875,0.85067 5.3472,1.6406 3.2205,0.78993 7.5955,0.78993 4.0712,0 7.474,-0.9722 3.4027,-0.9722 5.8333,-3.0382 2.4914,-2.066 3.8889,-5.16493 1.3976,-3.15973 1.3976,-7.65627 0,-3.7674 -1.2153,-6.62326 -1.1545,-2.91667 -3.6458,-4.8004 -2.4306,-1.9444 -6.198,-2.85587 -3.7674,-0.97227 -8.993,-0.97227 -3.7066,0 -6.3802,0.36467 -2.6737,0.36467 -4.9827,0.36467 -1.7014,0 -2.4305,-0.78994 -0.7292,-0.78993 -0.7292,-3.0382 v -32.0226 q 0,-2.00526 0.9114,-2.97746 0.9722,-0.9722 2.7344,-0.9722 h 34.8178 q 0.486,0 0.9114,0.304 0.486,0.24333 0.79,0.78993 0.304,0.54667 0.4253,1.39753 0.1827,0.85074 0.1827,2.00527 0,2.18747 -0.608,3.40273 -0.6074,1.21534 -1.7014,1.21534 h -29.349 v 22.05733 q 2.1267,-0.304 4.3142,-0.36467 2.2483,-0.06 5.165,-0.06 6.7448,0 11.7882,1.64067 5.0434,1.57987 8.3854,4.55727 3.4028,2.91666 5.1042,7.1094 1.7621,4.19273 1.7621,9.29686 z"
       id="path167221"
       style="font-size:18.6667px;line-height:120%;font-family:Calibri;-inkscape-font-specification:Calibri;letter-spacing:0px;word-spacing:0px;white-space:pre;fill-rule:evenodd;stroke-width:6.66667px;stroke-linecap:butt" /><path
       d="m 4511.3416,214.42766 q 0,1.94447 -0.304,3.28127 -0.2434,1.3368 -1.033,2.18747 -0.7292,0.78993 -1.9445,1.15453 -1.2153,0.304 -3.0989,0.304 -1.9445,0 -3.1598,-0.304 -1.2152,-0.36467 -1.9444,-1.15453 -0.7292,-0.85067 -1.033,-2.18747 -0.2427,-1.3368 -0.2427,-3.28127 0,-2.066 0.2427,-3.4028 0.304,-1.39753 1.033,-2.18746 0.7292,-0.85074 1.9444,-1.15454 1.2153,-0.36466 3.1598,-0.36466 1.8836,0 3.0989,0.36466 1.2153,0.304 1.9445,1.15454 0.7899,0.78993 1.033,2.18746 0.304,1.3368 0.304,3.4028 z m 0,42.1702 q 0,2.0052 -0.304,3.342 -0.2434,1.3368 -1.033,2.18754 -0.7292,0.78993 -1.9445,1.09373 -1.2153,0.36467 -3.0989,0.36467 -1.9445,0 -3.1598,-0.36467 -1.2152,-0.304 -1.9444,-1.09373 -0.7292,-0.85074 -1.033,-2.18754 -0.2427,-1.3368 -0.2427,-3.342 0,-2.0052 0.2427,-3.342 0.304,-1.3976 1.033,-2.18753 0.7292,-0.78993 1.9444,-1.15453 1.2153,-0.36467 3.1598,-0.36467 1.8836,0 3.0989,0.36467 1.2153,0.36466 1.9445,1.15453 0.7899,0.78993 1.033,2.18753 0.304,1.3368 0.304,3.342 z"
       id="path167223"
       style="font-size:18.6667px;line-height:120%;font-family:Calibri;-inkscape-font-specification:Calibri;letter-spacing:0px;word-spacing:0px;white-space:pre;fill-rule:evenodd;stroke-width:6.66667px;stroke-linecap:butt" /><path
       d="m 4582.8,240.4954 q 0,3.7066 -0.9722,6.86633 -0.9114,3.099 -2.6128,5.59027 -1.7014,2.49133 -4.132,4.37506 -2.3698,1.88367 -5.408,3.15974 -2.9774,1.276 -6.441,1.9444 -3.4028,0.60733 -7.8385,0.60733 h -20.5383 q -1.3975,0 -2.6736,-0.91147 -1.2152,-0.9722 -1.2152,-3.342 V 188.6634 q 0,-2.3698 1.2152,-3.28127 1.2761,-0.9722 2.6736,-0.9722 h 17.8646 q 7.0487,0 11.5452,1.3368 4.4966,1.3368 7.474,3.88887 3.0382,2.55206 4.5573,6.25873 1.5191,3.7066 1.5191,8.3854 0,2.79513 -0.6684,5.34727 -0.6684,2.55206 -2.0052,4.73953 -1.2761,2.12673 -3.2813,3.82813 -1.9444,1.7014 -4.4965,2.7952 3.2205,0.60734 6.0156,2.24827 2.7952,1.5798 4.8612,4.07113 2.1267,2.49134 3.342,5.8334 1.2152,3.342 1.2152,7.3524 z m -15.7378,-35.18234 q 0,-2.85593 -0.79,-5.16493 -0.7899,-2.30907 -2.4913,-3.88893 -1.7014,-1.6406 -4.4357,-2.49134 -2.7344,-0.85066 -7.231,-0.85066 h -10.816 v 25.46013 h 11.9098 q 4.0712,0 6.5625,-1.033 2.4913,-1.09373 4.1319,-2.85593 1.6406,-1.82287 2.3698,-4.19267 0.79,-2.4306 0.79,-4.98267 z m 4.7396,35.79 q 0,-3.52433 -1.1546,-6.19793 -1.0937,-2.6736 -3.2812,-4.49653 -2.1268,-1.82294 -5.408,-2.7344 -3.2205,-0.9722 -8.1424,-0.9722 h -12.5174 v 27.7084 h 15.191 q 3.5851,0 6.2587,-0.85074 2.6737,-0.85066 4.6789,-2.49133 2.0659,-1.7014 3.2204,-4.19273 1.1546,-2.49127 1.1546,-5.77254 z"
       id="path167225"
       style="font-size:18.6667px;line-height:120%;font-family:Calibri;-inkscape-font-specification:Calibri;letter-spacing:0px;word-spacing:0px;white-space:pre;fill-rule:evenodd;stroke-width:6.66667px;stroke-linecap:butt" /><path
       d="m 4644.5363,258.90693 q 0,1.15447 -0.1827,1.9444 -0.182,0.78993 -0.486,1.27607 -0.304,0.486 -0.7292,0.72913 -0.3646,0.182 -0.7899,0.182 h -41.0765 q -0.4253,0 -0.7899,-0.182 -0.3647,-0.24333 -0.7291,-0.72913 -0.304,-0.486 -0.486,-1.27607 -0.182,-0.78993 -0.182,-1.9444 0,-1.0938 0.182,-1.88373 0.182,-0.78994 0.4253,-1.276 0.304,-0.54667 0.6684,-0.78994 0.4253,-0.304 0.9115,-0.304 h 16.4062 v -59.79173 l -15.191,9.0538 q -1.1544,0.608 -1.8836,0.7292 -0.6684,0.12133 -1.0938,-0.24333 -0.4253,-0.42534 -0.608,-1.3368 -0.1213,-0.91147 -0.1213,-2.30907 0,-1.03293 0.06,-1.76213 0.1213,-0.7292 0.304,-1.21527 0.1827,-0.486 0.486,-0.85073 0.3647,-0.36467 0.9115,-0.72914 l 18.1076,-11.60593 q 0.2434,-0.182 0.6074,-0.304 0.3646,-0.12133 0.9114,-0.24333 0.5467,-0.12134 1.2761,-0.12134 0.7291,-0.06 1.8229,-0.06 1.4584,0 2.4306,0.12134 0.9722,0.12133 1.5191,0.36466 0.5467,0.182 0.7291,0.54667 0.1827,0.304 0.1827,0.6684 v 69.08867 h 14.2187 q 0.486,0 0.9115,0.304 0.4253,0.24266 0.6684,0.78993 0.304,0.486 0.4253,1.276 0.1827,0.78993 0.1827,1.88373 z"
       id="path167227"
       style="font-size:18.6667px;line-height:120%;font-family:Calibri;-inkscape-font-specification:Calibri;letter-spacing:0px;word-spacing:0px;white-space:pre;fill-rule:evenodd;stroke-width:6.66667px;stroke-linecap:butt" /><path
       d="m 4685.1874,232.35306 q 0,2.36974 -0.5467,3.2812 -0.5467,0.91147 -1.5799,0.91147 h -25.3993 q -1.0937,0 -1.6406,-0.91147 -0.5467,-0.9722 -0.5467,-3.2812 0,-2.30906 0.5467,-3.22053 0.5467,-0.91147 1.6406,-0.91147 h 25.3993 q 0.486,0 0.8508,0.182 0.4253,0.182 0.6684,0.72914 0.304,0.486 0.4253,1.27606 0.182,0.78994 0.182,1.94447 z"
       id="path167229"
       style="font-size:18.6667px;line-height:120%;font-family:Calibri;-inkscape-font-specification:Calibri;letter-spacing:0px;word-spacing:0px;white-space:pre;fill-rule:evenodd;stroke-width:6.66667px;stroke-linecap:butt" /><path
       d="m 4745.526,258.54233 q 0,1.09373 -0.182,1.94447 -0.1213,0.85066 -0.4253,1.45833 -0.2433,0.54667 -0.7292,0.85067 -0.4253,0.24333 -0.9722,0.24333 h -43.4463 q -0.8507,0 -1.5191,-0.182 -0.6073,-0.24333 -1.0937,-0.72913 -0.4254,-0.486 -0.6684,-1.3976 -0.182,-0.91147 -0.182,-2.24827 0,-1.21527 0.06,-2.12673 0.1213,-0.91147 0.4253,-1.57987 0.304,-0.72913 0.7292,-1.39753 0.486,-0.7292 1.2153,-1.51914 l 15.2517,-16.1632 q 5.2865,-5.59026 8.4462,-10.02606 3.2205,-4.4358 4.9219,-8.0816 1.7622,-3.64587 2.309,-6.62327 0.5467,-2.97747 0.5467,-5.59033 0,-2.6128 -0.8507,-4.92187 -0.8507,-2.3698 -2.4913,-4.13193 -1.5799,-1.7622 -4.0104,-2.79514 -2.4306,-1.033 -5.5903,-1.033 -3.7066,0 -6.684,1.033 -2.9167,1.03294 -5.165,2.24827 -2.1875,1.21527 -3.7066,2.24827 -1.4584,1.03293 -2.1875,1.03293 -0.4253,0 -0.7899,-0.24333 -0.304,-0.24334 -0.5467,-0.78994 -0.1827,-0.54666 -0.304,-1.45833 -0.1213,-0.91147 -0.1213,-2.18753 0,-0.91147 0.06,-1.57987 0.06,-0.6684 0.182,-1.15453 0.1826,-0.486 0.4253,-0.91147 0.2433,-0.42533 0.9722,-1.03293 0.7292,-0.6684 2.4913,-1.7622 1.823,-1.09374 4.4966,-2.12674 2.7344,-1.09373 5.9548,-1.82293 3.2813,-0.72913 6.8664,-0.72913 5.7118,0 9.9652,1.6406 4.3143,1.57986 7.1094,4.375 2.856,2.7952 4.2535,6.5018 1.3976,3.7066 1.3976,7.89926 0,3.7674 -0.6684,7.53474 -0.6684,3.70666 -2.8559,8.08166 -2.1268,4.3142 -6.198,9.66147 -4.0711,5.28647 -10.8159,12.21353 l -12.4567,13.00354 h 34.2102 q 0.486,0 0.9114,0.304 0.486,0.24333 0.79,0.78993 0.3646,0.54667 0.486,1.3976 0.182,0.78993 0.182,1.88367 z"
       id="path167231"
       style="font-size:18.6667px;line-height:120%;font-family:Calibri;-inkscape-font-specification:Calibri;letter-spacing:0px;word-spacing:0px;white-space:pre;fill-rule:evenodd;stroke-width:6.66667px;stroke-linecap:butt" /><path
       d="m 4924.0431,250.43073 q 0,1.21533 -0.1213,2.066 -0.1214,0.78993 -0.4254,1.3976 -0.2433,0.54667 -0.6684,0.85067 -0.3646,0.24333 -0.9114,0.24333 h -34.757 q -1.3976,0 -2.6737,-0.91147 -1.2153,-0.9722 -1.2153,-3.342 v -72.79553 q 0,-0.486 0.2434,-0.85073 0.2433,-0.36467 0.8507,-0.54667 0.6073,-0.24333 1.6406,-0.36467 1.033,-0.182 2.4913,-0.182 1.5191,0 2.4914,0.182 1.0329,0.12134 1.6406,0.36467 0.608,0.182 0.8507,0.54667 0.2433,0.36466 0.2433,0.85073 v 67.99487 h 28.1946 q 0.5466,0 0.9114,0.304 0.4254,0.24333 0.6684,0.78993 0.304,0.486 0.4254,1.3368 0.1213,0.85067 0.1213,2.06593 z"
       id="path167234"
       style="font-size:18.6667px;line-height:120%;font-family:Calibri;-inkscape-font-specification:Calibri;letter-spacing:0px;word-spacing:0px;white-space:pre;fill-rule:evenodd;stroke-width:6.66667px;stroke-linecap:butt" /><path
       d="m 4983.288,229.52793 q 0,5.16493 -1.5799,10.02607 -1.5799,4.80033 -4.8611,8.50693 -3.2812,3.64587 -8.3246,5.89413 -5.0435,2.18754 -11.9098,2.18754 -4.9219,0 -8.6892,-1.21534 -3.7674,-1.21526 -6.5626,-3.46353 -2.7951,-2.24827 -4.6788,-5.52953 -1.8229,-3.28127 -2.9774,-7.47394 -1.0938,-4.19273 -1.5799,-9.1754 -0.486,-4.9826 -0.486,-10.69446 0,-5.0434 0.5467,-10.20834 0.5466,-5.16493 1.9444,-9.96526 1.3976,-4.8004 3.7674,-8.99307 2.4305,-4.25353 6.0156,-7.35247 3.6458,-3.15973 8.6892,-4.98266 5.0434,-1.82294 11.7275,-1.82294 2.2483,0 4.5573,0.304 2.309,0.24334 4.2535,0.72914 1.9444,0.42533 3.2812,0.97226 1.3369,0.54667 1.7622,0.9114 0.4253,0.304 0.6073,0.7292 0.2434,0.36467 0.3647,0.85067 0.1213,0.42533 0.182,1.033 0.06,0.54667 0.06,1.3976 0,1.09373 -0.06,1.88367 0,0.78993 -0.2433,1.27606 -0.182,0.486 -0.5467,0.72914 -0.304,0.24333 -0.8507,0.24333 -0.6684,0 -1.823,-0.42533 -1.1544,-0.42534 -2.7951,-0.91147 -1.6406,-0.54667 -4.0104,-0.9722 -2.3091,-0.42533 -5.408,-0.42533 -5.6511,0 -9.7223,2.30906 -4.0712,2.309 -6.684,6.19794 -2.5521,3.88886 -3.8281,9.0538 -1.2153,5.1042 -1.3976,10.69446 1.5799,-0.91146 3.5243,-1.82293 2.0052,-0.9114 4.3142,-1.6406 2.3698,-0.72913 4.9827,-1.15453 2.6129,-0.486 5.5903,-0.486 6.3802,0 10.7552,1.76213 4.375,1.7014 7.0486,4.80033 2.7344,3.0382 3.889,7.23094 1.1544,4.13193 1.1544,8.99306 z m -10.573,0.9722 q 0,-3.52427 -0.7291,-6.3802 -0.6684,-2.91667 -2.3091,-4.92187 -1.6406,-2.0052 -4.375,-3.099 -2.7343,-1.09373 -6.7448,-1.09373 -2.2482,0 -4.4965,0.42533 -2.2483,0.36467 -4.375,1.0938 -2.066,0.6684 -4.0104,1.6406 -1.8837,0.91147 -3.4636,2.0052 0,7.8386 0.9723,13.12507 1.033,5.28647 2.9166,8.50693 1.9445,3.15974 4.8004,4.55734 2.8559,1.3368 6.684,1.3368 3.8889,0 6.7448,-1.45834 2.8559,-1.45833 4.7396,-3.88893 1.8837,-2.49133 2.7344,-5.52953 0.9114,-3.09894 0.9114,-6.31947 z"
       id="path167236"
       style="font-size:18.6667px;line-height:120%;font-family:Calibri;-inkscape-font-specification:Calibri;letter-spacing:0px;word-spacing:0px;white-space:pre;fill-rule:evenodd;stroke-width:6.66667px;stroke-linecap:butt" /><path
       d="m 5012.3332,206.37686 q 0,1.94447 -0.304,3.28127 -0.2434,1.3368 -1.033,2.18747 -0.7292,0.78993 -1.9445,1.15453 -1.2153,0.304 -3.0989,0.304 -1.9445,0 -3.1598,-0.304 -1.2152,-0.36467 -1.9444,-1.15453 -0.7292,-0.85067 -1.033,-2.18747 -0.2427,-1.3368 -0.2427,-3.28127 0,-2.066 0.2427,-3.4028 0.304,-1.39753 1.033,-2.18746 0.7292,-0.85074 1.9444,-1.15454 1.2153,-0.36466 3.1598,-0.36466 1.8836,0 3.0989,0.36466 1.2153,0.304 1.9445,1.15454 0.7899,0.78993 1.033,2.18746 0.304,1.3368 0.304,3.4028 z m 0,42.1702 q 0,2.0052 -0.304,3.342 -0.2434,1.3368 -1.033,2.18754 -0.7292,0.78993 -1.9445,1.09373 -1.2153,0.36467 -3.0989,0.36467 -1.9445,0 -3.1598,-0.36467 -1.2152,-0.304 -1.9444,-1.09373 -0.7292,-0.85074 -1.033,-2.18754 -0.2427,-1.3368 -0.2427,-3.342 0,-2.0052 0.2427,-3.342 0.304,-1.3976 1.033,-2.18753 0.7292,-0.78993 1.9444,-1.15453 1.2153,-0.36467 3.1598,-0.36467 1.8836,0 3.0989,0.36467 1.2153,0.36466 1.9445,1.15453 0.7899,0.78993 1.033,2.18753 0.304,1.3368 0.304,3.342 z"
       id="path167238"
       style="font-size:18.6667px;line-height:120%;font-family:Calibri;-inkscape-font-specification:Calibri;letter-spacing:0px;word-spacing:0px;white-space:pre;fill-rule:evenodd;stroke-width:6.66667px;stroke-linecap:butt" /><path
       d="m 5083.7916,232.4446 q 0,3.7066 -0.9722,6.86633 -0.9114,3.099 -2.6128,5.59027 -1.7014,2.49133 -4.132,4.37506 -2.3698,1.88367 -5.408,3.15974 -2.9774,1.276 -6.441,1.9444 -3.4028,0.60733 -7.8385,0.60733 h -20.5383 q -1.3975,0 -2.6736,-0.91147 -1.2152,-0.9722 -1.2152,-3.342 V 180.6126 q 0,-2.3698 1.2152,-3.28127 1.2761,-0.9722 2.6736,-0.9722 h 17.8646 q 7.0487,0 11.5452,1.3368 4.4966,1.3368 7.474,3.88887 3.0382,2.55206 4.5573,6.25873 1.5191,3.7066 1.5191,8.3854 0,2.79513 -0.6684,5.34727 -0.6684,2.55206 -2.0052,4.73953 -1.2761,2.12673 -3.2813,3.82813 -1.9444,1.7014 -4.4965,2.7952 3.2205,0.60734 6.0156,2.24827 2.7952,1.5798 4.8612,4.07113 2.1267,2.49134 3.342,5.8334 1.2152,3.342 1.2152,7.3524 z m -15.7378,-35.18234 q 0,-2.85593 -0.79,-5.16493 -0.7899,-2.30907 -2.4913,-3.88893 -1.7014,-1.6406 -4.4357,-2.49134 -2.7344,-0.85066 -7.231,-0.85066 h -10.816 v 25.46013 h 11.9098 q 4.0712,0 6.5625,-1.033 2.4913,-1.09373 4.1319,-2.85593 1.6406,-1.82287 2.3698,-4.19267 0.79,-2.4306 0.79,-4.98267 z m 4.7396,35.79 q 0,-3.52433 -1.1546,-6.19793 -1.0937,-2.6736 -3.2812,-4.49653 -2.1268,-1.82294 -5.408,-2.7344 -3.2205,-0.9722 -8.1424,-0.9722 h -12.5174 v 27.7084 h 15.191 q 3.5851,0 6.2587,-0.85074 2.6737,-0.85066 4.6789,-2.49133 2.0659,-1.7014 3.2204,-4.19273 1.1546,-2.49127 1.1546,-5.77254 z"
       id="path167240"
       style="font-size:18.6667px;line-height:120%;font-family:Calibri;-inkscape-font-specification:Calibri;letter-spacing:0px;word-spacing:0px;white-space:pre;fill-rule:evenodd;stroke-width:6.66667px;stroke-linecap:butt" /><path
       d="m 5145.5279,250.85613 q 0,1.15447 -0.1827,1.9444 -0.182,0.78993 -0.486,1.27607 -0.304,0.486 -0.7292,0.72913 -0.3646,0.182 -0.7899,0.182 h -41.0765 q -0.4253,0 -0.7899,-0.182 -0.3647,-0.24333 -0.7291,-0.72913 -0.304,-0.486 -0.486,-1.27607 -0.182,-0.78993 -0.182,-1.9444 0,-1.0938 0.182,-1.88373 0.182,-0.78994 0.4253,-1.276 0.304,-0.54667 0.6684,-0.78994 0.4253,-0.304 0.9115,-0.304 h 16.4062 v -59.79173 l -15.191,9.0538 q -1.1544,0.608 -1.8836,0.7292 -0.6684,0.12133 -1.0938,-0.24333 -0.4253,-0.42534 -0.608,-1.3368 -0.1213,-0.91147 -0.1213,-2.30907 0,-1.03293 0.06,-1.76213 0.1213,-0.7292 0.304,-1.21527 0.1827,-0.486 0.486,-0.85073 0.3647,-0.36467 0.9115,-0.72914 l 18.1076,-11.60593 q 0.2434,-0.182 0.6074,-0.304 0.3646,-0.12133 0.9114,-0.24333 0.5467,-0.12134 1.2761,-0.12134 0.7291,-0.06 1.8229,-0.06 1.4584,0 2.4306,0.12134 0.9722,0.12133 1.5191,0.36466 0.5467,0.182 0.7291,0.54667 0.1827,0.304 0.1827,0.6684 v 69.08867 h 14.2187 q 0.486,0 0.9115,0.304 0.4253,0.24266 0.6684,0.78993 0.304,0.486 0.4253,1.276 0.1827,0.78993 0.1827,1.88373 z"
       id="path167242"
       style="font-size:18.6667px;line-height:120%;font-family:Calibri;-inkscape-font-specification:Calibri;letter-spacing:0px;word-spacing:0px;white-space:pre;fill-rule:evenodd;stroke-width:6.66667px;stroke-linecap:butt" /><path
       d="m 5186.179,224.30226 q 0,2.36974 -0.5467,3.2812 -0.5467,0.91147 -1.5799,0.91147 h -25.3993 q -1.0937,0 -1.6406,-0.91147 -0.5467,-0.9722 -0.5467,-3.2812 0,-2.30906 0.5467,-3.22053 0.5467,-0.91147 1.6406,-0.91147 h 25.3993 q 0.486,0 0.8508,0.182 0.4253,0.182 0.6684,0.72914 0.304,0.486 0.4253,1.27606 0.182,0.78994 0.182,1.94447 z"
       id="path167244"
       style="font-size:18.6667px;line-height:120%;font-family:Calibri;-inkscape-font-specification:Calibri;letter-spacing:0px;word-spacing:0px;white-space:pre;fill-rule:evenodd;stroke-width:6.66667px;stroke-linecap:butt" /><path
       d="m 5246.7,250.85613 q 0,1.15447 -0.1827,1.9444 -0.182,0.78993 -0.486,1.27607 -0.304,0.486 -0.7291,0.72913 -0.3647,0.182 -0.79,0.182 h -41.0764 q -0.4254,0 -0.79,-0.182 -0.3646,-0.24333 -0.7291,-0.72913 -0.304,-0.486 -0.486,-1.27607 -0.1827,-0.78993 -0.1827,-1.9444 0,-1.0938 0.1827,-1.88373 0.182,-0.78994 0.4253,-1.276 0.304,-0.54667 0.6684,-0.78994 0.4254,-0.304 0.9115,-0.304 h 16.4063 v -59.79173 l -15.191,9.0538 q -1.1545,0.608 -1.8837,0.7292 -0.6684,0.12133 -1.0937,-0.24333 -0.4254,-0.42534 -0.6074,-1.3368 -0.1213,-0.91147 -0.1213,-2.30907 0,-1.03293 0.06,-1.76213 0.1213,-0.7292 0.304,-1.21527 0.182,-0.486 0.486,-0.85073 0.3647,-0.36467 0.9115,-0.72914 l 18.1076,-11.60593 q 0.2434,-0.182 0.6074,-0.304 0.3646,-0.12133 0.9114,-0.24333 0.5467,-0.12134 1.2761,-0.12134 0.7291,-0.06 1.8229,-0.06 1.4584,0 2.4306,0.12134 0.9722,0.12133 1.519,0.36466 0.5467,0.182 0.7292,0.54667 0.182,0.304 0.182,0.6684 v 69.08867 h 14.2188 q 0.486,0 0.9115,0.304 0.4253,0.24266 0.6684,0.78993 0.304,0.486 0.4253,1.276 0.1827,0.78993 0.1827,1.88373 z"
       id="path167246"
       style="font-size:18.6667px;line-height:120%;font-family:Calibri;-inkscape-font-specification:Calibri;letter-spacing:0px;word-spacing:0px;white-space:pre;fill-rule:evenodd;stroke-width:6.66667px;stroke-linecap:butt" /><path
       style="display:inline;fill:none;fill-opacity:1;fill-rule:evenodd;stroke:#000000;stroke-width:5.03936;stroke-linecap:butt;stroke-linejoin:miter;stroke-miterlimit:4;stroke-dasharray:none;stroke-dashoffset:0;stroke-opacity:1"
       d="m 5520.7765,6945.2398 v 732.1398"
       id="path16213"
       sodipodi:nodetypes="cc" /><path
       style="display:inline;fill:none;fill-opacity:1;fill-rule:evenodd;stroke:#000000;stroke-width:5.03936;stroke-linecap:butt;stroke-linejoin:miter;stroke-miterlimit:4;stroke-dasharray:none;stroke-dashoffset:0;stroke-opacity:1"
       d="M 239.11667,1.4930173 V 711.56707"
       id="path16215"
       sodipodi:nodetypes="cc" /><path
       style="display:inline;fill:none;fill-opacity:1;fill-rule:evenodd;stroke:#000000;stroke-width:5.03936;stroke-linecap:butt;stroke-linejoin:miter;stroke-miterlimit:4;stroke-dasharray:none;stroke-dashoffset:0;stroke-opacity:1"
       d="M 5523.1495,0.92495483 V 699.12152"
       id="path16217"
       sodipodi:nodetypes="cc" /><path
       style="display:inline;fill:none;fill-opacity:1;fill-rule:evenodd;stroke:#000000;stroke-width:5.03936;stroke-linecap:butt;stroke-linejoin:miter;stroke-miterlimit:4;stroke-dasharray:none;stroke-dashoffset:0;stroke-opacity:1"
       d="m 236.85037,6855.6013 v 823.4735"
       id="path16219"
       sodipodi:nodetypes="cc" /><path
       style="display:inline;fill:none;fill-opacity:1;fill-rule:evenodd;stroke:#000000;stroke-width:5.03937;stroke-linecap:butt;stroke-linejoin:miter;stroke-miterlimit:4;stroke-dasharray:none;stroke-dashoffset:0;stroke-opacity:1"
       d="M 505.51264,491.33857 H 48.377689"
       id="path16223"
       sodipodi:nodetypes="cc" /><path
       style="display:inline;fill:none;fill-opacity:1;fill-rule:evenodd;stroke:#000000;stroke-width:5.03936;stroke-linecap:butt;stroke-linejoin:miter;stroke-miterlimit:4;stroke-dasharray:none;stroke-dashoffset:0;stroke-opacity:1"
       d="M 5711.6221,493.62224 H 5312.7985"
       id="path16225"
       sodipodi:nodetypes="cc" /><path
       style="display:inline;fill:none;fill-opacity:1;fill-rule:evenodd;stroke:#000000;stroke-width:5.03936;stroke-linecap:butt;stroke-linejoin:miter;stroke-miterlimit:4;stroke-dasharray:none;stroke-dashoffset:0;stroke-opacity:1"
       d="M 5711.6221,7188.6612 H 5299.0793"
       id="path16227"
       sodipodi:nodetypes="cc" /><path
       style="display:inline;fill:none;fill-opacity:1;fill-rule:evenodd;stroke:#000000;stroke-width:5.03936;stroke-linecap:butt;stroke-linejoin:miter;stroke-miterlimit:4;stroke-dasharray:none;stroke-dashoffset:0;stroke-opacity:1"
       d="M 451.25268,7188.1755 H 48.377687"
       id="path16229"
       sodipodi:nodetypes="cc" /><path
       id="rect16241"
       style="display:inline;fill:none;fill-rule:evenodd;stroke:#000000;stroke-width:37.7952;stroke-linecap:round"
       d="M 531.85461,633.70081 H 5228.1452 c 84.5637,0 152.6421,68.07835 152.6421,152.64205 V 6893.6569 c 0,84.5637 -68.0784,152.6421 -152.6421,152.6421 H 531.85461 c -84.5637,0 -152.64206,-68.0784 -152.64206,-152.6421 V 786.34286 c 0,-84.5637 68.07836,-152.64205 152.64206,-152.64205 z" /><path
       d="m 4427.7106,396.38043 q 0,1.21533 -0.1213,2.066 -0.1214,0.78993 -0.4254,1.3976 -0.2433,0.54667 -0.6684,0.85067 -0.3646,0.24333 -0.9114,0.24333 h -34.757 q -1.3976,0 -2.6737,-0.91147 -1.2153,-0.9722 -1.2153,-3.342 v -72.79553 q 0,-0.486 0.2434,-0.85073 0.2433,-0.36467 0.8507,-0.54667 0.6073,-0.24333 1.6406,-0.36467 1.033,-0.182 2.4913,-0.182 1.5191,0 2.4914,0.182 1.0329,0.12134 1.6406,0.36467 0.608,0.182 0.8507,0.54667 0.2433,0.36466 0.2433,0.85073 v 67.99487 h 28.1946 q 0.5466,0 0.9114,0.304 0.4254,0.24333 0.6684,0.78993 0.304,0.486 0.4254,1.3368 0.1213,0.85067 0.1213,2.06593 z"
       id="path167250"
       style="font-size:18.6667px;line-height:120%;font-family:Calibri;-inkscape-font-specification:Calibri;letter-spacing:0px;word-spacing:0px;white-space:pre;fill-rule:evenodd;stroke-width:6.66667px;stroke-linecap:butt" /><path
       d="m 4484.5857,375.6599 q 0,6.31946 -2.1268,11.2414 -2.1267,4.92186 -6.0156,8.32466 -3.8889,3.342 -9.2969,5.10414 -5.3472,1.7622 -11.9097,1.7622 -3.6458,0 -6.9271,-0.54667 -3.2813,-0.486 -5.8333,-1.21527 -2.5522,-0.78993 -4.1928,-1.51906 -1.6406,-0.7292 -2.1267,-1.15454 -0.4253,-0.42533 -0.608,-0.78993 -0.182,-0.36467 -0.3647,-0.85067 -0.1213,-0.54666 -0.182,-1.33686 -0.06,-0.78994 -0.06,-1.88367 0,-1.033 0.06,-1.82293 0.1214,-0.85067 0.3647,-1.3368 0.2433,-0.54667 0.5467,-0.78994 0.3646,-0.24333 0.7899,-0.24333 0.608,0 1.8837,0.78993 1.276,0.7292 3.4028,1.64067 2.1875,0.85067 5.3472,1.6406 3.2205,0.78993 7.5955,0.78993 4.0712,0 7.474,-0.9722 3.4027,-0.9722 5.8333,-3.0382 2.4914,-2.066 3.8889,-5.16493 1.3976,-3.15973 1.3976,-7.65627 0,-3.7674 -1.2153,-6.62326 -1.1545,-2.91667 -3.6458,-4.8004 -2.4306,-1.9444 -6.198,-2.85587 -3.7674,-0.97227 -8.993,-0.97227 -3.7066,0 -6.3802,0.36467 -2.6737,0.36467 -4.9827,0.36467 -1.7014,0 -2.4305,-0.78994 -0.7292,-0.78993 -0.7292,-3.0382 v -32.0226 q 0,-2.00526 0.9114,-2.97746 0.9722,-0.9722 2.7344,-0.9722 h 34.8178 q 0.486,0 0.9114,0.304 0.486,0.24333 0.79,0.78993 0.304,0.54667 0.4253,1.39753 0.1827,0.85074 0.1827,2.00527 0,2.18747 -0.608,3.40273 -0.6074,1.21534 -1.7014,1.21534 h -29.349 v 22.05733 q 2.1267,-0.304 4.3142,-0.36467 2.2483,-0.06 5.165,-0.06 6.7448,0 11.7882,1.64067 5.0434,1.57987 8.3854,4.55727 3.4028,2.91666 5.1042,7.1094 1.7621,4.19273 1.7621,9.29686 z"
       id="path167252"
       style="font-size:18.6667px;line-height:120%;font-family:Calibri;-inkscape-font-specification:Calibri;letter-spacing:0px;word-spacing:0px;white-space:pre;fill-rule:evenodd;stroke-width:6.66667px;stroke-linecap:butt" /><path
       d="m 4516.0007,352.32656 q 0,1.94447 -0.304,3.28127 -0.2434,1.3368 -1.033,2.18747 -0.7292,0.78993 -1.9445,1.15453 -1.2153,0.304 -3.0989,0.304 -1.9445,0 -3.1598,-0.304 -1.2152,-0.36467 -1.9444,-1.15453 -0.7292,-0.85067 -1.033,-2.18747 -0.2427,-1.3368 -0.2427,-3.28127 0,-2.066 0.2427,-3.4028 0.304,-1.39753 1.033,-2.18746 0.7292,-0.85074 1.9444,-1.15454 1.2153,-0.36466 3.1598,-0.36466 1.8836,0 3.0989,0.36466 1.2153,0.304 1.9445,1.15454 0.7899,0.78993 1.033,2.18746 0.304,1.3368 0.304,3.4028 z m 0,42.1702 q 0,2.0052 -0.304,3.342 -0.2434,1.3368 -1.033,2.18754 -0.7292,0.78993 -1.9445,1.09373 -1.2153,0.36467 -3.0989,0.36467 -1.9445,0 -3.1598,-0.36467 -1.2152,-0.304 -1.9444,-1.09373 -0.7292,-0.85074 -1.033,-2.18754 -0.2427,-1.3368 -0.2427,-3.342 0,-2.0052 0.2427,-3.342 0.304,-1.3976 1.033,-2.18753 0.7292,-0.78993 1.9444,-1.15453 1.2153,-0.36467 3.1598,-0.36467 1.8836,0 3.0989,0.36467 1.2153,0.36466 1.9445,1.15453 0.7899,0.78993 1.033,2.18753 0.304,1.3368 0.304,3.342 z"
       id="path167254"
       style="font-size:18.6667px;line-height:120%;font-family:Calibri;-inkscape-font-specification:Calibri;letter-spacing:0px;word-spacing:0px;white-space:pre;fill-rule:evenodd;stroke-width:6.66667px;stroke-linecap:butt" /><path
       d="m 4587.4591,378.3943 q 0,3.7066 -0.9722,6.86633 -0.9114,3.099 -2.6128,5.59027 -1.7014,2.49133 -4.132,4.37506 -2.3698,1.88367 -5.408,3.15974 -2.9774,1.276 -6.441,1.9444 -3.4028,0.60733 -7.8385,0.60733 h -20.5383 q -1.3975,0 -2.6736,-0.91147 -1.2152,-0.9722 -1.2152,-3.342 V 326.5623 q 0,-2.3698 1.2152,-3.28127 1.2761,-0.9722 2.6736,-0.9722 h 17.8646 q 7.0487,0 11.5452,1.3368 4.4966,1.3368 7.474,3.88887 3.0382,2.55206 4.5573,6.25873 1.5191,3.7066 1.5191,8.3854 0,2.79513 -0.6684,5.34727 -0.6684,2.55206 -2.0052,4.73953 -1.2761,2.12673 -3.2813,3.82813 -1.9444,1.7014 -4.4965,2.7952 3.2205,0.60734 6.0156,2.24827 2.7952,1.5798 4.8612,4.07113 2.1267,2.49134 3.342,5.8334 1.2152,3.342 1.2152,7.3524 z m -15.7378,-35.18234 q 0,-2.85593 -0.79,-5.16493 -0.7899,-2.30907 -2.4913,-3.88893 -1.7014,-1.6406 -4.4357,-2.49134 -2.7344,-0.85066 -7.231,-0.85066 h -10.816 v 25.46013 h 11.9098 q 4.0712,0 6.5625,-1.033 2.4913,-1.09373 4.1319,-2.85593 1.6406,-1.82287 2.3698,-4.19267 0.79,-2.4306 0.79,-4.98267 z m 4.7396,35.79 q 0,-3.52433 -1.1546,-6.19793 -1.0937,-2.6736 -3.2812,-4.49653 -2.1268,-1.82294 -5.408,-2.7344 -3.2205,-0.9722 -8.1424,-0.9722 h -12.5174 v 27.7084 h 15.191 q 3.5851,0 6.2587,-0.85074 2.6737,-0.85066 4.6789,-2.49133 2.0659,-1.7014 3.2204,-4.19273 1.1546,-2.49127 1.1546,-5.77254 z"
       id="path167256"
       style="font-size:18.6667px;line-height:120%;font-family:Calibri;-inkscape-font-specification:Calibri;letter-spacing:0px;word-spacing:0px;white-space:pre;fill-rule:evenodd;stroke-width:6.66667px;stroke-linecap:butt" /><path
       d="m 4649.0131,396.44123 q 0,1.09373 -0.182,1.94447 -0.1214,0.85066 -0.4254,1.45833 -0.2433,0.54667 -0.7292,0.85067 -0.4253,0.24333 -0.9722,0.24333 h -43.4462 q -0.8507,0 -1.5191,-0.182 -0.608,-0.24333 -1.0938,-0.72913 -0.4253,-0.486 -0.6684,-1.3976 -0.182,-0.91147 -0.182,-2.24827 0,-1.21527 0.06,-2.12673 0.1213,-0.91147 0.4253,-1.57987 0.304,-0.72913 0.7292,-1.39753 0.486,-0.7292 1.2153,-1.51914 l 15.2518,-16.1632 q 5.2865,-5.59026 8.4462,-10.02606 3.2205,-4.4358 4.9219,-8.0816 1.7621,-3.64587 2.309,-6.62327 0.5466,-2.97747 0.5466,-5.59033 0,-2.6128 -0.8506,-4.92187 -0.8507,-2.3698 -2.4914,-4.13193 -1.5798,-1.7622 -4.0104,-2.79514 -2.4306,-1.033 -5.5903,-1.033 -3.7066,0 -6.684,1.033 -2.9167,1.03294 -5.1649,2.24827 -2.1876,1.21527 -3.7066,2.24827 -1.4584,1.03293 -2.1876,1.03293 -0.4253,0 -0.7899,-0.24333 -0.304,-0.24334 -0.5467,-0.78994 -0.182,-0.54666 -0.304,-1.45833 -0.1213,-0.91147 -0.1213,-2.18753 0,-0.91147 0.06,-1.57987 0.06,-0.6684 0.182,-1.15453 0.182,-0.486 0.4253,-0.91147 0.2434,-0.42533 0.9722,-1.03293 0.7292,-0.6684 2.4914,-1.7622 1.8229,-1.09374 4.4965,-2.12674 2.7344,-1.09373 5.9549,-1.82293 3.2812,-0.72913 6.8663,-0.72913 5.7118,0 9.9653,1.6406 4.3142,1.57986 7.1094,4.375 2.8559,2.7952 4.2535,6.5018 1.3975,3.7066 1.3975,7.89926 0,3.7674 -0.6684,7.53474 -0.6684,3.70666 -2.8558,8.08166 -2.1268,4.3142 -6.198,9.66147 -4.0712,5.28647 -10.816,12.21353 l -12.4566,13.00354 h 34.2101 q 0.486,0 0.9115,0.304 0.486,0.24333 0.7899,0.78993 0.3647,0.54667 0.486,1.3976 0.182,0.78993 0.182,1.88367 z"
       id="path167258"
       style="font-size:18.6667px;line-height:120%;font-family:Calibri;-inkscape-font-specification:Calibri;letter-spacing:0px;word-spacing:0px;white-space:pre;fill-rule:evenodd;stroke-width:6.66667px;stroke-linecap:butt" /><path
       d="m 4689.8465,370.25196 q 0,2.36974 -0.5467,3.2812 -0.5467,0.91147 -1.5799,0.91147 h -25.3993 q -1.0937,0 -1.6406,-0.91147 -0.5467,-0.9722 -0.5467,-3.2812 0,-2.30906 0.5467,-3.22053 0.5467,-0.91147 1.6406,-0.91147 h 25.3993 q 0.486,0 0.8508,0.182 0.4253,0.182 0.6684,0.72914 0.304,0.486 0.4253,1.27606 0.182,0.78994 0.182,1.94447 z"
       id="path167260"
       style="font-size:18.6667px;line-height:120%;font-family:Calibri;-inkscape-font-specification:Calibri;letter-spacing:0px;word-spacing:0px;white-space:pre;fill-rule:evenodd;stroke-width:6.66667px;stroke-linecap:butt" /><path
       d="m 4750.1851,396.44123 q 0,1.09373 -0.182,1.94447 -0.1213,0.85066 -0.4253,1.45833 -0.2433,0.54667 -0.7292,0.85067 -0.4253,0.24333 -0.9722,0.24333 h -43.4463 q -0.8507,0 -1.5191,-0.182 -0.6073,-0.24333 -1.0937,-0.72913 -0.4254,-0.486 -0.6684,-1.3976 -0.182,-0.91147 -0.182,-2.24827 0,-1.21527 0.06,-2.12673 0.1213,-0.91147 0.4253,-1.57987 0.304,-0.72913 0.7292,-1.39753 0.486,-0.7292 1.2153,-1.51914 l 15.2517,-16.1632 q 5.2865,-5.59026 8.4462,-10.02606 3.2205,-4.4358 4.9219,-8.0816 1.7622,-3.64587 2.309,-6.62327 0.5467,-2.97747 0.5467,-5.59033 0,-2.6128 -0.8507,-4.92187 -0.8507,-2.3698 -2.4913,-4.13193 -1.5799,-1.7622 -4.0104,-2.79514 -2.4306,-1.033 -5.5903,-1.033 -3.7066,0 -6.684,1.033 -2.9167,1.03294 -5.165,2.24827 -2.1875,1.21527 -3.7066,2.24827 -1.4584,1.03293 -2.1875,1.03293 -0.4253,0 -0.7899,-0.24333 -0.304,-0.24334 -0.5467,-0.78994 -0.1827,-0.54666 -0.304,-1.45833 -0.1213,-0.91147 -0.1213,-2.18753 0,-0.91147 0.06,-1.57987 0.06,-0.6684 0.182,-1.15453 0.1826,-0.486 0.4253,-0.91147 0.2433,-0.42533 0.9722,-1.03293 0.7292,-0.6684 2.4913,-1.7622 1.823,-1.09374 4.4966,-2.12674 2.7344,-1.09373 5.9548,-1.82293 3.2813,-0.72913 6.8664,-0.72913 5.7118,0 9.9652,1.6406 4.3143,1.57986 7.1094,4.375 2.856,2.7952 4.2535,6.5018 1.3976,3.7066 1.3976,7.89926 0,3.7674 -0.6684,7.53474 -0.6684,3.70666 -2.8559,8.08166 -2.1268,4.3142 -6.198,9.66147 -4.0711,5.28647 -10.8159,12.21353 l -12.4567,13.00354 h 34.2102 q 0.486,0 0.9114,0.304 0.486,0.24333 0.79,0.78993 0.3646,0.54667 0.486,1.3976 0.182,0.78993 0.182,1.88367 z"
       id="path167262"
       style="font-size:18.6667px;line-height:120%;font-family:Calibri;-inkscape-font-specification:Calibri;letter-spacing:0px;word-spacing:0px;white-space:pre;fill-rule:evenodd;stroke-width:6.66667px;stroke-linecap:butt" /><path
       d="m 5385.9494,261.65926 q 18.4889,0 32.9955,7.1111 14.5067,7.1111 22.7556,20.76441 8.5333,13.65331 8.5333,33.84884 0,32.9955 -20.48,52.05325 -20.48,18.7733 -60.5866,18.7733 -15.9288,0 -30.151,-2.84444 -13.9378,-2.84444 -24.4622,-8.24887 v -36.97772 q 10.5244,5.40443 25.3155,9.38665 14.7911,3.69777 27.8755,3.69777 19.0578,0 29.0133,-7.67999 10.24,-7.96443 10.24,-24.46218 0,-30.71995 -40.6755,-30.71995 -7.9644,0 -16.4978,1.70666 -8.5333,1.42222 -14.2222,2.84444 l -17.0666,-9.10221 7.68,-103.53761 h 110.0798 v 36.40883 h -72.5332 l -3.6978,39.82216 q 4.8356,-0.85333 10.24,-1.70667 5.6889,-1.13777 15.6444,-1.13777 z"
       id="path167265"
       style="font-weight:bold;font-size:284.444px;line-height:120%;font-family:'Noto Sans';-inkscape-font-specification:'Noto Sans Bold';text-align:center;letter-spacing:0px;word-spacing:0px;text-anchor:middle;fill:none;fill-rule:evenodd;stroke:#000000;stroke-width:6.66667px;stroke-linecap:butt" /></g></svg>
