<?xml version="1.0" encoding="UTF-8" standalone="no"?>
<svg
   style="fill-rule:evenodd;stroke-linecap:round"
   version="1.1"
   id="svg6781"
   width="12in"
   viewBox="0 0 7679.9997 5759.9999"
   preserveAspectRatio="none"
   height="9in"
   inkscape:version="1.2.1 (9c6d41e410, 2022-07-14)"
   sodipodi:docname="burn-6-9x12-collage-board-baseball-crane.svg"
   xml:space="preserve"
   inkscape:export-filename="../shared/board.png"
   inkscape:export-xdpi="300"
   inkscape:export-ydpi="300"
   xmlns:inkscape="http://www.inkscape.org/namespaces/inkscape"
   xmlns:sodipodi="http://sodipodi.sourceforge.net/DTD/sodipodi-0.dtd"
   xmlns="http://www.w3.org/2000/svg"
   xmlns:svg="http://www.w3.org/2000/svg"
   xmlns:rdf="http://www.w3.org/1999/02/22-rdf-syntax-ns#"
   xmlns:cc="http://creativecommons.org/ns#"
   xmlns:dc="http://purl.org/dc/elements/1.1/"><sodipodi:namedview
     pagecolor="#ffffff"
     bordercolor="#666666"
     borderopacity="1"
     objecttolerance="10"
     gridtolerance="10"
     guidetolerance="10"
     inkscape:pageopacity="1"
     inkscape:pageshadow="2"
     inkscape:window-width="640"
     inkscape:window-height="480"
     id="namedview9"
     showgrid="false"
     inkscape:zoom="0.98697917"
     inkscape:cx="576"
     inkscape:cy="432.12665"
     inkscape:window-x="0"
     inkscape:window-y="23"
     inkscape:window-maximized="0"
     inkscape:current-layer="svg6781"
     inkscape:showpageshadow="2"
     inkscape:pagecheckerboard="0"
     inkscape:deskcolor="#d1d1d1"
     inkscape:document-units="mm" /><metadata
     id="metadata7279"><rdf:RDF><cc:Work
         rdf:about=""><dc:format>image/svg+xml</dc:format><dc:type
           rdf:resource="http://purl.org/dc/dcmitype/StillImage" /></cc:Work></rdf:RDF></metadata><defs
     id="defs7277"><inkscape:path-effect
   effect="fillet_chamfer"
   id="path-effect31156"
   is_visible="true"
   lpeversion="1"
   nodesatellites_param="F,0,0,1,0,0,0,1 @ F,0,0,1,0,51.718129,0,1 @ F,0,0,1,0,67.731889,0,1 @ F,0,0,1,0,0,0,1 @ F,0,0,1,0,0,0,1 @ F,0,0,1,0,63.617035,0,1 @ F,0,0,1,0,64.580101,0,1 @ F,0,0,1,0,66.418618,0,1 @ F,0,0,1,0,53.731811,0,1 @ F,0,0,1,0,71.313475,0,1 @ F,0,0,1,0,72.714422,0,1 @ F,0,0,1,0,63.187238,0,1 @ F,0,0,1,0,65.81378,0,1 @ F,0,0,1,0,65.718269,0,1 @ F,0,0,1,0,59.677222,0,1 @ F,0,0,1,0,0,0,1 @ F,0,0,1,0,0,0,1 @ F,0,0,1,0,62.303764,0,1 @ F,0,0,1,0,63.87969,0,1 @ F,0,0,1,0,0,0,1"
   unit="px"
   method="auto"
   mode="F"
   radius="0"
   chamfer_steps="1"
   flexible="false"
   use_knot_distance="true"
   apply_no_radius="true"
   apply_with_radius="true"
   only_selected="false"
   hide_knots="false" /><inkscape:path-effect
   effect="fillet_chamfer"
   id="path-effect29230"
   is_visible="true"
   lpeversion="1"
   nodesatellites_param="F,0,0,1,0,0,0,1 @ F,0,0,1,0,51.718129,0,1 @ F,0,0,1,0,67.731889,0,1 @ F,0,0,1,0,0,0,1 @ F,0,0,1,0,0,0,1 @ F,0,0,1,0,63.617035,0,1 @ F,0,0,1,0,64.580101,0,1 @ F,0,0,1,0,66.418618,0,1 @ F,0,0,1,0,53.731811,0,1 @ F,0,0,1,0,71.313475,0,1 @ F,0,0,1,0,72.714422,0,1 @ F,0,0,1,0,63.187238,0,1 @ F,0,0,1,0,65.81378,0,1 @ F,0,0,1,0,65.718269,0,1 @ F,0,0,1,0,59.677222,0,1 @ F,0,0,1,0,0,0,1 @ F,0,0,1,0,0,0,1 @ F,0,0,1,0,62.303764,0,1 @ F,0,0,1,0,63.87969,0,1 @ F,0,0,1,0,0.34224638,0,1"
   unit="px"
   method="auto"
   mode="F"
   radius="0"
   chamfer_steps="1"
   flexible="false"
   use_knot_distance="true"
   apply_no_radius="true"
   apply_with_radius="true"
   only_selected="false"
   hide_knots="false" /><inkscape:path-effect
   effect="fillet_chamfer"
   id="path-effect27299"
   is_visible="true"
   lpeversion="1"
   nodesatellites_param="F,0,0,1,0,0,0,1 @ F,0,0,1,0,0,0,1 @ F,0,0,1,0,0,0,1 @ F,0,0,1,0,0,0,1 @ F,0,0,1,0,69.305454,0,1 @ F,0,0,1,0,73.76594,0,1 @ F,0,0,1,0,0,0,1 @ F,0,0,1,0,0,0,1 @ F,0,0,1,0,66.6143,0,1 @ F,0,0,1,0,73.508076,0,1 @ F,0,0,1,0,75.793522,0,1 @ F,0,0,1,0,59.179836,0,1 @ F,0,0,1,0,72.967196,0,1 @ F,0,0,1,0,73.225252,0,1 @ F,0,0,1,0,69.575606,0,1 @ F,0,0,1,0,53.232264,0,1 @ F,0,0,1,0,67.683197,0,1 @ F,0,0,1,0,71.333035,0,1 @ F,0,0,1,0,0,0,1 @ F,0,0,1,0,0,0,1 @ F,0,0,1,0,65.532924,0,1 @ F,0,0,1,0,62.006161,0,1 @ F,0,0,1,0,0,0,1 @ F,0,0,1,0,0,0,1 @ F,0,0,1,0,0,0,1 @ F,0,0,1,0,0,0,1"
   unit="px"
   method="auto"
   mode="F"
   radius="0"
   chamfer_steps="1"
   flexible="false"
   use_knot_distance="true"
   apply_no_radius="true"
   apply_with_radius="true"
   only_selected="false"
   hide_knots="false" /><inkscape:path-effect
   effect="fillet_chamfer"
   id="path-effect220245"
   is_visible="true"
   lpeversion="1"
   nodesatellites_param="F,0,0,1,0,0,0,1 @ F,0,0,1,0,0,0,1 @ F,0,0,1,0,0,0,1 @ F,0,0,1,0,0,0,1 @ F,0,0,1,0,69.305454,0,1 @ F,0,0,1,0,73.76594,0,1 @ F,0,0,1,0,0,0,1 @ F,0,0,1,0,0,0,1 @ F,0,0,1,0,66.6143,0,1 @ F,0,0,1,0,73.508076,0,1 @ F,0,0,1,0,75.793522,0,1 @ F,0,0,1,0,59.179836,0,1 @ F,0,0,1,0,72.967196,0,1 @ F,0,0,1,0,73.225252,0,1 @ F,0,0,1,0,69.575606,0,1 @ F,0,0,1,0,53.232264,0,1 @ F,0,0,1,0,67.683197,0,1 @ F,0,0,1,0,71.333035,0,1 @ F,0,0,1,0,0,0,1 @ F,0,0,1,0,0,0,1 @ F,0,0,1,0,65.532924,0,1 @ F,0,0,1,0,62.006161,0,1 @ F,0,0,1,0,0,0,1 @ F,0,0,1,0,0,0,1 @ F,0,0,1,0,0,0,1 @ F,0,0,1,0,0,0,1"
   unit="px"
   method="auto"
   mode="F"
   radius="0"
   chamfer_steps="1"
   flexible="false"
   use_knot_distance="true"
   apply_no_radius="true"
   apply_with_radius="true"
   only_selected="false"
   hide_knots="false" /><inkscape:path-effect
   effect="fillet_chamfer"
   id="path-effect214705"
   is_visible="false"
   lpeversion="1"
   nodesatellites_param="F,0,0,1,0,0,0,1 @ F,0,0,1,0,51.718129,0,1 @ F,0,0,1,0,67.731889,0,1 @ F,0,0,1,0,0,0,1 @ F,0,0,1,0,0,0,1 @ F,0,0,1,0,63.617035,0,1 @ F,0,0,1,0,64.580101,0,1 @ F,0,0,1,0,66.418618,0,1 @ F,0,0,1,0,53.731811,0,1 @ F,0,0,1,0,71.313475,0,1 @ F,0,0,1,0,72.714422,0,1 @ F,0,0,1,0,63.187238,0,1 @ F,0,0,1,0,65.81378,0,1 @ F,0,0,1,0,65.718269,0,1 @ F,0,0,1,0,59.677222,0,1 @ F,0,0,1,0,0,0,1 @ F,0,0,1,0,0,0,1 @ F,0,0,1,0,62.303764,0,1 @ F,0,0,1,0,63.87969,0,1 @ F,0,0,1,0,0,0,1"
   unit="px"
   method="auto"
   mode="F"
   radius="0"
   chamfer_steps="1"
   flexible="false"
   use_knot_distance="true"
   apply_no_radius="true"
   apply_with_radius="true"
   only_selected="false"
   hide_knots="false" /><inkscape:path-effect
   effect="fillet_chamfer"
   id="path-effect203568"
   is_visible="true"
   lpeversion="1"
   nodesatellites_param="F,0,0,1,0,0,0,1 @ F,0,0,1,0,51.718129,0,1 @ F,0,0,1,0,67.731889,0,1 @ F,0,0,1,0,0,0,1 @ F,0,0,1,0,0,0,1 @ F,0,0,1,0,63.617035,0,1 @ F,0,0,1,0,64.580101,0,1 @ F,0,0,1,0,66.418618,0,1 @ F,0,0,1,0,53.731811,0,1 @ F,0,0,1,0,71.313475,0,1 @ F,0,0,1,0,72.714422,0,1 @ F,0,0,1,0,63.187238,0,1 @ F,0,0,1,0,65.81378,0,1 @ F,0,0,1,0,65.718269,0,1 @ F,0,0,1,0,59.677222,0,1 @ F,0,0,1,0,0,0,1 @ F,0,0,1,0,0,0,1 @ F,0,0,1,0,62.303764,0,1 @ F,0,0,1,0,63.87969,0,1 @ F,0,0,1,0,0.34224638,0,1"
   unit="px"
   method="auto"
   mode="F"
   radius="0"
   chamfer_steps="1"
   flexible="false"
   use_knot_distance="true"
   apply_no_radius="true"
   apply_with_radius="true"
   only_selected="false"
   hide_knots="false" /><inkscape:path-effect
   effect="fillet_chamfer"
   id="path-effect203334"
   is_visible="true"
   lpeversion="1"
   nodesatellites_param="F,0,0,1,0,0,0,1 @ F,0,0,1,0,51.718129,0,1 @ F,0,0,1,0,67.731889,0,1 @ F,0,0,1,0,0,0,1 @ F,0,0,1,0,0,0,1 @ F,0,0,1,0,63.617035,0,1 @ F,0,0,1,0,64.580101,0,1 @ F,0,0,1,0,66.418618,0,1 @ F,0,0,1,0,53.731811,0,1 @ F,0,0,1,0,71.313475,0,1 @ F,0,0,1,0,72.714422,0,1 @ F,0,0,1,0,63.187238,0,1 @ F,0,0,1,0,65.81378,0,1 @ F,0,0,1,0,65.718269,0,1 @ F,0,0,1,0,59.677222,0,1 @ F,0,0,1,0,0,0,1 @ F,0,0,1,0,0,0,1 @ F,0,0,1,0,62.303764,0,1 @ F,0,0,1,0,63.87969,0,1 @ F,0,0,1,0,0,0,1"
   unit="px"
   method="auto"
   mode="F"
   radius="0"
   chamfer_steps="1"
   flexible="false"
   use_knot_distance="true"
   apply_no_radius="true"
   apply_with_radius="true"
   only_selected="false"
   hide_knots="false" /><rect
   x="394.99557"
   y="235.30556"
   width="148.94759"
   height="109.43574"
   id="rect77966" /><rect
   x="486.77853"
   y="154.603"
   width="298.68204"
   height="405.65573"
   id="rect33927" /><rect
   x="-340.53278"
   y="137.19406"
   width="673.58405"
   height="312.11969"
   id="rect33463" /><inkscape:perspective
   sodipodi:type="inkscape:persp3d"
   inkscape:vp_x="0 : 1920 : 1"
   inkscape:vp_y="0 : 1000 : 0"
   inkscape:vp_z="5759.9998 : 1920 : 1"
   inkscape:persp3d-origin="2879.9999 : 639.99996 : 1"
   id="perspective7698" /><rect
   x="-294.07355"
   y="609.38196"
   width="101.2617"
   height="30.048023"
   id="rect89096" /><rect
   x="673.68402"
   y="727.14307"
   width="70.873802"
   height="71.972488"
   id="rect78220" /><rect
   x="336.69916"
   y="523.68329"
   width="207.88464"
   height="202.16441"
   id="rect16307" /><rect
   x="296.35019"
   y="759.91296"
   width="125.09589"
   height="114.12948"
   id="rect14067" /><rect
   x="286.18842"
   y="793.36145"
   width="108.59091"
   height="129.15038"
   id="rect14055" /><rect
   x="205.23338"
   y="772.76605"
   width="72.820282"
   height="102.27335"
   id="rect13935" /><rect
   x="378.1131"
   y="535.71301"
   width="180.07759"
   height="171.85767"
   id="rect9934" /><rect
   x="32.598747"
   y="72.047264"
   width="852.88806"
   height="47.951153"
   id="rect1601" /><marker
   style="overflow:visible"
   id="Arrow1Lend"
   refX="0"
   refY="0"
   orient="auto"><path
     transform="matrix(-0.8,0,0,-0.8,-10,0)"
     style="fill-rule:evenodd;stroke:#000000;stroke-width:1pt;marker-start:none"
     d="M 0,0 5,-5 -12.5,0 5,5 Z"
     id="path9186" /></marker><rect
   x="673.68402"
   y="727.14307"
   width="70.873802"
   height="71.972488"
   id="rect78601" /><rect
   x="673.68402"
   y="727.14307"
   width="70.873802"
   height="71.972488"
   id="rect80747" /><rect
   x="673.68402"
   y="727.14307"
   width="70.873802"
   height="71.972488"
   id="rect89086" /><rect
   x="-294.07355"
   y="609.38196"
   width="101.2617"
   height="30.048023"
   id="rect89470" /><rect
   x="-294.07355"
   y="609.38196"
   width="101.2617"
   height="30.048023"
   id="rect89482" /><rect
   x="-294.07355"
   y="609.38196"
   width="101.2617"
   height="30.048023"
   id="rect89494" /><rect
   x="-294.07355"
   y="609.38196"
   width="101.2617"
   height="30.048023"
   id="rect89506" /><rect
   x="-294.07355"
   y="609.38196"
   width="101.2617"
   height="30.048023"
   id="rect89518" /><rect
   x="-294.07355"
   y="609.38196"
   width="101.2617"
   height="30.048023"
   id="rect89530" /><rect
   x="-294.07355"
   y="609.38196"
   width="101.2617"
   height="30.048023"
   id="rect89096-0" /><rect
   x="-294.07355"
   y="609.38196"
   width="101.2617"
   height="30.048023"
   id="rect90283" /><rect
   x="-294.07355"
   y="609.38196"
   width="101.2617"
   height="30.048023"
   id="rect90299" /><rect
   x="-294.07355"
   y="609.38196"
   width="101.2617"
   height="30.048023"
   id="rect90301" /><rect
   x="-294.07355"
   y="609.38196"
   width="101.2617"
   height="30.048023"
   id="rect90317" /><rect
   x="-294.07355"
   y="609.38196"
   width="101.2617"
   height="30.048023"
   id="rect90319" /><rect
   x="-294.07355"
   y="609.38196"
   width="101.2617"
   height="30.048023"
   id="rect90335" /><rect
   x="-294.07355"
   y="609.38196"
   width="101.2617"
   height="30.048023"
   id="rect90337" /><rect
   x="-294.07355"
   y="609.38196"
   width="101.2617"
   height="30.048023"
   id="rect90353" /><rect
   x="-294.07355"
   y="609.38196"
   width="101.2617"
   height="30.048023"
   id="rect90355" /><rect
   x="-294.07355"
   y="609.38196"
   width="101.2617"
   height="30.048023"
   id="rect90371" /><rect
   x="-294.07355"
   y="609.38196"
   width="101.2617"
   height="30.048023"
   id="rect90373" /><rect
   x="-294.07355"
   y="609.38196"
   width="101.2617"
   height="30.048023"
   id="rect90389" /><rect
   x="-294.07355"
   y="609.38196"
   width="101.2617"
   height="30.048023"
   id="rect90391" /><rect
   x="-294.07355"
   y="609.38196"
   width="101.2617"
   height="30.048023"
   id="rect90407" /><rect
   x="-294.07355"
   y="609.38196"
   width="101.2617"
   height="30.048023"
   id="rect90409" /><rect
   x="-294.07355"
   y="609.38196"
   width="101.2617"
   height="30.048023"
   id="rect90441" /><rect
   x="-294.07355"
   y="609.38196"
   width="101.2617"
   height="30.048023"
   id="rect90443" /><rect
   x="-294.07355"
   y="609.38196"
   width="101.2617"
   height="30.048023"
   id="rect90445" /><rect
   x="-294.07355"
   y="609.38196"
   width="101.2617"
   height="30.048023"
   id="rect90447" /><rect
   x="205.23338"
   y="772.76605"
   width="72.820282"
   height="102.27335"
   id="rect51454" /><rect
   x="-294.07355"
   y="609.38196"
   width="101.2617"
   height="30.048023"
   id="rect52959" /><rect
   x="-294.07355"
   y="609.38196"
   width="101.2617"
   height="30.048023"
   id="rect53029" /><rect
   x="-294.07355"
   y="609.38196"
   width="101.2617"
   height="30.048023"
   id="rect53031" /><rect
   x="-294.07355"
   y="609.38196"
   width="101.2617"
   height="30.048023"
   id="rect53033" /><rect
   x="-294.07355"
   y="609.38196"
   width="101.2617"
   height="30.048023"
   id="rect53035" /><rect
   x="-294.07355"
   y="609.38196"
   width="101.2617"
   height="30.048023"
   id="rect53106" /><rect
   x="-294.07355"
   y="609.38196"
   width="101.2617"
   height="30.048023"
   id="rect53108" /><rect
   x="-294.07355"
   y="609.38196"
   width="101.2617"
   height="30.048023"
   id="rect53110" /><rect
   x="-294.07355"
   y="609.38196"
   width="101.2617"
   height="30.048023"
   id="rect53112" /><rect
   x="-294.07355"
   y="609.38196"
   width="101.2617"
   height="30.048023"
   id="rect53183" /><rect
   x="-294.07355"
   y="609.38196"
   width="101.2617"
   height="30.048023"
   id="rect53185" /><rect
   x="-294.07355"
   y="609.38196"
   width="101.2617"
   height="30.048023"
   id="rect53187" /><rect
   x="-294.07355"
   y="609.38196"
   width="101.2617"
   height="30.048023"
   id="rect53189" /><rect
   x="-294.07355"
   y="609.38196"
   width="101.2617"
   height="30.048023"
   id="rect53260" /><rect
   x="-294.07355"
   y="609.38196"
   width="101.2617"
   height="30.048023"
   id="rect53262" /><rect
   x="-294.07355"
   y="609.38196"
   width="101.2617"
   height="30.048023"
   id="rect53264" /><rect
   x="-294.07355"
   y="609.38196"
   width="101.2617"
   height="30.048023"
   id="rect53266" /><rect
   x="-294.07355"
   y="609.38196"
   width="101.2617"
   height="30.048023"
   id="rect54410" /><rect
   x="-294.07355"
   y="609.38196"
   width="101.2617"
   height="30.048023"
   id="rect55023" /><rect
   x="-294.07355"
   y="609.38196"
   width="101.2617"
   height="30.048023"
   id="rect60273" /><rect
   x="-294.07355"
   y="609.38196"
   width="101.2617"
   height="30.048023"
   id="rect60275" /><rect
   x="-294.07355"
   y="609.38196"
   width="101.2617"
   height="30.048023"
   id="rect60277" /><rect
   x="-294.07355"
   y="609.38196"
   width="101.2617"
   height="30.048023"
   id="rect60279" /><rect
   x="-294.07355"
   y="609.38196"
   width="101.2617"
   height="30.048023"
   id="rect60281" /><rect
   x="-294.07355"
   y="609.38196"
   width="101.2617"
   height="30.048023"
   id="rect60283" /><rect
   x="205.23338"
   y="772.76605"
   width="72.820282"
   height="102.27335"
   id="rect60285" /><rect
   x="-294.07355"
   y="609.38196"
   width="101.2617"
   height="30.048023"
   id="rect71642" /><rect
   x="-294.07355"
   y="609.38196"
   width="101.2617"
   height="30.048023"
   id="rect71644" /><rect
   x="-294.07355"
   y="609.38196"
   width="101.2617"
   height="30.048023"
   id="rect71646" /><rect
   x="-294.07355"
   y="609.38196"
   width="101.2617"
   height="30.048023"
   id="rect71648" /><rect
   x="-294.07355"
   y="609.38196"
   width="101.2617"
   height="30.048023"
   id="rect71650" /><rect
   x="-294.07355"
   y="609.38196"
   width="141.9213"
   height="89.765976"
   id="rect77811" /><rect
   x="-294.07355"
   y="609.38196"
   width="101.2617"
   height="30.048023"
   id="rect131568" /><rect
   x="-294.07355"
   y="609.38196"
   width="101.2617"
   height="30.048023"
   id="rect131889" /><rect
   x="-294.07355"
   y="609.38196"
   width="101.2617"
   height="30.048023"
   id="rect132353" /><rect
   x="-294.07355"
   y="609.38196"
   width="101.2617"
   height="30.048023"
   id="rect132355" /><rect
   x="-294.07355"
   y="609.38196"
   width="101.2617"
   height="30.048023"
   id="rect132357" /><rect
   x="-294.07355"
   y="609.38196"
   width="101.2617"
   height="30.048023"
   id="rect132359" /><rect
   x="205.23338"
   y="772.76605"
   width="72.820282"
   height="102.27335"
   id="rect133210" /><rect
   x="-294.07355"
   y="609.38196"
   width="101.2617"
   height="30.048023"
   id="rect134544" /><rect
   x="-294.07355"
   y="609.38196"
   width="101.2617"
   height="30.048023"
   id="rect134590" /><rect
   x="-294.07355"
   y="609.38196"
   width="101.2617"
   height="30.048023"
   id="rect134592" /><rect
   x="-294.07355"
   y="609.38196"
   width="101.2617"
   height="30.048023"
   id="rect134594" /><rect
   x="-294.07355"
   y="609.38196"
   width="101.2617"
   height="30.048023"
   id="rect134596" /><rect
   x="-294.07355"
   y="609.38196"
   width="101.2617"
   height="30.048023"
   id="rect135266" /><rect
   x="-294.07355"
   y="609.38196"
   width="101.2617"
   height="30.048023"
   id="rect135312" /><rect
   x="-294.07355"
   y="609.38196"
   width="101.2617"
   height="30.048023"
   id="rect135314" /><rect
   x="-294.07355"
   y="609.38196"
   width="101.2617"
   height="30.048023"
   id="rect135316" /><rect
   x="-294.07355"
   y="609.38196"
   width="101.2617"
   height="30.048023"
   id="rect135318" /><rect
   x="-294.07355"
   y="609.38196"
   width="101.2617"
   height="30.048023"
   id="rect136414" /><rect
   x="-294.07355"
   y="609.38196"
   width="101.2617"
   height="30.048023"
   id="rect137952" /><rect
   x="486.77853"
   y="154.603"
   width="298.68204"
   height="405.65573"
   id="rect137954" /><rect
   x="-294.07355"
   y="609.38196"
   width="101.2617"
   height="30.048023"
   id="rect138000" /><rect
   x="-294.07355"
   y="609.38196"
   width="101.2617"
   height="30.048023"
   id="rect138002" /><rect
   x="-294.07355"
   y="609.38196"
   width="101.2617"
   height="30.048023"
   id="rect138004" /><rect
   x="-294.07355"
   y="609.38196"
   width="101.2617"
   height="30.048023"
   id="rect138006" /><pattern
   id="WMFhbasepattern"
   patternUnits="userSpaceOnUse"
   width="6"
   height="6"
   x="0"
   y="0" /><inkscape:path-effect
   effect="spiro"
   id="path-effect3342"
   is_visible="true"
   lpeversion="0" /><rect
   x="-294.07355"
   y="609.38196"
   width="101.2617"
   height="30.048023"
   id="rect5638" /><rect
   x="-294.07355"
   y="609.38196"
   width="101.2617"
   height="30.048023"
   id="rect5677" /><rect
   x="-294.07355"
   y="609.38196"
   width="101.2617"
   height="30.048023"
   id="rect6142" /><rect
   x="-294.07355"
   y="609.38196"
   width="101.2617"
   height="30.048023"
   id="rect6144" /><rect
   x="-294.07355"
   y="609.38196"
   width="101.2617"
   height="30.048023"
   id="rect6146" /><rect
   x="-294.07355"
   y="609.38196"
   width="101.2617"
   height="30.048023"
   id="rect6148" /><rect
   x="-294.07355"
   y="609.38196"
   width="101.2617"
   height="30.048023"
   id="rect7124" /><rect
   x="486.77853"
   y="154.603"
   width="298.68204"
   height="405.65573"
   id="rect7126" /><rect
   x="-294.07355"
   y="609.38196"
   width="101.2617"
   height="30.048023"
   id="rect8512" /><rect
   x="-294.07355"
   y="609.38196"
   width="101.2617"
   height="30.048023"
   id="rect10333" /><rect
   x="-294.07355"
   y="609.38196"
   width="101.2617"
   height="30.048023"
   id="rect10335" /><rect
   x="-294.07355"
   y="609.38196"
   width="101.2617"
   height="30.048023"
   id="rect10337" /><rect
   x="-294.07355"
   y="609.38196"
   width="101.2617"
   height="30.048023"
   id="rect10339" /><rect
   x="-294.07355"
   y="609.38196"
   width="101.2617"
   height="30.048023"
   id="rect10452" /><rect
   x="-294.07355"
   y="609.38196"
   width="101.2617"
   height="30.048023"
   id="rect10454" /><rect
   x="-294.07355"
   y="609.38196"
   width="101.2617"
   height="30.048023"
   id="rect10456" /><rect
   x="-294.07355"
   y="609.38196"
   width="101.2617"
   height="30.048023"
   id="rect10458" /><rect
   x="-294.07355"
   y="609.38196"
   width="101.2617"
   height="30.048023"
   id="rect10969" /><rect
   x="-294.07355"
   y="609.38196"
   width="101.2617"
   height="30.048023"
   id="rect11584" /><rect
   x="-294.07355"
   y="609.38196"
   width="101.2617"
   height="30.048023"
   id="rect11905" /><rect
   x="-294.07355"
   y="609.38196"
   width="101.2617"
   height="30.048023"
   id="rect12372" /><rect
   x="-294.07355"
   y="609.38196"
   width="101.2617"
   height="30.048023"
   id="rect12374" /><rect
   x="-294.07355"
   y="609.38196"
   width="101.2617"
   height="30.048023"
   id="rect12376" /><rect
   x="-294.07355"
   y="609.38196"
   width="101.2617"
   height="30.048023"
   id="rect12378" /><rect
   x="-294.07355"
   y="609.38196"
   width="101.2617"
   height="30.048023"
   id="rect12986" /><rect
   x="205.23338"
   y="772.76605"
   width="72.820282"
   height="102.27335"
   id="rect19411" />
	
	
	
	
	
	
	
	
	
	
	
	
	
	
	
	
	
	
	
	
	
	
	
	
	
	
	

	
	
	
	
	
	
	
	
	
	
	
	
	
	
	
	
	
	
	
	
	
	
	
	
	
	
	

	
	
	
	
	
	
	
	
	
	
	
	
	
	
	
	
	
	
	
	
	
	
	
	
	
	
	

	
	
	
	
	
	
	
	
	
	
	
	
	
	
	
	
	
	
	
	
	
	
	
	
	
	
	
<rect
   x="-294.07355"
   y="609.38196"
   width="101.2617"
   height="30.048023"
   id="rect35040" /><rect
   x="-294.07355"
   y="609.38196"
   width="101.2617"
   height="30.048023"
   id="rect35042" /><rect
   x="-294.07355"
   y="609.38196"
   width="101.2617"
   height="30.048023"
   id="rect35044" /><rect
   x="-294.07355"
   y="609.38196"
   width="101.2617"
   height="30.048023"
   id="rect35046" /><rect
   x="-294.07355"
   y="609.38196"
   width="101.2617"
   height="30.048023"
   id="rect35048" /><rect
   x="-294.07355"
   y="609.38196"
   width="101.2617"
   height="30.048023"
   id="rect35050" /><rect
   x="205.23338"
   y="772.76605"
   width="72.820282"
   height="102.27335"
   id="rect35052" /><rect
   x="-294.07355"
   y="609.38196"
   width="101.2617"
   height="30.048023"
   id="rect22528" /><rect
   x="-294.07355"
   y="609.38196"
   width="101.2617"
   height="30.048023"
   id="rect22530" /><rect
   x="-294.07355"
   y="609.38196"
   width="101.2617"
   height="30.048023"
   id="rect22532" /><rect
   x="-294.07355"
   y="609.38196"
   width="101.2617"
   height="30.048023"
   id="rect22534" /><rect
   x="-294.07355"
   y="609.38196"
   width="101.2617"
   height="30.048023"
   id="rect22536" /><rect
   x="-294.07355"
   y="609.38196"
   width="101.2617"
   height="30.048023"
   id="rect46558" /><rect
   x="-294.07355"
   y="609.38196"
   width="101.2617"
   height="30.048023"
   id="rect46560" /><rect
   x="-294.07355"
   y="609.38196"
   width="101.2617"
   height="30.048023"
   id="rect46562" /><rect
   x="-294.07355"
   y="609.38196"
   width="101.2617"
   height="30.048023"
   id="rect46564" /><rect
   x="-294.07355"
   y="609.38196"
   width="101.2617"
   height="30.048023"
   id="rect46566" /><rect
   x="-294.07355"
   y="609.38196"
   width="101.2617"
   height="30.048023"
   id="rect46568" /><rect
   x="205.23338"
   y="772.76605"
   width="72.820282"
   height="102.27335"
   id="rect46570" /><rect
   x="-294.07355"
   y="609.38196"
   width="101.2617"
   height="30.048023"
   id="rect47828" /><rect
   x="-294.07355"
   y="609.38196"
   width="101.2617"
   height="30.048023"
   id="rect47830" /><rect
   x="-294.07355"
   y="609.38196"
   width="101.2617"
   height="30.048023"
   id="rect47832" /><rect
   x="-294.07355"
   y="609.38196"
   width="101.2617"
   height="30.048023"
   id="rect47834" /><rect
   x="-294.07355"
   y="609.38196"
   width="101.2617"
   height="30.048023"
   id="rect47836" /><rect
   x="-294.07355"
   y="609.38196"
   width="101.2617"
   height="30.048023"
   id="rect48798" /><rect
   x="-294.07355"
   y="609.38196"
   width="101.2617"
   height="30.048023"
   id="rect48800" /><rect
   x="-294.07355"
   y="609.38196"
   width="101.2617"
   height="30.048023"
   id="rect48802" /><rect
   x="-294.07355"
   y="609.38196"
   width="101.2617"
   height="30.048023"
   id="rect48804" /><rect
   x="-294.07355"
   y="609.38196"
   width="101.2617"
   height="30.048023"
   id="rect48806" /><rect
   x="-294.07355"
   y="609.38196"
   width="101.2617"
   height="30.048023"
   id="rect49856" /><rect
   x="-294.07355"
   y="609.38196"
   width="101.2617"
   height="30.048023"
   id="rect49858" /><rect
   x="-294.07355"
   y="609.38196"
   width="101.2617"
   height="30.048023"
   id="rect49860" /><rect
   x="-294.07355"
   y="609.38196"
   width="101.2617"
   height="30.048023"
   id="rect49862" /><rect
   x="-294.07355"
   y="609.38196"
   width="101.2617"
   height="30.048023"
   id="rect49864" /><rect
   x="486.77853"
   y="154.603"
   width="298.68204"
   height="405.65573"
   id="rect49866" /><rect
   x="-294.07355"
   y="609.38196"
   width="101.2617"
   height="30.048023"
   id="rect49906" /><rect
   x="-294.07355"
   y="609.38196"
   width="101.2617"
   height="30.048023"
   id="rect49908" /><rect
   x="-294.07355"
   y="609.38196"
   width="101.2617"
   height="30.048023"
   id="rect15741" /><rect
   x="-294.07355"
   y="609.38196"
   width="101.2617"
   height="30.048023"
   id="rect73835" /><rect
   x="-294.07355"
   y="609.38196"
   width="101.2617"
   height="30.048023"
   id="rect79320" /><rect
   x="-294.07355"
   y="609.38196"
   width="101.2617"
   height="30.048023"
   id="rect79338" /><rect
   x="-294.07355"
   y="609.38196"
   width="101.2617"
   height="30.048023"
   id="rect24252" /><rect
   x="-294.07355"
   y="609.38196"
   width="101.2617"
   height="30.048023"
   id="rect24592" /><rect
   x="-294.07355"
   y="609.38196"
   width="101.2617"
   height="30.048023"
   id="rect24594" /><rect
   x="-294.07355"
   y="609.38196"
   width="101.2617"
   height="30.048023"
   id="rect24596" /><rect
   x="-294.07355"
   y="609.38196"
   width="101.2617"
   height="30.048023"
   id="rect24679" /><rect
   x="-294.07355"
   y="609.38196"
   width="101.2617"
   height="30.048023"
   id="rect25099" /><rect
   x="-294.07355"
   y="609.38196"
   width="101.2617"
   height="30.048023"
   id="rect25101" /><rect
   x="-294.07355"
   y="609.38196"
   width="101.2617"
   height="30.048023"
   id="rect25103" /><rect
   x="-294.07355"
   y="609.38196"
   width="101.2617"
   height="30.048023"
   id="rect25105" /><rect
   x="205.23338"
   y="772.76605"
   width="72.820282"
   height="102.27335"
   id="rect26170" /><rect
   x="-294.07355"
   y="609.38196"
   width="101.2617"
   height="30.048023"
   id="rect26732" /><rect
   x="-294.07355"
   y="609.38196"
   width="101.2617"
   height="30.048023"
   id="rect26734" /><rect
   x="-294.07355"
   y="609.38196"
   width="101.2617"
   height="30.048023"
   id="rect26736" /><rect
   x="-294.07355"
   y="609.38196"
   width="101.2617"
   height="30.048023"
   id="rect27147" /><rect
   x="-294.07355"
   y="609.38196"
   width="101.2617"
   height="30.048023"
   id="rect27149" /><rect
   x="-294.07355"
   y="609.38196"
   width="101.2617"
   height="30.048023"
   id="rect27151" /><rect
   x="-294.07355"
   y="609.38196"
   width="101.2617"
   height="30.048023"
   id="rect27153" /><rect
   x="-294.07355"
   y="609.38196"
   width="101.2617"
   height="30.048023"
   id="rect27295" /><rect
   x="-294.07355"
   y="609.38196"
   width="101.2617"
   height="30.048023"
   id="rect27400" /><rect
   x="-294.07355"
   y="609.38196"
   width="101.2617"
   height="30.048023"
   id="rect27402" /><rect
   x="-294.07355"
   y="609.38196"
   width="101.2617"
   height="30.048023"
   id="rect27404" /><rect
   x="-294.07355"
   y="609.38196"
   width="101.2617"
   height="30.048023"
   id="rect28274" /><rect
   x="-294.07355"
   y="609.38196"
   width="101.2617"
   height="30.048023"
   id="rect29088" /><rect
   x="-294.07355"
   y="609.38196"
   width="101.2617"
   height="30.048023"
   id="rect29090" /><rect
   x="-294.07355"
   y="609.38196"
   width="101.2617"
   height="30.048023"
   id="rect29092" /><rect
   x="-294.07355"
   y="609.38196"
   width="101.2617"
   height="30.048023"
   id="rect29094" /><rect
   x="-294.07355"
   y="609.38196"
   width="101.2617"
   height="30.048023"
   id="rect29792" /><rect
   x="-294.07355"
   y="609.38196"
   width="101.2617"
   height="30.048023"
   id="rect29794" /><rect
   x="-294.07355"
   y="609.38196"
   width="101.2617"
   height="30.048023"
   id="rect29796" /><rect
   x="-294.07355"
   y="609.38196"
   width="101.2617"
   height="30.048023"
   id="rect29798" /><rect
   x="-294.07355"
   y="609.38196"
   width="101.2617"
   height="30.048023"
   id="rect31150" /><rect
   x="486.77853"
   y="154.603"
   width="298.68204"
   height="405.65573"
   id="rect31152" /><rect
   x="-294.07355"
   y="609.38196"
   width="101.2617"
   height="30.048023"
   id="rect31832" /><rect
   x="-294.07355"
   y="609.38196"
   width="101.2617"
   height="30.048023"
   id="rect31915" /><rect
   x="-294.07355"
   y="609.38196"
   width="101.2617"
   height="30.048023"
   id="rect31917" /><rect
   x="-294.07355"
   y="609.38196"
   width="101.2617"
   height="30.048023"
   id="rect32021" /><rect
   x="-294.07355"
   y="609.38196"
   width="101.2617"
   height="30.048023"
   id="rect32023" /></defs><style
     id="style6783"
     type="text/css">
.brush0 { fill: rgb(255,255,255); }
.pen0 { stroke: rgb(0,0,0); stroke-width: 1; stroke-linejoin: round; }
.pen1 { stroke: none; }
.brush1 { fill: none; }
.pen2 { stroke: rgb(26,26,26); stroke-width: 7; stroke-linejoin: round; }
.font0 { font-weight: bold; font-size: 74px; font-family: Arial, sans-serif; }
.font1 { font-weight: bold; font-size: 16px; font-family: System, sans-serif; }
.pen3 { stroke: rgb(0,0,0); stroke-width: 3; stroke-linejoin: round; }
.brush2 { fill: rgb(0,0,0); }
.brush3 { fill: rgb(230,230,230); }
.font2 { font-weight: bold; font-size: 59px; font-family: Arial, sans-serif; }
.font3 { font-weight: bold; font-size: 59px; font-family: Arial, sans-serif; }
</style><g
     id="g72419"
     inkscape:label="Layer 6"><path
       id="rect31969"
       style="display:inline;fill:none;fill-rule:evenodd;stroke:#ffffff;stroke-width:40;stroke-linecap:round;stroke-linejoin:bevel"
       inkscape:label="Bounding page size for tiling in collages"
       d="M 7659.9995,20.000112 V 5740.0001 H 20 V 20.000112 Z" /><path
       id="path31971"
       style="display:inline;fill:#ffffff;fill-rule:evenodd;stroke:#ff00ff;stroke-width:0.63999998;stroke-linecap:round;stroke-linejoin:bevel;stroke-dasharray:none"
       d="m 339.2671,5204.9773 c 27.2798,-33.8632 21.948,-83.4287 -11.9099,-110.7147 -33.8576,-27.2864 -83.4235,-21.9634 -110.7156,11.8898 -27.292,33.8532 -21.978,83.4205 11.8699,110.7189 33.848,27.2985 83.4156,21.9934 110.7199,-11.85 0.059,-0.095 0.035,-0.043 0.035,-0.043 z"
       sodipodi:nodetypes="csssccc" /><path
       id="path31973"
       style="display:inline;fill:#ffffff;fill-rule:evenodd;stroke:#ff00ff;stroke-width:0.63999998;stroke-linecap:round;stroke-linejoin:bevel;stroke-dasharray:none"
       d="m 7458.7842,645.6075 c 27.2798,-33.8632 21.948,-83.4287 -11.9099,-110.7147 -33.8576,-27.2864 -83.4235,-21.9634 -110.7156,11.8898 -27.292,33.8532 -21.978,83.4205 11.8699,110.7189 33.848,27.2985 83.4156,21.9934 110.7199,-11.85 0.059,-0.095 0.035,-0.043 0.035,-0.043 z"
       sodipodi:nodetypes="csssccc" /><path
       id="rect31977"
       style="display:inline;fill:none;fill-rule:evenodd;stroke:#ff00ff;stroke-width:0.63999998;stroke-linecap:round;stroke-linejoin:bevel;stroke-dasharray:none"
       inkscape:label="Outside cut"
       d="M 7567.8846,5598.4577 V 153.23995 H 112.1146 V 5598.4577 Z" /><path
       d="m 7421.5184,4423.0517 q -1.2154,0 -2.066,-0.1213 -0.79,-0.1214 -1.3976,-0.4254 -0.5467,-0.2433 -0.8507,-0.6684 -0.2433,-0.3646 -0.2433,-0.9114 v -34.757 q 0,-1.3976 0.9114,-2.6737 0.9722,-1.2153 3.342,-1.2153 h 72.7956 q 0.486,0 0.8507,0.2434 0.3647,0.2433 0.5467,0.8507 0.2433,0.6073 0.3646,1.6406 0.182,1.033 0.182,2.4913 0,1.5191 -0.182,2.4914 -0.1213,1.0329 -0.3646,1.6406 -0.182,0.608 -0.5467,0.8507 -0.3647,0.2433 -0.8507,0.2433 h -67.9949 v 28.1946 q 0,0.5466 -0.304,0.9114 -0.2433,0.4254 -0.7899,0.6684 -0.486,0.304 -1.3368,0.4254 -0.8507,0.1213 -2.066,0.1213 z"
       id="path40879"
       style="font-size:18.6667px;line-height:120%;font-family:Calibri;-inkscape-font-specification:Calibri;letter-spacing:0px;word-spacing:0px;white-space:pre;fill-rule:evenodd;stroke-width:6.66667px;stroke-linecap:butt" /><path
       d="m 7442.2389,4479.9268 q -6.3195,0 -11.2414,-2.1268 -4.9219,-2.1267 -8.3247,-6.0156 -3.342,-3.8889 -5.1041,-9.2969 -1.7622,-5.3472 -1.7622,-11.9097 0,-3.6458 0.5467,-6.9271 0.486,-3.2813 1.2152,-5.8333 0.79,-2.5522 1.5191,-4.1928 0.7292,-1.6406 1.1545,-2.1267 0.4254,-0.4253 0.79,-0.608 0.3646,-0.182 0.8506,-0.3647 0.5467,-0.1213 1.3369,-0.182 0.7899,-0.06 1.8837,-0.06 1.033,0 1.8229,0.06 0.8507,0.1214 1.3368,0.3647 0.5467,0.2433 0.7899,0.5467 0.2434,0.3646 0.2434,0.7899 0,0.608 -0.79,1.8837 -0.7292,1.276 -1.6406,3.4028 -0.8507,2.1875 -1.6406,5.3472 -0.79,3.2205 -0.79,7.5955 0,4.0712 0.9722,7.474 0.9722,3.4027 3.0382,5.8333 2.066,2.4914 5.165,3.8889 3.1597,1.3976 7.6562,1.3976 3.7674,0 6.6233,-1.2153 2.9167,-1.1545 4.8004,-3.6458 1.9444,-2.4306 2.8559,-6.198 0.9722,-3.7674 0.9722,-8.993 0,-3.7066 -0.3646,-6.3802 -0.3647,-2.6737 -0.3647,-4.9827 0,-1.7014 0.7899,-2.4305 0.79,-0.7292 3.0382,-0.7292 h 32.0226 q 2.0053,0 2.9775,0.9114 0.9722,0.9722 0.9722,2.7344 v 34.8178 q 0,0.486 -0.304,0.9114 -0.2433,0.486 -0.7899,0.79 -0.5467,0.304 -1.3976,0.4253 -0.8507,0.1827 -2.0052,0.1827 -2.1875,0 -3.4028,-0.608 -1.2153,-0.6074 -1.2153,-1.7014 v -29.349 h -22.0573 q 0.304,2.1267 0.3646,4.3142 0.06,2.2483 0.06,5.165 0,6.7448 -1.6406,11.7882 -1.5799,5.0434 -4.5573,8.3854 -2.9167,3.4028 -7.1094,5.1042 -4.1927,1.7621 -9.2969,1.7621 z"
       id="path40881"
       style="font-size:18.6667px;line-height:120%;font-family:Calibri;-inkscape-font-specification:Calibri;letter-spacing:0px;word-spacing:0px;white-space:pre;fill-rule:evenodd;stroke-width:6.66667px;stroke-linecap:butt" /><path
       d="m 7465.5722,4511.3418 q -1.9444,0 -3.2812,-0.304 -1.3368,-0.2434 -2.1875,-1.033 -0.7899,-0.7292 -1.1545,-1.9445 -0.304,-1.2153 -0.304,-3.0989 0,-1.9445 0.304,-3.1598 0.3646,-1.2152 1.1545,-1.9444 0.8507,-0.7292 2.1875,-1.033 1.3368,-0.2427 3.2812,-0.2427 2.066,0 3.4028,0.2427 1.3976,0.304 2.1875,1.033 0.8507,0.7292 1.1545,1.9444 0.3647,1.2153 0.3647,3.1598 0,1.8836 -0.3647,3.0989 -0.304,1.2153 -1.1545,1.9445 -0.7899,0.7899 -2.1875,1.033 -1.3368,0.304 -3.4028,0.304 z m -42.1702,0 q -2.0052,0 -3.342,-0.304 -1.3368,-0.2434 -2.1875,-1.033 -0.7899,-0.7292 -1.0937,-1.9445 -0.3647,-1.2153 -0.3647,-3.0989 0,-1.9445 0.3647,-3.1598 0.304,-1.2152 1.0937,-1.9444 0.8507,-0.7292 2.1875,-1.033 1.3368,-0.2427 3.342,-0.2427 2.0052,0 3.342,0.2427 1.3976,0.304 2.1876,1.033 0.7899,0.7292 1.1545,1.9444 0.3647,1.2153 0.3647,3.1598 0,1.8836 -0.3647,3.0989 -0.3647,1.2153 -1.1545,1.9445 -0.79,0.7899 -2.1876,1.033 -1.3368,0.304 -3.342,0.304 z"
       id="path40883"
       style="font-size:18.6667px;line-height:120%;font-family:Calibri;-inkscape-font-specification:Calibri;letter-spacing:0px;word-spacing:0px;white-space:pre;fill-rule:evenodd;stroke-width:6.66667px;stroke-linecap:butt" /><path
       d="m 7439.5045,4582.8002 q -3.7066,0 -6.8663,-0.9722 -3.099,-0.9114 -5.5903,-2.6128 -2.4913,-1.7014 -4.3751,-4.132 -1.8836,-2.3698 -3.1597,-5.408 -1.276,-2.9774 -1.9444,-6.441 -0.6073,-3.4028 -0.6073,-7.8385 v -20.5383 q 0,-1.3975 0.9114,-2.6736 0.9722,-1.2152 3.342,-1.2152 h 70.1217 q 2.3698,0 3.2813,1.2152 0.9722,1.2761 0.9722,2.6736 v 17.8646 q 0,7.0487 -1.3368,11.5452 -1.3368,4.4966 -3.8889,7.474 -2.5521,3.0382 -6.2587,4.5573 -3.7066,1.5191 -8.3854,1.5191 -2.7952,0 -5.3473,-0.6684 -2.5521,-0.6684 -4.7395,-2.0052 -2.1268,-1.2761 -3.8282,-3.2813 -1.7014,-1.9444 -2.7952,-4.4965 -0.6073,3.2205 -2.2482,6.0156 -1.5798,2.7952 -4.0712,4.8612 -2.4913,2.1267 -5.8334,3.342 -3.342,1.2152 -7.3524,1.2152 z m 35.1823,-15.7378 q 2.856,0 5.165,-0.79 2.309,-0.7899 3.8889,-2.4913 1.6406,-1.7014 2.4913,-4.4357 0.8507,-2.7344 0.8507,-7.231 v -10.816 h -25.4601 v 11.9098 q 0,4.0712 1.033,6.5625 1.0937,2.4913 2.8559,4.1319 1.8229,1.6406 4.1927,2.3698 2.4306,0.79 4.9826,0.79 z m -35.79,4.7396 q 3.5244,0 6.198,-1.1546 2.6736,-1.0937 4.4965,-3.2812 1.8229,-2.1268 2.7344,-5.408 0.9722,-3.2205 0.9722,-8.1424 v -12.5174 h -27.7084 v 15.191 q 0,3.5851 0.8507,6.2587 0.8507,2.6737 2.4914,4.6789 1.7014,2.0659 4.1927,3.2204 2.4913,1.1546 5.7725,1.1546 z"
       id="path40885"
       style="font-size:18.6667px;line-height:120%;font-family:Calibri;-inkscape-font-specification:Calibri;letter-spacing:0px;word-spacing:0px;white-space:pre;fill-rule:evenodd;stroke-width:6.66667px;stroke-linecap:butt" /><path
       d="m 7421.093,4644.5365 q -1.1545,0 -1.9444,-0.1827 -0.79,-0.182 -1.2761,-0.486 -0.486,-0.304 -0.7291,-0.7292 -0.182,-0.3646 -0.182,-0.7899 v -41.0765 q 0,-0.4253 0.182,-0.7899 0.2433,-0.3647 0.7291,-0.7291 0.486,-0.304 1.2761,-0.486 0.7899,-0.182 1.9444,-0.182 1.0938,0 1.8837,0.182 0.7899,0.182 1.276,0.4253 0.5467,0.304 0.7899,0.6684 0.304,0.4253 0.304,0.9115 v 16.4062 h 59.7918 l -9.0538,-15.191 q -0.608,-1.1544 -0.7292,-1.8836 -0.1214,-0.6684 0.2433,-1.0938 0.4253,-0.4253 1.3368,-0.608 0.9115,-0.1213 2.3091,-0.1213 1.0329,0 1.7621,0.06 0.7292,0.1213 1.2153,0.304 0.486,0.1827 0.8507,0.486 0.3647,0.3647 0.7291,0.9115 l 11.606,18.1076 q 0.182,0.2434 0.304,0.6074 0.1213,0.3646 0.2433,0.9114 0.1213,0.5467 0.1213,1.2761 0.06,0.7291 0.06,1.8229 0,1.4584 -0.1213,2.4306 -0.1213,0.9722 -0.3647,1.5191 -0.182,0.5467 -0.5466,0.7291 -0.304,0.1827 -0.6684,0.1827 h -69.0887 v 14.2187 q 0,0.486 -0.304,0.9115 -0.2427,0.4253 -0.7899,0.6684 -0.486,0.304 -1.276,0.4253 -0.79,0.1827 -1.8838,0.1827 z"
       id="path40887"
       style="font-size:18.6667px;line-height:120%;font-family:Calibri;-inkscape-font-specification:Calibri;letter-spacing:0px;word-spacing:0px;white-space:pre;fill-rule:evenodd;stroke-width:6.66667px;stroke-linecap:butt" /><path
       d="m 7447.6468,4685.1876 q -2.3697,0 -3.2812,-0.5467 -0.9114,-0.5467 -0.9114,-1.5799 v -25.3993 q 0,-1.0937 0.9114,-1.6406 0.9722,-0.5467 3.2812,-0.5467 2.3091,0 3.2206,0.5467 0.9114,0.5467 0.9114,1.6406 v 25.3993 q 0,0.486 -0.182,0.8508 -0.182,0.4253 -0.7291,0.6684 -0.486,0.304 -1.2761,0.4253 -0.7899,0.182 -1.9444,0.182 z"
       id="path40889"
       style="font-size:18.6667px;line-height:120%;font-family:Calibri;-inkscape-font-specification:Calibri;letter-spacing:0px;word-spacing:0px;white-space:pre;fill-rule:evenodd;stroke-width:6.66667px;stroke-linecap:butt" /><path
       d="m 7421.4576,4745.5262 q -1.0938,0 -1.9445,-0.182 -0.8507,-0.1213 -1.4583,-0.4253 -0.5467,-0.2433 -0.8507,-0.7292 -0.2433,-0.4253 -0.2433,-0.9722 v -43.4463 q 0,-0.8507 0.182,-1.5191 0.2433,-0.6073 0.7291,-1.0937 0.486,-0.4254 1.3976,-0.6684 0.9115,-0.182 2.2483,-0.182 1.2152,0 2.1267,0.06 0.9115,0.1213 1.5799,0.4253 0.7291,0.304 1.3975,0.7292 0.7292,0.486 1.5191,1.2153 l 16.1632,15.2517 q 5.5903,5.2865 10.0261,8.4462 4.4358,3.2205 8.0816,4.9219 3.6459,1.7622 6.6233,2.309 2.9774,0.5467 5.5903,0.5467 2.6128,0 4.9219,-0.8507 2.3698,-0.8507 4.1319,-2.4913 1.7622,-1.5799 2.7951,-4.0104 1.033,-2.4306 1.033,-5.5903 0,-3.7066 -1.033,-6.684 -1.0329,-2.9167 -2.2482,-5.165 -1.2153,-2.1875 -2.2483,-3.7066 -1.0329,-1.4584 -1.0329,-2.1875 0,-0.4253 0.2433,-0.7899 0.2433,-0.304 0.7899,-0.5467 0.5467,-0.1827 1.4584,-0.304 0.9114,-0.1213 2.1875,-0.1213 0.9115,0 1.5799,0.06 0.6684,0.06 1.1545,0.182 0.486,0.1826 0.9115,0.4253 0.4253,0.2433 1.0329,0.9722 0.6684,0.7292 1.7622,2.4913 1.0937,1.823 2.1267,4.4966 1.0938,2.7344 1.823,5.9548 0.7291,3.2813 0.7291,6.8664 0,5.7118 -1.6406,9.9652 -1.5799,4.3143 -4.375,7.1094 -2.7952,2.856 -6.5018,4.2535 -3.7066,1.3976 -7.8993,1.3976 -3.7674,0 -7.5347,-0.6684 -3.7067,-0.6684 -8.0817,-2.8559 -4.3142,-2.1268 -9.6614,-6.198 -5.2865,-4.0711 -12.2136,-10.8159 l -13.0035,-12.4567 v 34.2102 q 0,0.486 -0.304,0.9114 -0.2433,0.486 -0.7899,0.79 -0.5467,0.3646 -1.3976,0.486 -0.79,0.182 -1.8837,0.182 z"
       id="path40891"
       style="font-size:18.6667px;line-height:120%;font-family:Calibri;-inkscape-font-specification:Calibri;letter-spacing:0px;word-spacing:0px;white-space:pre;fill-rule:evenodd;stroke-width:6.66667px;stroke-linecap:butt" /><path
       d="m 7429.5684,4924.0433 q -1.2154,0 -2.066,-0.1213 -0.79,-0.1214 -1.3976,-0.4254 -0.5467,-0.2433 -0.8507,-0.6684 -0.2433,-0.3646 -0.2433,-0.9114 v -34.757 q 0,-1.3976 0.9114,-2.6737 0.9722,-1.2153 3.342,-1.2153 h 72.7956 q 0.486,0 0.8507,0.2434 0.3647,0.2433 0.5467,0.8507 0.2433,0.6073 0.3646,1.6406 0.182,1.033 0.182,2.4913 0,1.5191 -0.182,2.4914 -0.1213,1.0329 -0.3646,1.6406 -0.182,0.608 -0.5467,0.8507 -0.3647,0.2433 -0.8507,0.2433 h -67.9949 v 28.1946 q 0,0.5466 -0.304,0.9114 -0.2433,0.4254 -0.7899,0.6684 -0.486,0.304 -1.3368,0.4254 -0.8507,0.1213 -2.066,0.1213 z"
       id="path40894"
       style="font-size:18.6667px;line-height:120%;font-family:Calibri;-inkscape-font-specification:Calibri;letter-spacing:0px;word-spacing:0px;white-space:pre;fill-rule:evenodd;stroke-width:6.66667px;stroke-linecap:butt" /><path
       d="m 7450.4712,4983.2882 q -5.165,0 -10.0261,-1.5799 -4.8003,-1.5799 -8.5069,-4.8611 -3.6459,-3.2812 -5.8942,-8.3246 -2.1875,-5.0435 -2.1875,-11.9098 0,-4.9219 1.2153,-8.6892 1.2153,-3.7674 3.4636,-6.5626 2.2482,-2.7951 5.5295,-4.6788 3.2813,-1.8229 7.4739,-2.9774 4.1928,-1.0938 9.1754,-1.5799 4.9826,-0.486 10.6945,-0.486 5.0434,0 10.2083,0.5467 5.165,0.5466 9.9653,1.9444 4.8004,1.3976 8.9931,3.7674 4.2535,2.4305 7.3524,6.0156 3.1598,3.6458 4.9827,8.6892 1.8229,5.0434 1.8229,11.7275 0,2.2483 -0.304,4.5573 -0.2433,2.309 -0.7291,4.2535 -0.4253,1.9444 -0.9723,3.2812 -0.5466,1.3369 -0.9114,1.7622 -0.304,0.4253 -0.7292,0.6073 -0.3646,0.2434 -0.8506,0.3647 -0.4254,0.1213 -1.033,0.182 -0.5467,0.06 -1.3976,0.06 -1.0938,0 -1.8837,-0.06 -0.7899,0 -1.2761,-0.2433 -0.486,-0.182 -0.7291,-0.5467 -0.2433,-0.304 -0.2433,-0.8507 0,-0.6684 0.4253,-1.823 0.4253,-1.1544 0.9115,-2.7951 0.5466,-1.6406 0.9722,-4.0104 0.4253,-2.3091 0.4253,-5.408 0,-5.6511 -2.3091,-9.7223 -2.309,-4.0712 -6.1979,-6.684 -3.8889,-2.5521 -9.0538,-3.8281 -5.1042,-1.2153 -10.6945,-1.3976 0.9115,1.5799 1.823,3.5243 0.9114,2.0052 1.6406,4.3142 0.7291,2.3698 1.1545,4.9827 0.486,2.6129 0.486,5.5903 0,6.3802 -1.7621,10.7552 -1.7014,4.375 -4.8004,7.0486 -3.0382,2.7344 -7.2309,3.889 -4.1319,1.1544 -8.9931,1.1544 z m -0.9722,-10.573 q 3.5242,0 6.3802,-0.7291 2.9166,-0.6684 4.9218,-2.3091 2.0052,-1.6406 3.099,-4.375 1.0938,-2.7343 1.0938,-6.7448 0,-2.2482 -0.4254,-4.4965 -0.3646,-2.2483 -1.0938,-4.375 -0.6684,-2.066 -1.6406,-4.0104 -0.9114,-1.8837 -2.0052,-3.4636 -7.8386,0 -13.125,0.9723 -5.2865,1.033 -8.507,2.9166 -3.1597,1.9445 -4.5573,4.8004 -1.3368,2.8559 -1.3368,6.684 0,3.8889 1.4583,6.7448 1.4584,2.8559 3.889,4.7396 2.4913,1.8837 5.5295,2.7344 3.0989,0.9114 6.3195,0.9114 z"
       id="path40896"
       style="font-size:18.6667px;line-height:120%;font-family:Calibri;-inkscape-font-specification:Calibri;letter-spacing:0px;word-spacing:0px;white-space:pre;fill-rule:evenodd;stroke-width:6.66667px;stroke-linecap:butt" /><path
       d="m 7473.6222,5012.3334 q -1.9444,0 -3.2812,-0.304 -1.3368,-0.2434 -2.1875,-1.033 -0.7899,-0.7292 -1.1545,-1.9445 -0.304,-1.2153 -0.304,-3.0989 0,-1.9445 0.304,-3.1598 0.3646,-1.2152 1.1545,-1.9444 0.8507,-0.7292 2.1875,-1.033 1.3368,-0.2427 3.2812,-0.2427 2.066,0 3.4028,0.2427 1.3976,0.304 2.1875,1.033 0.8507,0.7292 1.1545,1.9444 0.3647,1.2153 0.3647,3.1598 0,1.8836 -0.3647,3.0989 -0.304,1.2153 -1.1545,1.9445 -0.7899,0.7899 -2.1875,1.033 -1.3368,0.304 -3.4028,0.304 z m -42.1702,0 q -2.0052,0 -3.342,-0.304 -1.3368,-0.2434 -2.1875,-1.033 -0.7899,-0.7292 -1.0937,-1.9445 -0.3647,-1.2153 -0.3647,-3.0989 0,-1.9445 0.3647,-3.1598 0.304,-1.2152 1.0937,-1.9444 0.8507,-0.7292 2.1875,-1.033 1.3368,-0.2427 3.342,-0.2427 2.0052,0 3.342,0.2427 1.3976,0.304 2.1876,1.033 0.7899,0.7292 1.1545,1.9444 0.3647,1.2153 0.3647,3.1598 0,1.8836 -0.3647,3.0989 -0.3647,1.2153 -1.1545,1.9445 -0.79,0.7899 -2.1876,1.033 -1.3368,0.304 -3.342,0.304 z"
       id="path40898"
       style="font-size:18.6667px;line-height:120%;font-family:Calibri;-inkscape-font-specification:Calibri;letter-spacing:0px;word-spacing:0px;white-space:pre;fill-rule:evenodd;stroke-width:6.66667px;stroke-linecap:butt" /><path
       d="m 7447.5545,5083.7918 q -3.7066,0 -6.8663,-0.9722 -3.099,-0.9114 -5.5903,-2.6128 -2.4913,-1.7014 -4.3751,-4.132 -1.8836,-2.3698 -3.1597,-5.408 -1.276,-2.9774 -1.9444,-6.441 -0.6073,-3.4028 -0.6073,-7.8385 v -20.5383 q 0,-1.3975 0.9114,-2.6736 0.9722,-1.2152 3.342,-1.2152 h 70.1217 q 2.3698,0 3.2813,1.2152 0.9722,1.2761 0.9722,2.6736 v 17.8646 q 0,7.0487 -1.3368,11.5452 -1.3368,4.4966 -3.8889,7.474 -2.5521,3.0382 -6.2587,4.5573 -3.7066,1.5191 -8.3854,1.5191 -2.7952,0 -5.3473,-0.6684 -2.5521,-0.6684 -4.7395,-2.0052 -2.1268,-1.2761 -3.8282,-3.2813 -1.7014,-1.9444 -2.7952,-4.4965 -0.6073,3.2205 -2.2482,6.0156 -1.5798,2.7952 -4.0712,4.8612 -2.4913,2.1267 -5.8334,3.342 -3.342,1.2152 -7.3524,1.2152 z m 35.1823,-15.7378 q 2.856,0 5.165,-0.79 2.309,-0.7899 3.8889,-2.4913 1.6406,-1.7014 2.4913,-4.4357 0.8507,-2.7344 0.8507,-7.231 v -10.816 h -25.4601 v 11.9098 q 0,4.0712 1.033,6.5625 1.0937,2.4913 2.8559,4.1319 1.8229,1.6406 4.1927,2.3698 2.4306,0.79 4.9826,0.79 z m -35.79,4.7396 q 3.5244,0 6.198,-1.1546 2.6736,-1.0937 4.4965,-3.2812 1.8229,-2.1268 2.7344,-5.408 0.9722,-3.2205 0.9722,-8.1424 V 5042.29 h -27.7084 v 15.191 q 0,3.5851 0.8507,6.2587 0.8507,2.6737 2.4914,4.6789 1.7014,2.0659 4.1927,3.2204 2.4913,1.1546 5.7725,1.1546 z"
       id="path40900"
       style="font-size:18.6667px;line-height:120%;font-family:Calibri;-inkscape-font-specification:Calibri;letter-spacing:0px;word-spacing:0px;white-space:pre;fill-rule:evenodd;stroke-width:6.66667px;stroke-linecap:butt" /><path
       d="m 7429.143,5145.5281 q -1.1545,0 -1.9444,-0.1827 -0.79,-0.182 -1.2761,-0.486 -0.486,-0.304 -0.7291,-0.7292 -0.182,-0.3646 -0.182,-0.7899 v -41.0765 q 0,-0.4253 0.182,-0.7899 0.2433,-0.3647 0.7291,-0.7291 0.486,-0.304 1.2761,-0.486 0.7899,-0.182 1.9444,-0.182 1.0938,0 1.8837,0.182 0.7899,0.182 1.276,0.4253 0.5467,0.304 0.7899,0.6684 0.304,0.4253 0.304,0.9115 v 16.4062 h 59.7918 l -9.0538,-15.191 q -0.608,-1.1544 -0.7292,-1.8836 -0.1214,-0.6684 0.2433,-1.0938 0.4253,-0.4253 1.3368,-0.608 0.9115,-0.1213 2.3091,-0.1213 1.0329,0 1.7621,0.06 0.7292,0.1213 1.2153,0.304 0.486,0.1827 0.8507,0.486 0.3647,0.3647 0.7291,0.9115 l 11.606,18.1076 q 0.182,0.2434 0.304,0.6074 0.1213,0.3646 0.2433,0.9114 0.1213,0.5467 0.1213,1.2761 0.06,0.7291 0.06,1.8229 0,1.4584 -0.1213,2.4306 -0.1213,0.9722 -0.3647,1.5191 -0.182,0.5467 -0.5466,0.7291 -0.304,0.1827 -0.6684,0.1827 h -69.0887 v 14.2187 q 0,0.486 -0.304,0.9115 -0.2427,0.4253 -0.7899,0.6684 -0.486,0.304 -1.276,0.4253 -0.79,0.1827 -1.8838,0.1827 z"
       id="path40902"
       style="font-size:18.6667px;line-height:120%;font-family:Calibri;-inkscape-font-specification:Calibri;letter-spacing:0px;word-spacing:0px;white-space:pre;fill-rule:evenodd;stroke-width:6.66667px;stroke-linecap:butt" /><path
       d="m 7455.6968,5186.1792 q -2.3697,0 -3.2812,-0.5467 -0.9114,-0.5467 -0.9114,-1.5799 v -25.3993 q 0,-1.0937 0.9114,-1.6406 0.9722,-0.5467 3.2812,-0.5467 2.3091,0 3.2206,0.5467 0.9114,0.5467 0.9114,1.6406 v 25.3993 q 0,0.486 -0.182,0.8508 -0.182,0.4253 -0.7291,0.6684 -0.486,0.304 -1.2761,0.4253 -0.7899,0.182 -1.9444,0.182 z"
       id="path40904"
       style="font-size:18.6667px;line-height:120%;font-family:Calibri;-inkscape-font-specification:Calibri;letter-spacing:0px;word-spacing:0px;white-space:pre;fill-rule:evenodd;stroke-width:6.66667px;stroke-linecap:butt" /><path
       d="m 7429.143,5246.7002 q -1.1545,0 -1.9444,-0.1827 -0.79,-0.182 -1.2761,-0.486 -0.486,-0.304 -0.7291,-0.7291 -0.182,-0.3647 -0.182,-0.79 v -41.0764 q 0,-0.4254 0.182,-0.79 0.2433,-0.3646 0.7291,-0.7291 0.486,-0.304 1.2761,-0.486 0.7899,-0.1827 1.9444,-0.1827 1.0938,0 1.8837,0.1827 0.7899,0.182 1.276,0.4253 0.5467,0.304 0.7899,0.6684 0.304,0.4254 0.304,0.9115 v 16.4063 h 59.7918 l -9.0538,-15.191 q -0.608,-1.1545 -0.7292,-1.8837 -0.1214,-0.6684 0.2433,-1.0937 0.4253,-0.4254 1.3368,-0.6074 0.9115,-0.1213 2.3091,-0.1213 1.0329,0 1.7621,0.06 0.7292,0.1213 1.2153,0.304 0.486,0.182 0.8507,0.486 0.3647,0.3647 0.7291,0.9115 l 11.606,18.1076 q 0.182,0.2434 0.304,0.6074 0.1213,0.3646 0.2433,0.9114 0.1213,0.5467 0.1213,1.2761 0.06,0.7291 0.06,1.8229 0,1.4584 -0.1213,2.4306 -0.1213,0.9722 -0.3647,1.519 -0.182,0.5467 -0.5466,0.7292 -0.304,0.182 -0.6684,0.182 h -69.0887 v 14.2188 q 0,0.486 -0.304,0.9115 -0.2427,0.4253 -0.7899,0.6684 -0.486,0.304 -1.276,0.4253 -0.79,0.1827 -1.8838,0.1827 z"
       id="path40906"
       style="font-size:18.6667px;line-height:120%;font-family:Calibri;-inkscape-font-specification:Calibri;letter-spacing:0px;word-spacing:0px;white-space:pre;fill-rule:evenodd;stroke-width:6.66667px;stroke-linecap:butt" /><path
       style="display:inline;fill:none;fill-opacity:1;fill-rule:evenodd;stroke:#000000;stroke-width:5.03936;stroke-linecap:butt;stroke-linejoin:miter;stroke-miterlimit:4;stroke-dasharray:none;stroke-dashoffset:0;stroke-opacity:1"
       d="M 734.7598,5520.7767 H 2.62"
       id="path31989"
       sodipodi:nodetypes="cc" /><path
       style="display:inline;fill:none;fill-opacity:1;fill-rule:evenodd;stroke:#000000;stroke-width:5.03936;stroke-linecap:butt;stroke-linejoin:miter;stroke-miterlimit:4;stroke-dasharray:none;stroke-dashoffset:0;stroke-opacity:1"
       d="M 7678.5066,239.11687 H 6968.4325"
       id="path31991"
       sodipodi:nodetypes="cc" /><path
       style="display:inline;fill:none;fill-opacity:1;fill-rule:evenodd;stroke:#000000;stroke-width:5.03936;stroke-linecap:butt;stroke-linejoin:miter;stroke-miterlimit:4;stroke-dasharray:none;stroke-dashoffset:0;stroke-opacity:1"
       d="M 7679.0747,5523.1497 H 6980.8781"
       id="path31993"
       sodipodi:nodetypes="cc" /><path
       style="display:inline;fill:none;fill-opacity:1;fill-rule:evenodd;stroke:#000000;stroke-width:5.03936;stroke-linecap:butt;stroke-linejoin:miter;stroke-miterlimit:4;stroke-dasharray:none;stroke-dashoffset:0;stroke-opacity:1"
       d="M 824.3983,236.85057 H 0.9248"
       id="path31995"
       sodipodi:nodetypes="cc" /><path
       style="display:inline;fill:none;fill-opacity:1;fill-rule:evenodd;stroke:#000000;stroke-width:5.03937;stroke-linecap:butt;stroke-linejoin:miter;stroke-miterlimit:4;stroke-dasharray:none;stroke-dashoffset:0;stroke-opacity:1"
       d="M 7188.661,505.51284 V 48.377889"
       id="path31999"
       sodipodi:nodetypes="cc" /><path
       style="display:inline;fill:none;fill-opacity:1;fill-rule:evenodd;stroke:#000000;stroke-width:5.03936;stroke-linecap:butt;stroke-linejoin:miter;stroke-miterlimit:4;stroke-dasharray:none;stroke-dashoffset:0;stroke-opacity:1"
       d="M 7186.3773,5711.6223 V 5312.7987"
       id="path32001"
       sodipodi:nodetypes="cc" /><path
       style="display:inline;fill:none;fill-opacity:1;fill-rule:evenodd;stroke:#000000;stroke-width:5.03936;stroke-linecap:butt;stroke-linejoin:miter;stroke-miterlimit:4;stroke-dasharray:none;stroke-dashoffset:0;stroke-opacity:1"
       d="M 491.33835,5711.6223 V 5299.0795"
       id="path32003"
       sodipodi:nodetypes="cc" /><path
       style="display:inline;fill:none;fill-opacity:1;fill-rule:evenodd;stroke:#000000;stroke-width:5.03936;stroke-linecap:butt;stroke-linejoin:miter;stroke-miterlimit:4;stroke-dasharray:none;stroke-dashoffset:0;stroke-opacity:1"
       d="M 491.82407,451.25288 V 48.377887"
       id="path32005"
       sodipodi:nodetypes="cc" /><path
       d="m 7418.3403,5385.9496 q 0,18.4889 -7.1111,32.9955 -7.1111,14.5067 -20.7644,22.7556 -13.6533,8.5333 -33.8488,8.5333 -32.9955,0 -52.0533,-20.48 -18.7733,-20.48 -18.7733,-60.5866 0,-15.9288 2.8445,-30.151 2.8444,-13.9378 8.2488,-24.4622 h 36.9778 q -5.4045,10.5244 -9.3867,25.3155 -3.6978,14.7911 -3.6978,27.8755 0,19.0578 7.68,29.0133 7.9645,10.24 24.4622,10.24 30.72,0 30.72,-40.6755 0,-7.9644 -1.7067,-16.4978 -1.4222,-8.5333 -2.8444,-14.2222 l 9.1022,-17.0666 103.5376,7.68 v 110.0798 h -36.4088 v -72.5332 l -39.8222,-3.6978 q 0.8533,4.8356 1.7067,10.24 1.1377,5.6889 1.1377,15.6444 z"
       id="path40909"
       style="font-weight:bold;font-size:284.444px;line-height:120%;font-family:'Noto Sans';-inkscape-font-specification:'Noto Sans Bold';text-align:center;letter-spacing:0px;word-spacing:0px;text-anchor:middle;fill:none;fill-rule:evenodd;stroke:#000000;stroke-width:6.66667px;stroke-linecap:butt" /></g></svg>
